<svg width="309" height="367" viewBox="0 0 309 367" fill="none" xmlns="http://www.w3.org/2000/svg">
    <path opacity="0.6" d="M232.743 156.199C238.77 162.145 240.605 169.951 241.742 177.828C243.242 188.207 246.261 197.807 252.729 206.245C257.37 212.303 257.987 219.439 257.916 226.871C257.86 232.645 258.49 238.493 259.462 244.197C261.696 257.308 264.527 270.318 266.711 283.436C267.824 290.117 270.241 295.777 275.414 300.267C278.768 303.178 281.912 306.337 285.069 309.466C286.015 310.404 286.693 311.615 287.493 312.7L287.494 312.701C287.468 312.679 287.44 312.658 287.414 312.636C290.046 316.065 292.823 319.393 295.272 322.948C299.21 328.667 302.96 334.517 306.713 340.36C307.437 341.488 308.429 342.948 308.238 344.076C307.043 351.149 305.549 358.17 304.001 365.981C295.102 360.168 291.514 351.799 288.346 343.139L288.347 343.14C289.939 346.001 291.37 348.968 293.162 351.697C295.701 355.564 298.507 359.255 301.198 363.021C301.548 362.886 301.897 362.752 302.246 362.617C303.558 357.145 305.042 351.704 306.07 346.178C306.348 344.688 305.531 342.782 304.726 341.343C301.953 336.387 298.99 331.538 296.047 326.679C293.197 321.973 290.283 317.306 287.397 312.621C281.456 307.607 274.874 303.147 269.844 297.343C266.773 293.799 265.489 288.281 264.517 283.428C261.678 269.267 259.239 255.02 256.982 240.753C256.136 235.402 255.829 229.891 255.987 224.474C256.215 216.645 254.638 209.639 249.279 203.691C244.697 198.604 242.453 192.343 241.502 185.765C240.011 175.45 238.579 165.195 232.743 156.199ZM1.38967 244.761C-0.875155 240.514 -0.479917 237.799 3.37698 235.497C19.9518 225.606 33.074 210.71 51.0039 202.817C54.4454 201.301 57.784 199.554 61.3076 197.846C58.8781 195.691 56.389 193.747 54.2149 191.497C50.8613 188.027 48.673 183.949 48.6016 178.936C48.5577 175.883 49.6882 174.371 52.9737 174.026C63.023 172.972 73.041 171.621 83.0684 170.384C82.5619 166.946 81.1069 164.53 76.4112 163.848C67.9088 162.614 59.5434 160.411 51.1387 158.533C43.8994 156.915 38.3252 152.443 33.3926 147.28C32.052 145.876 31.242 142.842 31.8174 141.091C32.2669 139.726 35.4668 138.122 37.0567 138.458C47.9359 140.764 56.5343 135.375 65.4522 130.803C68.2468 129.37 71.2092 128.265 74.6299 126.777C65.0816 120.193 63.7157 110.169 62.4297 100.173C61.7182 94.6462 60.2241 89.538 56.7617 85.0353C55.1984 83.0015 53.8558 80.5796 57.0537 78.5733L57.0547 78.5792C57.3353 80.3935 57.0648 82.5792 57.9942 83.9562C61.7613 89.5378 62.9592 95.8052 63.9229 102.263C64.8745 108.641 65.5075 115.191 69.8457 120.502C72.9045 124.246 76.2554 126.685 81.6416 126.919C93.5755 127.435 104.827 130.999 115.482 136.491C127.596 142.737 140.33 147.138 154.14 146.65C160.415 146.427 166.873 145.62 172.839 143.763C180.912 141.25 188.516 141.248 196.279 144.319C199.819 145.721 203.405 147.024 207.024 148.206C208.642 148.735 210.392 148.851 212.388 149.211C212.036 144.917 210.114 142.294 206.829 140.732C201.557 138.224 196.248 135.787 190.895 133.458C179.617 128.552 170.333 121.613 164.805 110.13C162.797 105.962 159.689 102.237 156.664 98.6651C152.283 93.4937 149.479 87.6782 147.731 81.1856C147.2 79.209 146.113 77.0549 144.622 75.713C131.702 64.0925 116.768 58.7832 99.335 62.0284C89.469 63.8648 80.3891 67.6974 72.0186 73.2218C72.924 72.2648 73.6769 71.0621 74.7588 70.3868C87.321 62.55 100.815 58.4947 115.767 60.546C116.352 60.626 116.964 60.5204 118.03 60.4864C116.85 59.1431 115.814 57.9648 114.813 56.8263C125.027 62.3139 135.264 67.8135 146.087 73.629C143.145 59.7222 134.78 47.6415 136.44 32.7052C136.766 34.1397 137.09 35.5745 137.407 37.0108C138.665 42.6999 139.554 48.4866 141.117 54.088C143.434 62.3908 146.182 70.5733 148.786 78.795C150.188 83.222 151.672 87.6215 153.119 92.0343C153.287 91.9576 153.456 91.8824 153.623 91.8058C151.872 78.2722 149.686 64.7746 148.535 51.1895C147.843 43.0325 146.118 35.4549 142.419 28.2013C138.581 20.6749 134.985 13.0233 130.777 4.39072C131.429 8.53373 131.804 11.9006 132.506 15.1983C133.302 18.9432 134.149 22.6777 135.003 26.4102C134.187 23.7346 133.411 21.1751 132.773 18.5821C131.691 14.1835 130.36 9.74389 130.118 5.26962C129.867 0.649816 131.837 -0.845843 136.284 0.443453C142.018 2.1059 147.554 4.45467 153.161 6.55087C152.341 6.35736 151.519 6.16749 150.715 5.92099C146.234 4.54943 141.816 2.9213 137.269 1.82822C133.564 0.938027 132.532 1.96898 133.884 5.52548C136.354 12.0215 139.031 18.4882 142.251 24.6378C146.874 33.4689 150.05 42.4667 149.594 52.6397C149.421 56.5143 150.374 60.4538 150.94 64.3448C151.745 69.8638 152.967 75.3389 153.462 80.8819C154.031 87.2496 155.865 92.9786 159.425 98.3145C162.38 102.743 165.002 107.411 167.511 112.112C170.578 117.862 174.602 122.798 180.24 125.967C187.081 129.812 194.222 133.134 201.302 136.538C206.747 139.157 212.765 140.947 215.522 148.413C220.135 137.401 223.315 127.333 219.698 116.268C217.281 108.873 213.341 102.364 207.924 96.8927C199.989 88.8794 197.189 79.4012 198.297 68.3565C198.777 63.5709 198.546 58.7083 198.529 53.881C198.488 41.6323 193.339 31.7657 184.078 24.0265C180.398 20.9505 176.311 18.3615 172.409 15.5509L157.346 8.35751C162.467 10.6295 167.588 12.9021 172.709 15.1749L172.711 15.1729C191.657 24.6357 201.693 38.6698 200.131 57.2423C199.62 63.3106 199.707 69.4305 199.565 75.5284C199.42 81.7842 201.588 87.1886 205.554 91.9874C209.822 97.1534 213.965 102.423 218.735 108.359C217.393 104.39 216.408 101.071 215.155 97.8565C212.672 91.4822 211.664 84.9738 211.872 78.0919C211.996 74.0069 211.286 69.7091 210.03 65.8028C206.059 53.4489 205.743 40.778 206.283 28.0558C206.6 20.5896 207.659 13.1487 208.582 5.71982C208.747 4.39759 209.875 3.19427 210.56 1.93564C211.82 2.68117 213.683 3.12687 214.235 4.22763C216.316 8.37178 218.41 12.6028 219.685 17.0352C221.707 24.0729 223.078 31.297 224.718 38.4366C223.209 34.3362 221.491 30.3057 220.253 26.1329C218.458 20.081 217.229 13.8558 215.291 7.85654C214.655 5.88871 212.561 4.39201 211.134 2.68075C210.758 2.8781 210.381 3.0752 210.005 3.27255C209.561 5.98712 209.041 8.69339 208.684 11.42C206.334 29.3411 206.408 47.0936 211.319 64.7198C212.821 70.1095 212.759 75.9342 213.413 81.5606C213.807 84.9473 213.745 88.4673 214.68 91.6983C217.37 100.992 220.464 110.171 223.356 119.258C223.717 117.322 224.34 115.004 224.555 112.649C225.788 99.1149 227.148 85.5854 228.004 72.0255C228.45 64.9661 228.319 57.8165 227.745 50.7647C227.403 46.5625 225.699 42.471 224.607 38.3302C226.261 43.5849 228.786 48.7475 229.355 54.1163C230.124 61.3666 229.562 68.7829 229.251 76.1143C228.923 83.8328 228.558 91.5776 227.595 99.2335C226.254 109.88 224.742 120.54 222.52 131.027C221.24 137.063 223.348 141.602 226.3 146.233C228.462 149.624 230.695 152.969 232.897 156.335C228.753 150.951 224.609 145.565 220.995 140.871C218.59 145.341 215.738 150.64 212.561 156.544C212.838 156.733 213.707 157.269 214.515 157.883C223.845 164.974 229.884 174.178 233.15 185.48C235.362 193.135 238.651 200.473 241.078 208.074C243.27 214.938 244.577 222.094 246.931 228.895C251 240.657 249.853 252.757 250.009 264.787C250.031 266.523 249.126 267.895 247.065 266.972C242.32 264.846 237.293 263.112 232.99 260.291C225.137 255.144 217.388 249.72 210.23 243.661C203.977 238.368 197.147 235.673 189.334 235.459C187.585 238.096 185.863 240.694 183.664 244.009C185.83 248.21 188.356 253.111 190.98 258.201C197.456 255.466 203.708 256.279 209.492 260.056C218.38 265.861 227.804 270.489 237.892 273.795C243.043 275.483 246.157 279.07 248.503 283.994C254.077 295.696 260.503 306.775 269.897 316.15C275.07 321.314 278.416 328.311 282.584 334.482C282.213 334.142 281.708 333.872 281.491 333.453C276.141 323.096 267.155 315.717 260.001 306.852C254.959 300.603 251.189 293.19 247.659 285.904C244.79 279.985 240.795 276.514 234.639 274.109C226.532 270.942 218.843 266.611 211.211 262.354C205.437 259.133 199.767 256.771 193.137 259.285C192.782 259.42 192.417 259.544 192.086 259.726C191.876 259.842 191.718 260.055 191.995 259.796C192.803 268.121 193.802 276.041 194.294 283.991C195.127 297.45 189.953 308.555 180.224 317.666C178.09 319.665 175.823 321.519 173.663 323.491C168.043 328.623 162.401 333.733 156.866 338.955C154.145 341.523 153.069 341.431 151.699 338.052C148.749 330.768 147.988 323.45 150.139 315.685C152.269 307.998 153.643 300.101 155.483 291.675C148.605 296.261 142.784 301.111 139.035 308.03C135.886 313.842 132.951 319.769 129.818 325.589C125.903 332.863 120.212 338.29 112.758 341.942C108.083 344.233 103.394 346.568 98.9903 349.327C89.4639 355.297 78.6368 356.08 67.9932 357.872C64.348 358.486 60.854 360.226 57.4073 361.722C54.5074 362.979 51.8162 364.714 48.959 366.08C45.5022 367.733 43.0199 366.347 41.4883 363.14C40.79 361.677 40.2045 360.029 40.1114 358.433C39.7804 352.788 41.9215 347.909 45.5811 343.589C44.7522 345.641 43.8091 347.658 43.1162 349.755C41.5879 354.383 41.3452 358.951 43.9424 363.383C44.9346 365.076 46.0378 365.861 47.9444 364.897C48.3939 364.669 48.9673 364.654 49.3741 364.38C57.4345 358.94 66.7917 357.301 75.9014 354.555C96.1326 348.456 111.053 335.21 121.436 316.821C124.43 311.518 127.606 306.319 130.697 301.071C121.548 324.865 107.559 344.276 82.7383 354.137C87.9812 352.642 92.8484 350.624 97.5606 348.292C101.54 346.322 105.189 343.634 109.252 341.888C119.339 337.551 126.636 330.451 131.081 320.533C136.573 308.277 143.696 297.408 154.552 289.102C157.35 286.962 159.052 283.362 161.157 280.363C161.656 279.653 161.751 278.66 162.291 276.999C153.552 283.53 142.77 285.087 135.998 293.179C138.101 290.612 140.237 288.003 143.023 284.602C138.65 285.443 134.717 285.591 131.29 286.984C124.365 289.799 117.713 293.284 110.951 296.502C102.314 300.612 93.5871 304.317 83.791 304.742C81.9667 304.821 80.2004 306.258 77.6065 307.429C78.66 306.193 79.1642 305.601 79.2881 305.455C73.7789 302.885 68.186 300.157 62.4717 297.714C61.3612 297.239 59.7193 297.676 58.418 298.036C49.0265 300.638 40.3107 299.077 32.0879 294.035C27.3222 291.112 22.4807 288.313 17.7324 285.362C16.2348 284.432 14.8026 283.317 13.5615 282.067C9.17617 277.648 9.13661 274.994 13.1865 270.29C13.7173 269.674 14.237 269.047 14.7373 268.405C10.046 260.146 5.54274 252.546 1.38967 244.761ZM141.094 181.913C143.293 183.565 144.34 187.647 148.519 185.124L148.52 185.125C147.872 185.953 147.225 186.782 146.148 188.158C151.898 193.739 157.437 199.271 163.208 204.55C164.077 205.343 166.313 205.548 167.436 205.014C175.857 201.004 184.032 196.606 187.394 186.954C187.506 186.632 187.912 186.411 188.182 186.143C185.834 197.628 176.469 202.326 166.847 207.289C168.75 208.587 170.072 209.533 171.436 210.412C178.679 215.08 184.076 221.571 188.004 229.014C189.65 232.133 191.711 233.177 194.533 234.354C199.528 236.437 204.631 238.529 209.132 241.471C216.995 246.611 224.454 252.372 232.045 257.922C236.798 261.396 241.989 263.753 248.419 265.019C247.801 252.667 249.747 240.677 244.991 229.184C243.395 225.325 241.445 221.375 241.002 217.319C239.685 205.247 234.816 194.35 231.05 183.035C227.35 171.92 219.484 164.553 210.8 156.991C207.267 161.996 204.027 167.01 200.342 171.673C197.54 175.219 194.174 178.319 191.06 181.618C193.826 178.003 196.591 174.387 199.693 170.33C198.722 170.41 198.565 170.376 198.478 170.438C197.341 171.244 196.244 172.113 195.079 172.877C184.981 179.494 174.494 184.964 161.905 184.651C157.876 184.552 153.837 184.857 149.803 184.977C150.759 184.534 151.713 184.089 153.759 183.141C148.922 182.271 145.132 181.591 141.343 180.91C141.26 181.244 141.177 181.579 141.094 181.913ZM31.8672 141.501C33.0895 143.987 33.4167 145.888 34.5371 146.719C39.2976 150.25 43.8755 154.798 49.2959 156.499C58.911 159.517 69.0908 160.739 79.0381 162.692C79.2355 162.73 79.4848 162.51 79.874 162.337C78.7361 159.4 79.979 158.312 82.9063 158.74C90.2442 159.816 97.3935 161.355 103.561 165.906C109.811 170.519 116.95 172.905 124.537 174.482C129.048 175.419 133.301 177.59 137.678 179.182C138.487 179.476 139.327 179.729 140.173 179.869C144.661 180.617 149.151 181.35 153.649 182.033C157.401 182.602 161.25 183.885 164.908 183.491C186.169 181.203 201.184 169.226 212.935 152.122C208.033 150.261 203.891 148.721 199.775 147.118C191.979 144.082 184.214 141.58 175.787 145.051C163.049 150.297 149.891 150.136 136.855 146.72C128.532 144.538 120.564 141.032 112.337 138.44C97.1567 133.656 82.2721 131.684 67.6817 141.161C60.4917 145.832 52.0055 145.757 43.6524 143.709C40.1442 142.849 36.544 142.363 31.8672 141.501ZM154.117 338.716C159.978 333.5 165.916 328.366 171.675 323.041C175.495 319.51 179.246 315.869 182.699 311.985C189.206 304.672 192.832 295.996 192.353 286.187C191.994 278.865 190.881 271.529 189.442 264.331C188.528 259.755 186.404 255.42 184.698 250.63C177.457 255.744 172.672 261.807 169.007 268.709C166.095 274.195 163.955 280.102 160.911 285.506C158.448 289.88 157.91 294.206 158.504 299.054C159.332 305.81 159.936 312.612 160.18 319.411C160.265 321.806 159.3 324.383 158.279 326.633C157.188 329.037 155.231 331.045 154.098 333.436C153.366 334.977 153.437 336.9 153.148 338.65C153.472 338.672 153.794 338.694 154.117 338.716ZM81.2832 160.134C82.4508 163.013 83.5111 165.42 84.4112 167.886C88.0851 177.951 95.0061 185.72 102.341 193.162C107.496 198.393 113.106 203.196 118.043 208.617C124.861 216.104 132.483 222.366 141.099 227.758C152.454 234.864 165.201 237.685 177.727 241.313C180.236 242.039 183.231 242.799 184.637 239.407C186.55 234.79 187.704 229.841 183.917 225.77C178.936 220.414 173.567 215.396 168.12 210.504C161.621 204.667 154.775 199.219 148.258 193.4C145.046 190.531 142.517 186.858 139.168 184.192C135.955 181.636 132.311 178.892 128.45 178.012C117.02 175.404 106.455 171.26 96.7256 164.64C92.3544 161.665 87.1422 160.24 81.2832 160.134ZM4.33401 236.331C1.9483 237.721 0.928697 240.126 2.15334 242.935C9.62511 260.07 19.6338 274.557 39.2676 279.418C46.0244 281.091 51.8312 284.529 56.7461 289.728C69.8663 303.606 82.3723 306.256 100.209 299.018C107.028 296.25 113.649 292.966 120.252 289.7C127.298 286.216 134.618 283.999 142.501 283.529C150.682 283.043 158.357 279.976 163.377 273.898C169.964 265.923 174.368 256.206 182.502 249.32C184.467 247.657 183.592 244.621 181.134 243.889C176.048 242.373 170.987 240.642 165.792 239.65C146.637 235.995 131.549 225.383 118.02 212.106C114.584 208.733 111.535 204.932 108.57 201.123C106.335 198.252 103.598 196.943 100.058 196.966C93.7022 197.008 87.3467 197.01 80.9912 197.036C74.64 197.061 69.3336 199.22 64.333 203.386C60.6657 206.44 55.7856 208.039 51.4473 210.286C56.9554 206.758 62.4626 203.229 67.9707 199.701C67.6758 199.23 67.3807 198.759 67.0869 198.287C50.8278 203.292 36.955 212.603 23.542 222.812C24.259 223.045 24.8733 223.046 25.3809 222.815C31.7935 219.882 38.1921 216.916 44.5938 213.959C39.6317 219.206 33.0565 221.373 26.6055 224.134C18.8576 227.449 11.6511 232.067 4.33401 236.331ZM155.783 296.904C155.664 309.14 147.401 320.375 151.939 333.835C156.526 327.606 161.258 322.146 158.446 314.151C158.127 313.245 158.431 312.135 158.358 311.126C158.017 306.399 157.645 301.674 157.284 296.948C156.784 296.934 156.283 296.919 155.783 296.904ZM153.974 6.74716C155.098 7.28397 156.222 7.82077 157.346 8.35751C156.198 7.84839 155.05 7.33929 153.902 6.83017L153.974 6.74716ZM153.972 6.74423L153.9 6.82822C153.654 6.73711 153.408 6.64305 153.161 6.55087C153.432 6.61466 153.702 6.67684 153.972 6.74423ZM136.467 32.4591C136.457 32.5411 136.45 32.6233 136.44 32.7052C136.423 32.6276 136.404 32.5503 136.387 32.4727C136.413 32.4683 136.44 32.4636 136.467 32.4591ZM104.774 33.3888C108.91 30.909 113.414 30.7489 118.115 31.1622C122.919 31.5843 127.759 31.6138 132.583 31.8155C132.632 31.5118 132.681 31.208 132.73 30.9054C131.732 30.292 130.733 29.6797 129.733 29.0665C131.495 29.4935 133.303 29.9313 135.955 30.5743C136.1 31.207 136.243 31.8399 136.387 32.4727C125.274 34.3451 114.959 29.7736 104.774 33.3888ZM135.003 26.4102C135.423 27.787 135.854 29.1948 136.282 30.6534C136.172 30.6267 136.063 30.6004 135.955 30.5743C135.638 29.1862 135.32 27.7982 135.003 26.4102ZM127.382 28.7159C128.078 28.7835 128.777 28.8355 129.473 28.9083L129.474 28.9063C129.56 28.9595 129.647 29.0133 129.733 29.0665C129.633 29.0421 129.532 29.0176 129.432 28.9933L129.432 28.9942C128.75 28.9134 128.066 28.8182 127.382 28.7159ZM85.9395 37.4708C84.303 35.207 85.0533 33.3796 87.4082 32.7218C95.0663 30.5806 102.712 27.8461 110.539 27.0304C116.035 26.4584 121.738 27.8727 127.382 28.7159C126.833 28.6626 126.287 28.6005 125.746 28.504C114.393 26.4856 103.511 27.8793 93.1143 33.212C96.6591 33.3379 100.204 33.4641 103.749 33.5899C101.388 33.7904 99.0289 34.0267 96.6641 34.1466C93.3071 34.3176 89.9447 34.3773 85.5254 34.5177C89.3298 39.7824 94.2638 41.1386 99.044 43.2491C94.767 43.5024 88.0862 40.4398 85.9395 37.4708ZM113.851 55.7286C114.171 56.0928 114.49 56.4578 114.813 56.8263C114.421 56.6156 114.03 56.4041 113.638 56.1935C113.709 56.0378 113.779 55.8832 113.851 55.7286ZM37.7852 140.299C47.8187 143.251 57.7276 144.365 67.5254 139.975C69.956 138.886 72.3932 137.794 74.7383 136.536C81.3943 132.969 88.3717 132.027 95.7569 133.534C99.0063 134.198 102.312 134.592 105.591 135.108C105.669 134.789 105.745 134.468 105.823 134.148C101.609 132.938 97.4636 131.305 93.167 130.609C84.327 129.179 75.4134 127.108 66.6709 131.501C57.5872 136.066 48.98 142.312 37.7852 140.299ZM104.376 33.5353L104.376 33.5333C104.509 33.4834 104.642 33.4358 104.774 33.3888C104.654 33.461 104.534 33.5352 104.414 33.6114L104.416 33.6134C104.194 33.6055 103.971 33.5978 103.749 33.5899L104.376 33.5353ZM50.0088 178.619C49.5067 184.729 57.4182 195.483 63.3682 197.162C63.824 197.29 64.3696 197.254 64.8408 197.149C76.8021 194.475 88.9075 194.444 100.818 195.306L100.818 195.305C96.1414 189.224 90.9867 183.407 86.917 176.911C84.3252 172.775 81.2913 171.301 76.9356 171.827C68.7753 172.812 60.621 173.884 52.5166 175.232C51.485 175.403 50.1109 177.385 50.0088 178.619ZM11.752 274.056C19.9985 275.688 25.5224 280.069 28.5899 287.347C29.1527 287.731 29.7888 288.05 30.2266 288.544C38.3441 297.695 48.1746 299.644 59.4727 295.58C55.7626 290.267 50.8074 285.739 45.5547 283.632C35.2478 279.495 24.2481 276.794 16.1865 268.191C14.5891 270.302 13.3823 271.9 11.752 274.056ZM11.2471 276.076C15.0077 285.291 24.3137 286.26 30.7559 290.979C29.9962 289.742 29.2362 288.505 28.4776 287.269C28.485 287.274 28.4925 287.28 28.5 287.285C27.4144 286.186 26.1105 285.217 25.3418 283.929C22.2369 278.723 17.1903 277.242 11.2471 276.076Z" fill="#E9E5DD"/>
</svg>
