<svg xmlns="http://www.w3.org/2000/svg" width="389" height="437" viewBox="0 0 389 437" fill="none">
    <path opacity="0.6" d="M2.36939 159.002C-2.34953 149.104 -0.0732445 142.52 9.68286 137.705C25.9862 129.662 42.4612 121.939 58.5217 113.437C69.8308 107.451 81.5227 102.918 93.8274 99.4753C116.735 93.0652 135.341 99.6081 150.588 117.132C155.002 122.203 158.979 127.65 163.822 133.766C163.996 131.565 164.158 130.497 164.154 129.43C164.08 112.438 170.172 97.2599 177.783 82.489C181.35 75.5644 184.726 68.5364 188.006 61.4704C190.928 55.175 194.978 49.8762 200.613 45.8015C203.42 43.7688 206.189 41.6825 208.996 39.6521C217.295 33.6489 223.522 26.2027 226.423 16.113C227.565 12.1378 229.351 8.2567 231.407 4.65694C234.203 -0.231822 237.645 -1.15296 242.759 1.34054C251.812 5.75756 258.958 12.3801 264.071 21.0505C272.068 34.615 277.028 49.2205 278.57 64.9372C277.106 59.547 275.825 54.1018 274.139 48.7829C270.593 37.5979 266.763 26.323 258.584 17.6657C253.326 12.1006 246.686 7.80465 240.471 3.20089C237.439 0.955342 234.64 2.05492 232.951 5.29952C231.225 8.61379 229.344 11.9365 228.265 15.4802C225.113 25.844 219.355 34.3866 210.352 40.237C197.76 48.4174 189.169 59.3269 183.902 73.3952C179.916 84.0443 174.52 94.1613 170.217 104.704C168.384 109.196 167.565 114.141 166.589 118.941C162.792 137.646 168.511 146.145 184.293 156.346C201.934 167.75 213.686 182.89 219.38 202.885C220.463 206.687 220.719 210.725 221.448 215.218C227.471 207.995 234.96 211.763 242.446 211.284C242.213 208.254 242.428 205.196 241.679 202.394C239.692 194.957 239.703 187.619 241.16 180.103C241.953 176.028 242.08 171.803 242.264 167.636C242.393 164.713 241.061 163.446 237.769 163.486C232.458 163.549 227.082 163.25 221.836 162.433C215.562 161.455 210.171 158.375 205.697 153.777C200.447 148.382 198.064 142.156 200.72 134.814C203.565 126.953 206.263 118.974 209.905 111.473C219.118 92.4937 235.218 89.9281 249.568 105.443C256.088 112.491 263.208 118.035 271.817 122.179C276.501 124.433 280.477 128.161 285.196 131.525C288.387 123.021 287.585 114.246 286.396 105.445C287.188 109.903 288.103 114.349 288.718 118.832C288.986 120.779 288.638 122.813 288.539 125.741C293.326 118.869 297.527 112.707 301.88 106.652C303.811 103.967 305.78 101.207 308.198 98.988C317.337 90.6111 326.574 82.3301 335.959 74.2321C342.204 68.8444 349.449 65.578 357.507 65.3815C356.578 75.1051 355.67 84.5791 354.763 94.0554C352.601 85.2874 354.246 76.638 355.467 67.8679C350.879 73.7655 350.53 81.1587 348.248 87.8376C349.26 81.3323 350.272 74.8293 351.474 67.1022C345.955 70.5148 340.46 73.3065 335.691 77.0261C330.488 81.0842 326.461 86.7561 321.032 90.4001C305.668 100.714 297.493 116.591 287.926 131.425C287.324 132.358 287.477 134.663 288.215 135.441C296.459 144.124 303.629 154.175 316.837 156.372C319.968 156.893 321.792 156.676 323.921 154.563C334.538 144.023 342.791 132.104 346.261 117.297C346.105 119.111 346.269 121.024 345.742 122.724C342.497 133.207 336.984 142.397 329.53 150.437C327.153 152.999 324.779 155.566 322.206 158.348C324.486 159.72 326.164 160.727 328.211 161.958C334.067 155.413 340.127 149.408 345.277 142.706C353.519 131.975 354.699 119.144 354.676 106.133C354.668 102.033 354.749 97.9329 354.787 93.8356C356.878 112.504 357.078 130.868 344.646 146.675C340.734 151.649 336.172 156.114 331.881 160.786C330.056 162.772 330.081 164.326 331.852 166.661C337.53 174.135 336.709 182.265 333.198 190.564C337.295 190.269 341.211 189.686 345.115 189.761C355.301 189.96 364.315 193.425 371.943 200.271C375.416 203.389 377.61 207.068 377.504 211.972C377.135 228.9 381.172 245.198 384.884 261.517C388.457 277.222 389.694 292.837 385.214 308.625C381.781 320.718 374.627 329.914 364.669 337.249C360.578 340.262 356.292 340.041 351.92 338.358C336.406 332.386 321.07 326.057 307.998 315.397C306.797 314.416 305.504 313.547 304.39 312.727C310.154 321.303 316.326 329.723 321.68 338.637C329.399 351.49 334.746 365.31 336.308 380.398C337.34 390.365 335.532 399.702 330.163 408.2C325.232 416.004 320.15 423.713 315.056 431.414C313.041 434.458 310.379 436.737 306.411 435.945C286.93 432.051 268.938 425.185 255.435 409.69C245.125 397.858 240.514 383.819 239.885 368.357C239.454 357.733 238.315 347.341 231.765 337.301C226.316 339.823 220.453 341.896 215.255 345.063C198.896 355.029 180.708 357.696 162.176 358.992C151.495 359.74 145.186 352.877 140.124 344.739C131.136 330.289 122.368 315.699 113.043 300.402C110.037 304.476 107.224 308.166 104.54 311.949C97.7922 321.467 91.8438 331.67 84.2151 340.414C73.1065 353.145 58.4538 359.998 41.344 359.747C32.7552 359.621 24.1424 358.117 15.6419 356.647C12.2029 356.052 8.8023 354.254 5.79909 352.354C0.297722 348.874 -0.342483 345.249 3.52565 340.118C6.35561 336.363 6.90112 332.227 6.66822 327.832C6.3006 320.911 5.58982 314.003 5.41822 307.079C4.72967 279.352 13.464 262.103 35.637 246.666C31.1381 243.312 26.2504 240.262 22.0852 236.428C14.6515 229.588 10.9291 220.555 9.92701 210.724C8.98061 201.433 8.61084 192.015 8.92701 182.683C9.17519 175.33 8.20276 168.635 4.17505 162.45C3.46866 161.366 2.92837 160.171 2.36939 159.002ZM348.982 327.976C348.22 331.545 349.384 334.552 352.733 336.424C356.226 338.377 359.844 339.367 363.113 336.221C367.462 332.033 372.342 328.127 375.684 323.211C386.246 307.679 388.095 290.143 384.933 272.123C381.7 253.71 377.633 235.443 373.716 216.061L373.713 216.061C370.016 221.958 365.945 227.25 363.144 233.144C354.673 250.975 350.261 269.514 354.525 289.434C356.466 298.511 355.195 307.517 352.177 316.303C350.868 320.112 349.822 324.035 348.982 327.976ZM262.238 269.241C262.437 278.123 267.139 283.45 273.853 288.045C283.948 294.954 293.722 302.372 303.306 309.984C316.977 320.844 332.001 329.168 348.936 335.742C345.615 329.743 347.315 324.38 349.201 319.259C353.255 308.249 354.061 297.137 351.844 285.627C350.142 276.786 349.697 267.798 351.922 258.972C355.851 243.388 360.581 228.136 371.001 215.332C374.701 210.786 374.496 208.234 370.354 203.997C361.022 194.454 349.531 190.702 336.454 192.729C333.314 193.216 329.904 195.279 327.653 197.615C319.655 205.913 312.429 214.969 304.245 223.066C300.285 226.983 295.088 229.909 290.003 232.346C286.06 234.236 281.384 234.558 277.108 235.828C276.014 236.152 274.625 237.284 274.364 238.298C273.115 243.178 271.798 248.102 271.272 253.093C270.535 260.078 268.53 266.068 262.238 269.241ZM234.446 337.267C240.844 347.337 241.976 358.338 242.307 369.54C242.383 372.13 242.687 374.722 243.03 377.296C245.699 397.43 255.9 412.859 273.59 422.452C282.874 427.486 293.254 430.598 303.323 434.043C309.272 436.078 311.055 435.025 314.439 429.666C318.672 422.959 322.63 416.074 326.987 409.447C333.419 399.659 335.354 389.07 333.636 377.599C330.181 354.505 319.914 334.658 305.102 316.905C294.029 303.637 279.428 294.728 265.693 284.742L265.69 284.745C265.262 284.878 264.835 285.011 264.407 285.144C266.185 289.472 267.818 293.865 269.785 298.102C271.298 301.362 273.447 304.332 274.91 307.608C276.473 311.104 275.883 314.263 273.601 317.708C268.095 326.016 259.819 329.731 250.952 332.623C245.659 334.349 240.229 335.655 234.446 337.267ZM206.198 151.016C210.254 156.615 216.251 159.879 223.209 160.888C229.165 161.753 235.323 162.186 241.308 161.718C264.639 159.895 286.72 164.779 307.981 173.785C316.627 177.449 324.583 182.505 329.474 191.61C335.282 184.332 335.205 174.665 329.535 167.924C325.58 163.221 320.373 160.552 314.698 158.599C299.971 153.532 284.852 150.649 269.248 150.689C248.25 150.743 227.25 150.902 206.198 151.016ZM245.583 162.577C242.991 179.304 239.808 194.972 245.775 210.782C252.677 209.415 258.218 213.245 262.787 219.26C263.724 220.495 265.136 221.361 266.297 222.43C269.663 225.539 273.011 228.666 277.338 232.691C284.647 232.153 293.604 230.908 300.267 224.05C308.799 215.271 316.85 206.03 325.233 197.101C327.895 194.265 328.288 191.294 325.697 188.689C321.972 184.945 318.136 181.064 313.671 178.351C300.659 170.448 286.036 166.732 271.212 164.314C262.497 162.893 253.522 163.064 245.583 162.577ZM202.837 138.621C200.937 144.088 203.395 147.248 209.197 148.049C214.59 148.794 220.115 148.954 225.569 148.841C250.149 148.33 274.779 145.423 300.478 151.151C296.678 147.035 293.753 143.861 290.822 140.697C282.848 132.097 274.378 124.314 263.343 119.465C258.928 117.525 255.421 113.431 251.65 110.148C249.161 107.982 247.143 105.247 244.561 103.22C234.349 95.2023 221.972 96.3205 215.822 107.227C210.297 117.029 206.557 127.926 202.837 138.621ZM278.578 64.9665L278.573 64.9665C278.573 64.9568 278.571 64.9469 278.57 64.9372C278.572 64.9469 278.576 64.9568 278.578 64.9665ZM121.679 271.803C109.93 270.388 105.797 276.704 110.604 287.704C111.065 288.758 111.498 289.899 112.239 290.743C117.831 297.117 123.434 303.484 129.157 309.74C137.024 318.337 145.386 326.518 152.763 335.509C156.453 340.008 160.129 342.384 165.643 340.883C173.286 338.801 180.741 335.991 188.432 334.134C200.16 331.3 212.02 329.012 223.825 326.491C222.325 326.962 220.836 327.48 219.32 327.897C206.134 331.538 192.948 335.178 179.756 338.784C174.483 340.226 169.23 341.799 163.883 342.907C158.906 343.937 154.609 342.234 151.921 337.832C142.381 322.202 127.031 312.138 114.859 298.953C115.121 300.24 115.542 301.427 116.191 302.473C121.662 311.304 127.153 320.121 132.683 328.915C137.126 335.983 141.362 343.205 146.198 349.998C149.863 355.144 155.504 357.536 161.766 356.852C178.424 355.036 195.13 353.046 210.089 344.616C220.628 338.677 231.796 334.751 243.551 331.987C250.375 330.385 256.962 327.617 263.471 324.927C265.886 323.929 267.778 321.663 270.79 319.279C265.605 319.807 261.774 320.199 257.946 320.589L257.95 320.586C261.579 319.693 265.234 318.894 268.83 317.887C273.877 316.472 275.56 313.211 273.57 308.32C272.49 305.669 271.065 303.1 269.432 300.747C265.553 295.156 263.408 289.057 262.54 282.302C262.043 278.427 260.5 274.685 259.264 270.301C254.713 274.274 251.02 277.944 246.882 281.009C240.376 285.826 233.633 286.59 226.407 281.823C223.269 279.752 219.376 278.553 215.654 277.704C210.98 276.64 207.432 274.443 204.922 270.396C202.741 266.879 200.457 263.423 198.188 259.893C197.344 260.234 196.67 260.481 196.018 260.772C185.728 265.382 175.509 270.029 163.676 268.588C160.619 268.216 157.281 268.829 154.262 269.671C143.521 272.661 132.766 273.139 121.679 271.803ZM201.453 254.405C201.246 256.343 200.565 258.589 201.26 260.193C202.968 264.143 205.348 267.799 208.277 273.043L208.27 273.045C210.184 273.847 213.192 275.297 216.327 276.377C219.845 277.589 223.677 278.034 227.025 279.572C237.013 284.164 241.463 283.455 249.527 276.009C252.86 272.931 256.681 270.341 260.471 267.816C264.774 264.953 267.96 261.265 268.779 256.186C269.9 249.226 270.947 242.187 271.073 235.164C271.127 232.049 269.425 228.459 267.483 225.862C264.752 222.213 261.102 219.234 257.755 216.065C254.671 213.147 251.067 211.774 246.694 212.357C242.734 212.886 238.728 213.254 234.738 213.3C230.035 213.354 225.503 213.505 221.816 217.024C221.136 217.674 220.088 218.038 219.147 218.301C214.167 219.696 210.274 222.23 208.441 227.403C207.882 228.98 206.72 230.403 205.624 231.72C202.826 235.076 202.484 238.834 202.701 243.075C202.893 246.819 201.859 250.62 201.453 254.405ZM260.568 239.018C260.797 237.862 260.746 235.904 261.31 235.706C262.736 235.207 264.44 235.499 267.014 235.461L267.016 235.461C266.11 237.507 265.804 239.331 265.134 239.479C263.714 239.79 262.102 239.224 260.568 239.018ZM255.342 252.966C255.132 252.909 255.403 251.075 255.489 249.269L255.489 249.267C257.593 249.756 258.985 250.077 260.376 250.399C260.122 251.408 260.033 253.184 259.582 253.282C258.232 253.572 256.708 253.334 255.342 252.966ZM247.001 224.425C246.447 223.768 246.902 222.256 246.919 220.213C248.868 221.067 250.419 221.292 251.029 222.17C251.452 222.784 250.884 224.929 250.222 225.236C249.396 225.619 247.621 225.155 247.001 224.425ZM240.225 233.962C242.496 234.222 244.098 234.086 245.289 234.719C245.699 234.939 245.451 237.912 244.873 238.159C243.702 238.662 241.972 238.462 240.742 237.931C240.239 237.714 240.437 235.878 240.225 233.962ZM238.667 254.919C239.016 253.695 239.05 252.172 239.823 251.347C240.379 250.753 241.928 251.089 244.156 250.932C243.137 253.242 242.828 254.803 241.886 255.697C241.45 256.11 239.779 255.218 238.667 254.919ZM239.242 269.118C241.165 269.545 243.161 269.746 243.174 270.031C243.239 271.564 243.112 273.286 242.394 274.575C242.133 275.04 240.047 274.489 238.794 274.403C238.923 272.882 239.052 271.364 239.242 269.118ZM227.484 251.416L227.484 251.419C229.328 251.724 230.866 251.593 231.78 252.286C232.261 252.652 231.935 255.295 231.487 255.444C230.204 255.874 228.668 255.552 227.231 255.526C227.302 254.371 227.372 253.217 227.484 251.416ZM9.66919 140.526C2.15292 144.435 0.313583 149.371 3.50904 157.306C4.15456 158.908 4.88668 160.5 5.78248 161.972C9.86371 168.668 11.0095 175.848 10.1106 183.604C8.76373 195.202 9.7602 206.676 12.9885 217.918C16.2215 229.176 23.1321 237.486 33.3362 243.159C47.434 250.996 62.1989 250.431 77.0852 246.352C92.3943 242.159 107.605 237.59 122.836 233.114C146.721 226.092 169.348 228.487 190.686 241.723C193.664 243.572 197.15 244.602 201.39 246.438L201.387 246.435C199.213 238.753 201.493 233.326 206.306 228.709C206.83 228.207 207.2 227.509 207.511 226.799L207.953 225.738C209.512 222.12 212.11 219.637 215.726 217.921C216.729 217.445 217.823 215.481 217.635 214.426C213.734 192.726 204.573 173.934 185.578 161.605C176.481 155.699 169.611 148.187 163.363 139.549C156.954 130.688 150.129 122.016 142.6 114.106C131.38 102.321 117.365 96.6012 101.004 100.092C90.6258 102.307 79.9755 104.726 70.4612 109.207C49.8516 118.914 29.8954 130.005 9.66919 140.526ZM5.27467 340.745C2.94168 345.916 2.69866 347.57 7.45729 350.771C9.12016 351.89 10.919 352.935 12.8059 353.569C42.5856 363.554 71.0062 356.984 89.4172 331.1C96.7666 320.766 103.83 310.228 110.879 299.687C111.507 298.75 111.41 297.002 111.064 295.801C109.742 291.242 107.668 286.845 106.821 282.214C105.402 274.469 109.715 269.643 117.532 269.485C119.689 269.442 121.879 269.555 124.008 269.892C133.283 271.361 142.382 270.749 151.471 268.374C155.347 267.361 159.505 266.458 163.431 266.783C174.286 267.685 183.748 263.839 193.367 259.714C198.264 257.616 200.481 254.372 200.987 249.717C197.077 248.024 193.511 246.605 190.059 244.95C186.164 243.085 182.517 240.631 178.511 239.086C158.654 231.419 138.57 231.277 118.194 237.263C103.247 241.654 88.1975 245.747 73.052 249.381C62.822 251.834 52.3505 251.675 42.2493 248.292C38.939 247.184 36.6351 247.744 33.9329 249.71C16.7117 262.224 9.2566 279.822 7.94557 300.324C7.37719 309.219 8.53713 318.215 8.23463 327.141C8.07926 331.73 7.14999 336.591 5.27467 340.745Z" fill="#394049"/>
</svg>