<svg xmlns="http://www.w3.org/2000/svg" width="320" height="336" viewBox="0 0 320 336" fill="none">
    <path opacity="0.6" d="M32.1935 23.8565C30.6463 44.0288 34.0388 63.3278 42.2528 81.8365C51.8781 103.524 64.3744 123.107 83.3401 137.97C89.9674 143.165 97.2258 146.68 105.843 148.003C119.19 150.055 132.427 150.706 145.69 148.134C163.407 144.698 181.014 144.803 198.55 149.121C201.873 149.938 204.704 149.466 207.733 147.767C214.825 143.79 222.219 144.951 230.35 146.619C228.259 144.235 226.326 141.69 224.043 139.502C217.77 133.494 211.673 127.242 204.915 121.81C192.234 111.615 182.28 99.1095 172.541 86.2945C161.329 71.5451 149.179 57.9267 132.045 49.3382C122.749 44.6793 114.267 38.3483 105.637 32.4538C100.439 28.8996 95.6961 24.6905 90.6906 20.8481C79.6452 12.3601 67.184 7.42181 53.2675 6.15994C52.3646 6.07699 51.4924 5.67092 50.6026 5.41332C71.6898 2.89834 90.8659 9.07226 109.468 18.1061C117.809 22.158 126.141 26.3191 134.776 29.6724C151.8 36.283 166.83 45.9368 180.26 58.097C184.279 61.7384 187.527 66.227 191.419 70.6544C191.358 69.5061 191.353 68.6372 191.266 67.777C190.358 58.9003 191.629 50.3817 196.311 42.7058C201.312 34.5015 206.203 26.1488 212.077 18.5776C219.02 9.62675 228.974 4.47456 239.458 0.488105C241.768 -0.38952 244.065 -0.258508 245.252 2.34379C250.924 14.7615 256.644 27.1618 262.079 39.6843C263.232 42.339 263.806 45.4871 263.723 48.382C263.298 63.9128 261.816 79.2735 253.054 92.8177C247.256 101.782 243.473 111.383 242.943 122.12C242.907 122.832 242.859 123.543 242.864 124.251C242.864 124.46 243.039 124.665 243.188 124.997C259.463 120.194 275.369 117.762 287.756 132.953C284.451 130.765 281.137 127.905 277.306 126.237C273.493 124.578 269.097 123.133 265.06 123.36C258.818 123.709 252.642 125.482 246.48 126.822C243.85 127.394 242.276 129.08 241.685 131.922C241.106 134.686 240.194 137.472 238.906 139.978C237.613 142.493 235.671 144.676 233.725 147.409C234.707 149.435 236.048 152.326 237.499 155.168C242.671 165.298 240.773 175.616 237.823 185.719C236.144 191.461 235.667 197.115 236.109 202.931C236.977 214.31 244.205 224.697 257.994 225.867C268.273 226.741 276.719 224.108 284.622 218.065C288.211 215.318 291.985 212.786 295.838 210.419C302.115 206.568 307.019 201.499 310.044 194.819C312.932 188.435 315.61 181.951 318.095 175.406C318.569 174.162 317.982 172.289 317.39 170.922C316.504 168.878 314.957 167.119 314.072 165.071C308.527 152.295 307.471 148.658 296.158 139.524C303.079 142.484 308.624 148.527 312.542 157.011C314.769 161.823 317.399 166.451 319.577 171.284C320.138 172.529 320.138 174.432 319.595 175.686C316.149 183.637 312.511 191.505 308.86 199.36C308.269 200.634 307.405 201.844 306.441 202.874C296.702 213.244 285.161 221.13 272.025 226.496C266.265 228.849 257.271 228.037 247.264 225.649C248.864 229.011 250.223 232.203 251.862 235.246C255.215 241.468 254.334 247.332 250.806 253.139C245.156 262.439 237.779 270.032 228.737 276.132C223.907 279.394 219.506 283.28 214.667 286.524C211.45 288.681 207.978 290.763 204.314 291.894C196.837 294.204 191.292 291.353 187.961 284.271C187.628 283.563 187.29 282.86 186.795 281.813C176.056 295.134 161.715 302.819 147.053 310.124C141.842 312.722 137.086 316.228 131.87 318.813C127.426 321.013 122.744 323.096 117.932 324.122C110.796 325.646 104.313 328.287 98.2033 332.147C96.0074 333.536 93.6317 334.771 91.1772 335.588C87.5962 336.78 85.0846 335.361 84.8041 331.667C84.5894 328.851 84.585 325.318 86.0665 323.192C92.3168 314.228 94.4864 303.871 97.2478 293.698C100.184 282.882 103.849 272.355 109.336 262.544C111.528 258.623 114.031 254.881 116.393 251.056C116.24 251.074 115.709 251.03 115.28 251.214C104.844 255.698 93.8859 256.846 82.6871 256.043C56.6163 254.165 33.6225 244.791 13.8327 227.714C10.4972 224.837 6.98626 222.16 3.71206 219.217C-0.570231 215.366 -1.07869 212.511 1.83171 207.586C3.87862 204.114 6.42522 200.94 8.62554 197.552C13.745 189.68 18.7549 181.737 23.8744 173.869C37.4007 153.077 56.6996 143.563 81.4379 144.715C82.8668 144.781 84.2957 144.881 85.7245 144.991C87.1272 145.1 88.5298 145.239 90.0595 145.104C79.9608 139.065 71.7731 131.01 64.6242 121.945C50.9314 104.589 40.7319 85.2859 34.4728 64.1312C31.1284 52.8225 30.2036 41.0204 30.8435 29.1965C30.94 27.3932 31.7421 25.6336 32.2155 23.8522L32.1935 23.8565ZM201.097 151.278C199.716 150.763 199.295 150.549 198.848 150.444C183.464 146.903 167.974 145.606 152.374 148.78C134.723 152.37 117.151 152.741 99.5007 148.693C94.1796 147.471 88.6744 146.894 83.2174 146.427C58.0846 144.27 38.5929 153.802 24.8738 174.887C20.0129 182.357 15.4062 189.989 10.633 197.517C8.40636 201.027 5.91677 204.381 3.80849 207.961C1.10851 212.541 1.40654 214.371 5.32503 217.899C8.77456 221.003 12.4564 223.846 15.9585 226.889C35.757 244.118 58.9087 252.982 85.0452 254.309C100.303 255.082 114.434 251.598 126.812 242.394C132.352 238.276 137.66 233.845 142.999 229.465C152.326 221.811 162.407 215.698 174.535 213.546C176.753 213.153 178.971 212.554 181.062 211.734C181.987 211.371 182.99 210.341 183.297 209.398C185.559 202.425 187.667 195.408 189.771 188.387C190.016 187.571 190.244 186.505 189.924 185.807C188.254 182.152 186.37 178.598 184.638 174.969C183.499 172.577 183.31 170.215 185.107 167.944C187.067 165.468 188.815 162.831 190.84 160.417C192.028 158.998 193.562 157.867 194.965 156.631C196.858 154.959 198.77 153.313 201.097 151.282L201.097 151.278ZM243.802 1.78925C242.728 1.72376 241.141 1.16489 239.949 1.62333C230.433 5.28666 220.786 9.46522 214.465 17.4992C207.251 26.6728 200.738 36.6498 195.552 47.0808C190.201 57.8481 191.318 69.3402 196.262 80.5048C199.712 88.2986 202.706 96.3325 205.27 104.458C207.58 111.78 210.946 118.273 216.508 123.587C222.276 129.097 228.202 134.433 230.999 142.288C231.823 144.598 233.861 144.58 235.386 142.506C236.074 141.567 236.688 140.454 236.933 139.332C238.209 133.437 239.804 127.565 240.444 121.596C241.448 112.204 243.596 103.196 249.127 95.5117C256.381 85.443 259.633 74.1736 261.584 62.1663C263.302 51.5824 262.206 41.636 257.683 31.956C253.462 22.9178 249.395 13.8097 245.257 4.73215C244.915 3.98118 244.525 3.2476 243.802 1.79365L243.802 1.78925ZM176.985 215.794C168.333 217.039 160.119 219.418 153.102 224.579C143.805 231.417 134.855 238.722 125.558 245.568C119.51 250.022 114.114 255.06 110.958 261.854C106.921 270.556 103.099 279.402 99.9083 288.436C95.6216 300.57 94.4733 313.835 86.6012 324.676C86.3952 324.956 86.1804 325.336 86.2023 325.654C86.3514 327.873 85.8298 330.698 87.0001 332.099C87.8504 333.116 91.015 332.483 93.0707 332.134C94.539 331.885 95.9153 330.951 97.2828 330.23C104.489 326.432 112.058 323.79 120.058 322.035C124.511 321.057 128.819 318.996 132.904 316.87C140.606 312.857 148.162 308.56 155.657 304.168C168.245 296.785 180.488 289.017 187.926 275.748C191.046 270.185 195.031 265.085 197.967 259.44C200.299 254.96 201.636 249.969 203.416 245.21C203.017 245.022 202.622 244.839 202.223 244.651C197.52 255.322 189.035 262.173 179.308 267.858C176.345 269.591 173.308 271.486 170.963 273.936C161.18 284.162 148.824 285.581 135.692 284.847C132.155 284.651 130.003 282.812 128.526 279.83C126.943 276.639 127.154 273.508 129.328 270.775C131.988 267.434 135.061 264.426 137.739 261.099C142.793 254.833 148.188 248.764 152.536 242.031C159.142 231.805 166.773 222.737 176.981 215.799L176.985 215.794ZM227.764 139.952C228.071 139.729 228.373 139.511 228.68 139.288C226.738 137.074 224.849 134.813 222.833 132.669C221.04 130.761 219.186 128.896 217.218 127.176C209.596 120.509 205.357 112.086 202.684 102.38C197.836 84.7793 190.726 68.2792 175.955 56.2675C163.218 45.9106 149.407 37.4313 134.105 31.2792C125.282 27.7294 116.617 23.7342 108.109 19.4771C98.9747 14.91 89.4853 11.5829 79.5181 9.46959C78.8124 9.32113 78.1768 8.82775 77.5062 8.49154C77.4317 8.95 77.3528 9.40847 77.2783 9.8669C89.665 14.6786 99.0492 23.7342 109.222 31.7289C115.477 36.6454 121.806 41.7408 128.824 45.3605C147.294 54.8834 161.605 68.8118 174.15 84.9584C183.779 97.3499 193.225 109.894 205.458 120.037C213.124 126.394 220.343 133.289 227.764 139.947L227.764 139.952ZM234.926 197.927C229.473 205.481 224.739 213.205 218.844 219.916C210.538 229.36 204.411 239.433 202.64 252.148C202.031 256.523 199.339 260.702 197.178 264.749C194.667 269.456 191.638 273.883 188.991 278.52C188.496 279.389 188.281 280.952 188.741 281.721C190.249 284.24 191.84 286.834 193.922 288.864C197.056 291.921 201.242 291.453 203.85 287.925C205.239 286.048 206.26 283.839 207.128 281.651C208.268 278.791 209.087 275.8 210.065 272.875C211.573 268.36 214.746 265.863 219.449 265.234C221.338 264.981 223.223 264.666 225.116 264.465C231.91 263.736 237.678 260.977 242.355 255.986C244.634 253.558 246.901 251.118 249.254 248.76C252.213 245.799 252.901 242.398 251.205 238.652C248.855 233.469 246.791 228.077 243.767 223.3C238.77 215.406 233.221 207.887 234.926 197.927ZM165.953 274.608C171.686 270.744 179.059 265.959 186.212 260.867C188.995 258.89 191.629 256.506 193.751 253.842C202.741 242.56 207.054 229.583 206.922 215.187C206.865 208.725 207.435 202.438 209.802 196.316C211.936 190.789 213.812 185.147 215.46 179.454C217.078 173.865 220.352 169.791 225.344 166.949C226.326 166.39 227.282 165.792 228.421 165.11C221.36 162.678 213.931 163.704 208.68 168.324C196.937 178.65 188.741 191.234 185.511 206.677C185.015 209.053 185.024 211.672 185.432 214.074C187.264 224.854 186.264 234.993 180.422 244.612C177.674 249.135 176.179 254.401 173.86 259.204C171.099 264.924 168.066 270.508 165.953 274.604L165.953 274.608ZM183.42 213.581C171.134 221.815 160.176 230.6 152.738 243.341C148.828 250.035 143.406 255.859 138.598 262.025C135.973 265.391 132.847 268.426 130.59 272.015C127.333 277.193 130.879 282.922 136.911 282.795C138.103 282.769 139.295 282.751 140.483 282.716C155.613 282.302 166.264 275.726 171.542 261.064C173.904 254.501 176.67 247.978 180.141 241.944C185.3 232.971 185.458 223.745 183.415 213.585L183.42 213.581ZM208.903 228.448C211.481 225.452 214.404 221.859 217.529 218.449C229.719 205.154 236.263 189.409 238.047 171.625C238.283 169.263 237.749 166.826 237.569 164.425C234.115 165.813 231.275 166.914 228.474 168.097C223.648 170.132 220.036 173.297 218.388 178.48C216.122 185.606 213.615 192.653 211.358 199.779C210.538 202.368 209.776 205.066 209.613 207.752C209.188 214.842 209.105 221.955 208.903 228.452L208.903 228.448ZM234.246 162.552C235.014 156.269 231.709 149.444 226.532 147.912C222.776 146.798 218.362 146.086 214.676 146.977C209.749 148.169 204.836 150.505 200.659 153.413C195.916 156.71 190.902 160.19 188.978 166.276C188.737 167.036 187.277 167.368 186.922 168.141C186.234 169.647 185.129 171.642 185.625 172.869C187.22 176.843 189.46 180.558 191.993 185.414C194.251 181.004 196.083 177.327 198.033 173.716C198.371 173.096 199.199 172.716 199.843 172.289C200.882 171.594 202.188 171.149 202.969 170.249C209.565 162.622 217.775 159.871 227.659 161.753C229.828 162.167 232.055 162.294 234.246 162.552ZM247.387 254.113C238.551 262.466 235.228 265.701 220.041 266.683C215.162 266.998 212.27 269.609 210.687 274.154C208.719 279.8 206.462 285.345 203.959 291.912C220.475 281.127 236.258 270.355 247.387 254.113Z" fill="#FFFAF8"/>
</svg>