<svg width="43" height="42" viewBox="0 0 43 42" fill="none" xmlns="http://www.w3.org/2000/svg">
<g id="basketball-hoop 1">
<g id="Group">
<g id="Group_2">
<g id="XMLID_1_">
<path id="Vector" d="M29.5451 25.3496H29.5544C29.2371 26.1429 28.8264 27.3749 28.4531 28.8869L27.9771 28.0656L29.5451 25.3496Z" fill="#F8F7F3"/>
<path id="Vector_2" d="M28.4438 25.3496L27.4265 27.1136L26.4185 25.3496H28.4438Z" fill="#F8F7F3"/>
<path id="Vector_3" d="M25.4573 25.5923L26.876 28.0563L25.4573 30.5296L24.0293 28.0563L25.4573 25.5923Z" fill="#F8F7F3"/>
<path id="Vector_4" d="M24.4863 25.3496L23.4783 27.1136L22.4609 25.3496H24.4863Z" fill="#F8F7F3"/>
<path id="Vector_5" d="M22.9278 28.0563L21.4998 30.5296L20.0718 28.0563L21.4998 25.5923L22.9278 28.0563Z" fill="#F8F7F3"/>
<path id="Vector_6" d="M20.5386 25.3496L19.5212 27.1136L18.5039 25.3496H20.5386Z" fill="#F8F7F3"/>
<path id="Vector_7" d="M16.581 25.3496L15.573 27.1136L14.5557 25.3496H16.581Z" fill="#F8F7F3"/>
<path id="Vector_8" d="M18.9702 28.0563L17.5422 30.5296L16.1235 28.0563L17.5422 25.5923L18.9702 28.0563Z" fill="#F8F7F3"/>
<path id="Vector_9" d="M13.4546 25.3492L15.0226 28.0558L14.5466 28.8772C14.1733 27.3745 13.7626 26.1332 13.4453 25.3398H13.4546V25.3492Z" fill="#F8F7F3"/>
<path id="Vector_10" d="M17.0012 31.4811L15.5732 33.9545L15.3585 33.5905C15.3305 33.2731 15.2932 32.9651 15.2558 32.6571C15.2558 32.6105 15.2465 32.5731 15.2372 32.5358C15.1345 31.7425 14.9945 30.9771 14.8545 30.2491L15.5732 29.0078L17.0012 31.4811Z" fill="#F8F7F3"/>
<path id="Vector_11" d="M19.5213 29.0078L20.9493 31.4905L19.5213 33.9545L18.0933 31.4811L19.5213 29.0078Z" fill="#F8F7F3"/>
<path id="Vector_12" d="M24.9063 31.4811L23.4783 33.9545L22.0503 31.4905L23.4783 29.0078L24.9063 31.4811Z" fill="#F8F7F3"/>
<path id="Vector_13" d="M28.1452 30.2491C27.9959 30.9771 27.8652 31.7425 27.7625 32.5358C27.7532 32.5731 27.7439 32.6198 27.7439 32.6571C27.7065 32.9651 27.6692 33.2731 27.6412 33.5905L27.4265 33.9545L25.9985 31.4811L27.4265 29.0078L28.1452 30.2491Z" fill="#F8F7F3"/>
<path id="Vector_14" d="M27.5851 37.6136H26.4185L27.4358 35.8589L27.5291 36.0176C27.5198 36.5496 27.5385 37.0909 27.5851 37.6136Z" fill="#F8F7F3"/>
<path id="Vector_15" d="M26.876 34.9069L25.4573 37.3803L24.0293 34.9069L25.4573 32.4336L26.876 34.9069Z" fill="#F8F7F3"/>
<path id="Vector_16" d="M23.4783 35.8589L24.4863 37.6136H22.4609L23.4783 35.8589Z" fill="#F8F7F3"/>
<path id="Vector_17" d="M21.4998 32.4336L22.9278 34.9069L21.4998 37.3803L20.0718 34.9069L21.4998 32.4336Z" fill="#F8F7F3"/>
<path id="Vector_18" d="M19.5212 35.8589L20.5386 37.6136H18.5039L19.5212 35.8589Z" fill="#F8F7F3"/>
<path id="Vector_19" d="M17.5422 32.4336L18.9702 34.9069L17.5422 37.3803L16.1235 34.9069L17.5422 32.4336Z" fill="#F8F7F3"/>
<path id="Vector_20" d="M15.5732 35.8589L16.5905 37.6136H15.4238C15.4612 37.0816 15.4892 36.5496 15.4892 36.0176L15.5732 35.8589Z" fill="#F8F7F3"/>
<path id="Vector_21" d="M14.2384 32.1812H3.57044C2.39444 32.1812 1.43311 31.2199 1.43311 30.0438V11.1158C1.43311 9.93985 2.39444 8.97852 3.57044 8.97852H12.6704C12.4184 9.51052 12.2038 10.0612 12.0544 10.6398H4.71844C4.11177 10.6398 3.61711 11.1345 3.61711 11.7412V29.4185C3.61711 30.0252 4.11177 30.5199 4.71844 30.5199H13.9491C14.0518 31.0519 14.1544 31.6119 14.2384 32.1812Z" fill="#F8F7F3"/>
<path id="Vector_22" d="M16.8053 21.7843H11.0373C10.0573 21.7843 9.25467 22.587 9.25467 23.567C9.25467 24.547 10.0573 25.3496 11.0373 25.3496H12.4093C12.7453 26.087 13.2867 27.627 13.7347 29.5683H4.71867C4.63467 29.5683 4.56934 29.503 4.56934 29.419V11.7416C4.56934 11.6576 4.63467 11.5923 4.71867 11.5923H11.8493C11.7653 12.115 11.7187 12.6563 11.7187 13.1976C11.7187 15.9416 12.8573 18.4336 14.6867 20.2163C14.7147 20.2536 14.7427 20.2816 14.78 20.3096C15.3867 20.8883 16.068 21.383 16.8053 21.7843Z" fill="#F8F7F3"/>
<path id="Vector_23" d="M15.1064 7.12158C16.9357 8.59625 18.0184 10.8456 18.0184 13.2069C18.0184 15.5682 16.9357 17.8176 15.1064 19.2922C13.5944 17.7056 12.6704 15.5682 12.6704 13.2069C12.6704 12.5256 12.7451 11.8629 12.8944 11.2189C13.0997 10.3322 13.4357 9.50158 13.8837 8.73625C14.2291 8.14825 14.6397 7.60692 15.1064 7.12158Z" fill="#F8F7F3"/>
<path id="Vector_24" d="M21.0235 4.38672V22.0267C20.4822 21.9987 19.9595 21.9241 19.4462 21.8027C18.0835 21.4761 16.8329 20.8321 15.7969 19.9547C17.7942 18.2934 18.9609 15.8201 18.9609 13.2067C18.9609 10.5934 17.7942 8.12005 15.8062 6.45872C17.2249 5.25472 19.0449 4.48939 21.0235 4.38672Z" fill="#F8F7F3"/>
<path id="Vector_25" d="M23.5063 21.8027C23.0116 21.9147 22.4983 21.9894 21.9756 22.0174V4.38672C23.9636 4.48939 25.7743 5.25472 27.1929 6.45872C25.1956 8.12005 24.0289 10.5934 24.0289 13.2067C24.0289 15.8107 25.2049 18.2934 27.1929 19.9547C26.1476 20.8414 24.8876 21.4854 23.5063 21.8027Z" fill="#F8F7F3"/>
<path id="Vector_26" d="M30.105 11.2096C30.2543 11.8536 30.329 12.5162 30.329 13.2069C30.329 15.5682 29.405 17.7056 27.893 19.2922C26.0636 17.8176 24.981 15.5682 24.981 13.2069C24.981 10.8456 26.0636 8.59625 27.893 7.12158C28.3596 7.60692 28.7703 8.15758 29.1156 8.73625C29.5636 9.49225 29.8996 10.3322 30.105 11.2096Z" fill="#F8F7F3"/>
<path id="Vector_27" d="M31.9532 22.7358C32.4105 22.7358 32.7838 23.1092 32.7838 23.5665C32.7838 24.0238 32.4105 24.3972 31.9532 24.3972H30.2825H12.7172H11.0465C10.5892 24.3972 10.2158 24.0238 10.2158 23.5665C10.2158 23.1092 10.5892 22.7358 11.0465 22.7358H19.3065C20.0158 22.8945 20.7438 22.9878 21.5092 22.9878C22.2745 22.9878 23.0025 22.9038 23.7118 22.7358H31.9532Z" fill="#F8F7F3"/>
<path id="Vector_28" d="M38.4304 11.7416V29.419C38.4304 29.503 38.3651 29.5683 38.2811 29.5683H29.2557C29.7037 27.627 30.2451 26.0963 30.5811 25.3496H31.9531C32.9331 25.3496 33.7357 24.547 33.7357 23.567C33.7357 22.587 32.9331 21.7843 31.9531 21.7843H26.1851C26.9224 21.383 27.6037 20.879 28.2104 20.3096C28.2477 20.2816 28.2757 20.2536 28.3037 20.2163C30.1331 18.4336 31.2717 15.951 31.2717 13.1976C31.2717 12.647 31.2251 12.115 31.1411 11.5923H38.2717C38.3651 11.5923 38.4304 11.667 38.4304 11.7416Z" fill="#F8F7F3"/>
<path id="Vector_29" d="M41.5666 11.1158V30.0438C41.5666 31.2199 40.6052 32.1812 39.4292 32.1812H28.7612C28.8452 31.6119 28.9479 31.0519 29.0506 30.5199H38.2812C38.8879 30.5199 39.3826 30.0252 39.3826 29.4185V11.7412C39.3826 11.1345 38.8879 10.6398 38.2812 10.6398H30.9452C30.7866 10.0612 30.5812 9.50118 30.3292 8.97852H39.4292C40.6052 8.97852 41.5666 9.93985 41.5666 11.1158Z" fill="#F8F7F3"/>
</g>
</g>
</g>
</g>
</svg>
