<svg width="42" height="42" viewBox="0 0 42 42" fill="none" xmlns="http://www.w3.org/2000/svg">
<g id="gym 1">
<path id="Vector" d="M37.4652 18.4274C34.031 15.4709 28.5419 16.4103 26.5452 20.5538C27.6565 20.7752 28.7292 21.1591 29.7286 21.6932C29.8782 21.7765 29.989 21.9152 30.0374 22.0795C30.0858 22.2437 30.0677 22.4203 29.9872 22.5714C29.9067 22.7225 29.7701 22.8359 29.6068 22.8874C29.4435 22.9388 29.2666 22.9241 29.114 22.8465C26.304 21.3068 22.3974 21.0261 20.5405 24.3863L19.7464 23.1918L17.6858 20.0746C16.6303 18.5475 16.1907 15.7282 18.073 14.6343C19.2248 13.9678 20.1262 12.942 20.6389 11.714H23.7102C23.8283 14.0109 24.5633 16.2552 26.0202 16.2552C26.2584 16.2244 28.9161 16.3195 29.1111 16.2028C31.8213 15.4768 31.8282 5.95702 28.7634 5.83398L26.0202 5.83399C24.5567 5.83399 23.8217 8.09805 23.7036 10.4015H20.7177L20.1402 7.84868C20.0616 7.56782 19.917 7.30986 19.7183 7.09636C19.5197 6.88285 19.2728 6.72003 18.9983 6.62149C17.6143 6.10759 16.5996 7.60482 15.2249 7.61889L14.1814 7.7568C12.8315 7.75571 12.2233 9.39253 11.8189 10.4014L10.0077 10.4015C9.89612 8.10462 9.16112 5.84712 7.69768 5.84712H4.95456C1.79756 5.98782 1.85007 16.1812 4.95445 16.2684C5.01724 16.2635 7.6473 16.2713 7.78295 16.2684C8.98339 16.1442 9.57334 14.7485 9.86988 13.0265H8.53768C8.30799 14.234 7.90768 14.9099 7.70424 14.9559C7.39581 14.8902 6.68049 13.4859 6.68049 11.0577C6.68049 8.63618 7.39581 7.22524 7.69768 7.15962C7.97331 7.21868 8.58362 8.38024 8.69518 10.4015H7.78956C7.61703 10.4038 7.45236 10.474 7.33118 10.5968C7.21 10.7196 7.14205 10.8852 7.14205 11.0577C7.14205 11.2303 7.21 11.3959 7.33118 11.5187C7.45236 11.6415 7.61703 11.7117 7.78956 11.714C8.86336 11.7121 10.4136 11.7153 11.4974 11.714C11.3872 12.3568 11.2382 12.9923 11.0511 13.6171C10.198 16.6162 9.93549 20.8949 9.86331 23.9531C9.80714 26.3231 10.2685 28.6768 11.2152 30.8502L12.8755 34.6959C13.0583 35.1006 13.347 35.4485 13.7111 35.7027C14.0752 35.957 14.5012 36.1082 14.9441 36.1405C15.387 36.1727 15.8305 36.0848 16.2275 35.886C16.6246 35.6871 16.9607 35.3847 17.2002 35.0108C17.2186 34.9812 17.245 34.9575 17.2764 34.9424C17.3078 34.9273 17.3428 34.9215 17.3774 34.9255C26.4861 35.818 34.1511 29.8068 35.1289 29.0062C35.8574 28.7371 39.4077 27.2474 39.7817 23.6183C39.8623 22.6282 39.6923 21.6337 39.2875 20.7266C38.8826 19.8194 38.2559 19.0287 37.4652 18.4274ZM28.7633 7.14649C29.0652 7.21212 29.7805 8.61649 29.7805 11.0446C29.7805 13.4661 29.0652 14.8771 28.7699 14.9427C28.468 14.8771 27.7527 13.4661 27.7527 11.0446C27.7527 8.61649 28.468 7.21212 28.7633 7.14649Z" fill="#F8F7F3"/>
<path id="Vector_2" d="M29.4199 11.2153V10.8741C29.4175 10.7016 29.3473 10.5371 29.2245 10.416C29.1017 10.2949 28.9361 10.2271 28.7637 10.2271C28.5912 10.2271 28.4257 10.2949 28.3029 10.416C28.1801 10.5371 28.1099 10.7016 28.1074 10.8741V11.2153C28.1099 11.3878 28.1801 11.5523 28.3029 11.6734C28.4257 11.7945 28.5912 11.8624 28.7637 11.8624C28.9361 11.8624 29.1017 11.7945 29.2245 11.6734C29.3473 11.5523 29.4175 11.3878 29.4199 11.2153Z" fill="#F8F7F3"/>
</g>
</svg>
