<svg xmlns="http://www.w3.org/2000/svg" width="43" height="43" viewBox="0 0 43 43" fill="none">
<path d="M26.6398 22.1671C27.9488 21.1101 29.4468 20.2841 31.1198 19.6961C31.3228 17.8061 31.2248 15.7481 30.8048 13.5361C28.8868 14.5371 27.2558 15.6921 25.9258 16.9661C26.4648 18.7021 26.6958 20.4311 26.6398 22.1671Z" />
<path d="M11.3798 19.696C13.0458 20.284 14.5438 21.103 15.8598 22.16C15.8038 20.431 16.0418 18.702 16.5738 16.973C15.2438 15.692 13.6128 14.537 11.6948 13.543C11.2678 15.741 11.1768 17.806 11.3798 19.696Z" />
<path d="M19.6752 32.4781C17.7782 29.8181 16.5882 27.1441 16.0982 24.4701C14.5442 22.8531 12.6822 21.7121 10.4212 20.9981C8.6922 20.4311 6.6902 20.1231 4.4502 20.0601C6.6062 28.2151 11.3522 32.0721 19.6752 32.4781Z" />
<path d="M17.2124 23.775C17.6814 26.4 18.8994 29.025 20.8734 31.671C22.8474 29.025 24.0654 26.407 24.5344 23.789C24.5344 23.782 24.5344 23.775 24.5344 23.775C24.9544 21.416 24.7584 19.057 23.9534 16.691C23.9534 16.684 23.9464 16.67 23.9464 16.656C23.3024 14.78 22.2874 12.89 20.8734 11C19.4594 12.89 18.4444 14.78 17.8004 16.656C17.8004 16.67 17.7934 16.684 17.7934 16.691C17.0094 18.994 16.8064 21.29 17.1844 23.586C17.1984 23.649 17.2124 23.712 17.2124 23.775Z" />
<path d="M38.0502 20.0669C35.7962 20.1229 33.8362 20.4309 32.0862 20.9909C29.8042 21.7259 27.9422 22.8669 26.4022 24.4839C25.9122 27.1579 24.7152 29.8249 22.8252 32.4779C31.1342 32.0999 35.8942 28.2149 38.0502 20.0669Z" />
</svg>