<svg width="42" height="42" viewBox="0 0 42 42" fill="none" xmlns="http://www.w3.org/2000/svg">
<g id="massage 1" clip-path="url(#clip0_114_12647)">
<g id="Group">
<g id="Group_2">
<path id="Vector" d="M23.543 0C21.5074 0 19.8516 1.73791 19.8516 3.77344C19.8516 5.80896 21.5074 7.54688 23.543 7.54688C25.5785 7.54688 27.2344 5.80896 27.2344 3.77344C27.2344 1.73791 25.5785 0 23.543 0Z" fill="#F8F7F3"/>
</g>
</g>
<g id="Group_3">
<g id="Group_4">
<path id="Vector_2" d="M38.3086 24.7734H27.2344V35.8477C27.2344 37.8864 28.8871 39.5391 30.9258 39.5391H34.6172V40.7695C34.6172 41.4497 35.1675 42 35.8477 42C36.5278 42 37.0781 41.4497 37.0781 40.7695V39.5391H38.3086C40.3473 39.5391 42 37.8864 42 35.8477V28.4648C42 26.4261 40.3473 24.7734 38.3086 24.7734Z" fill="#F8F7F3"/>
</g>
</g>
<g id="Group_5">
<g id="Group_6">
<path id="Vector_3" d="M2.46094 32.1562C1.10176 32.1562 0 33.258 0 34.6172C0 35.9762 1.10176 37.0781 2.46094 37.0781H4.92188V40.7695C4.92188 41.4497 5.47222 42 6.15234 42C6.83246 42 7.38281 41.4497 7.38281 40.7695V37.0781H24.7734V32.1562H2.46094Z" fill="#F8F7F3"/>
</g>
</g>
<g id="Group_7">
<g id="Group_8">
<path id="Vector_4" d="M6.15234 29.6953C8.19105 29.6953 9.84375 28.0426 9.84375 26.0039C9.84375 23.9652 8.19105 22.3125 6.15234 22.3125C4.11364 22.3125 2.46094 23.9652 2.46094 26.0039C2.46094 28.0426 4.11364 29.6953 6.15234 29.6953Z" fill="#F8F7F3"/>
</g>
</g>
<g id="Group_9">
<g id="Group_10">
<path id="Vector_5" d="M12.3049 24.7734C12.2617 24.7734 12.2256 24.7958 12.1829 24.798C12.2608 25.1884 12.3049 25.591 12.3049 26.0039C12.3049 27.2751 11.9172 28.4575 11.2539 29.4392C11.6162 29.6128 11.8145 29.6749 12.551 29.6953L24.7736 29.6901V24.7734H12.3049Z" fill="#F8F7F3"/>
</g>
</g>
<g id="Group_11">
<g id="Group_12">
<path id="Vector_6" d="M30.2047 8.26808C29.7313 7.79468 29.1016 7.56031 28.222 7.55908C27.4854 7.63119 26.8269 8.0265 26.4171 8.64296L21.8582 15.4814L17.5226 17.6492C16.3032 18.2577 15.81 19.7396 16.4207 20.9536C17.0143 22.136 18.532 22.6504 19.7216 22.0531L24.6458 19.5909C25.0269 19.3988 25.3525 19.1116 25.5904 18.7559L28.6618 14.1477C30.1434 16.4476 30.9257 19.126 30.9257 21.8909V22.3127H35.8475V21.8909C35.8475 16.7444 33.8432 11.9066 30.2047 8.26808Z" fill="#F8F7F3"/>
</g>
</g>
</g>
<defs>
<clipPath id="clip0_114_12647">
<rect width="42" height="42" fill="white"/>
</clipPath>
</defs>
</svg>
