<svg width="43" height="42" viewBox="0 0 43 42" fill="none" xmlns="http://www.w3.org/2000/svg">
<g id="mini-golf 1">
<path id="Vector" d="M39.3014 6.45094C39.5206 6.50738 39.5836 6.78825 39.4038 6.92344C37.3379 8.47613 36.0766 9.03525 33.3125 10.5V3.9375C36.347 4.30631 37.2802 5.92987 39.3014 6.45094Z" fill="#F8F7F3"/>
<path id="Vector_2" d="M35.9375 15.75H33.3125V20.1429C34.3048 20.8044 34.9531 21.8177 34.9531 22.9688C34.9531 24.9624 33.0434 26.5781 30.6875 26.5781C28.3316 26.5781 26.4219 24.9624 26.4219 22.9688C26.4219 21.3649 27.6661 20.0222 29.375 19.551V22.6406C29.375 23.184 29.816 23.625 30.3594 23.625C30.9028 23.625 31.3438 23.184 31.3438 22.6406V3.60938C31.3438 3.066 30.9028 2.625 30.3594 2.625C29.816 2.625 29.375 3.066 29.375 3.60938V15.75H7.06644C4.89031 15.75 3.125 17.5127 3.125 19.6888V35.4362C3.125 37.611 4.88769 39.3737 7.0625 39.3737H35.9375C38.1123 39.375 39.875 37.6123 39.875 35.4375V19.6875C39.875 17.5127 38.1123 15.75 35.9375 15.75ZM11 35.4375C9.54969 35.4375 8.375 34.2628 8.375 32.8125C8.375 31.3622 9.54969 30.1875 11 30.1875C12.4503 30.1875 13.625 31.3622 13.625 32.8125C13.625 34.2628 12.4503 35.4375 11 35.4375ZM21.8544 21.8794C21.7927 21.8794 21.7271 21.8794 21.6641 21.8794C17.8027 21.8794 15.3457 23.4478 14.1553 26.67C14.0083 27.0677 13.6329 27.3131 13.2312 27.3131C13.1184 27.3131 13.0029 27.2934 12.89 27.2514C12.3794 27.0624 12.1196 26.4981 12.3073 25.9875C13.8179 21.8964 17.0467 19.8332 21.8662 19.9106C22.4096 19.9172 22.8453 20.3634 22.8388 20.9068C22.8322 21.4462 22.3925 21.8794 21.8544 21.8794Z" fill="#F8F7F3"/>
</g>
</svg>
