<svg width="42" height="42" viewBox="0 0 42 42" fill="none" xmlns="http://www.w3.org/2000/svg">
<g id="relaxing 1">
<path id="Vector" d="M16.7213 9.9815C16.9379 4.3115 25.0622 4.3115 25.2788 9.9815C25.0622 15.6581 16.9313 15.6581 16.7213 9.9815ZM9.48943 30.3909C6.96287 30.2203 4.67256 32.7993 6.58881 34.9715C7.32381 35.8049 8.55756 36.2971 9.88975 36.2971H16.0322C17.4957 36.2971 20.0157 35.759 20.3701 34.4137C20.3701 33.3703 16.5572 30.6665 9.48943 30.3909ZM35.2735 31.3687C34.5647 30.7059 33.5541 30.3384 32.5107 30.3909C25.4429 30.6665 21.6301 33.3703 21.6301 34.4137C21.991 35.7656 24.5044 36.2971 25.9679 36.2971H32.1104C34.8601 36.4349 37.5507 33.6393 35.2735 31.3687ZM25.771 30.8765V22.9293C25.7579 22.6012 26.2435 22.4765 26.3879 22.7718L28.2582 26.3024C29.3672 28.4024 31.5394 29.7084 33.9151 29.7084C36.1069 29.6559 36.1201 26.4337 33.9151 26.3746C32.1694 26.3746 30.6601 25.1343 30.3188 23.4149L29.9972 21.7546C29.3016 18.1978 26.1647 15.6187 22.5422 15.6187H19.4579C15.8354 15.6187 12.6985 18.1978 12.0029 21.7546L11.6813 23.4149C11.3401 25.1343 9.83068 26.3746 8.08506 26.3746C5.89318 26.4271 5.88006 29.6559 8.08506 29.7084C10.4607 29.7084 12.6329 28.4024 13.7419 26.3024L15.6122 22.7718C15.7566 22.4765 16.2357 22.5946 16.2291 22.9293V30.8765C18.5851 31.6509 20.1666 32.7009 20.7572 33.6328H21.2429C21.8335 32.7009 23.4151 31.6509 25.771 30.8765Z" fill="#F8F7F3"/>
</g>
</svg>
