<svg width="43" height="42" viewBox="0 0 43 42" fill="none" xmlns="http://www.w3.org/2000/svg">
<g id="tennis 1" clip-path="url(#clip0_114_12677)">
<path id="Vector" d="M1.27203 37.4957C0.777083 37.9907 0.499023 38.662 0.499023 39.3619C0.499023 40.0619 0.777083 40.7332 1.27203 41.2281C1.76698 41.7231 2.43828 42.0012 3.13824 42.0012C3.83821 42.0012 4.50951 41.7231 5.00446 41.2281L12.443 33.7896L8.71063 30.0571L1.27203 37.4957Z" fill="#F8F7F3"/>
<path id="Vector_2" d="M40.7889 31.3096C40.0569 31.7711 39.4537 32.4105 39.0357 33.1682C38.6177 33.9259 38.3984 34.7771 38.3984 35.6425C38.3984 36.5078 38.6177 37.3591 39.0357 38.1168C39.4537 38.8744 40.0569 39.5139 40.7889 39.9754C41.8885 38.8005 42.5002 37.2516 42.5002 35.6425C42.5002 34.0334 41.8885 32.4844 40.7889 31.3096Z" fill="#F8F7F3"/>
<path id="Vector_3" d="M31.4964 31.3096C30.3969 32.4844 29.7852 34.0334 29.7852 35.6425C29.7852 37.2516 30.3969 38.8005 31.4964 39.9754C32.2285 39.5139 32.8316 38.8744 33.2497 38.1168C33.6677 37.3591 33.8869 36.5078 33.8869 35.6425C33.8869 34.7771 33.6677 33.9259 33.2497 33.1682C32.8316 32.4105 32.2285 31.7711 31.4964 31.3096Z" fill="#F8F7F3"/>
<path id="Vector_4" d="M37.168 35.6427C37.169 34.6313 37.4114 33.6347 37.8751 32.7359C38.3388 31.837 39.0104 31.0618 39.834 30.4748C38.7577 29.7034 37.4668 29.2886 36.1426 29.2886C34.8184 29.2886 33.5275 29.7034 32.4512 30.4748C33.2756 31.0618 33.9477 31.8375 34.4114 32.737C34.8752 33.6366 35.1171 34.634 35.1171 35.646C35.1171 36.6581 34.8752 37.6555 34.4114 38.555C33.9477 39.4546 33.2756 40.2302 32.4512 40.8173C33.5275 41.5886 34.8184 42.0034 36.1426 42.0034C37.4668 42.0034 38.7577 41.5886 39.834 40.8173C39.0095 40.2296 38.3373 39.4533 37.8736 38.5532C37.4099 37.6531 37.1679 36.6553 37.168 35.6427Z" fill="#F8F7F3"/>
<path id="Vector_5" d="M27.8166 9.51547L24.555 6.25391C23.2097 7.1716 22.0486 8.33358 21.1318 9.67953L24.395 12.9427L27.8166 9.51547Z" fill="#F8F7F3"/>
<path id="Vector_6" d="M24.3946 14.6836L19.8477 19.2281C20.5404 20.744 21.7563 21.9593 23.2725 22.6513L27.8162 18.1051L24.3946 14.6836Z" fill="#F8F7F3"/>
<path id="Vector_7" d="M20.4738 10.7607C19.2031 13.1249 18.8208 15.7113 19.3926 17.9434L23.5245 13.8115L20.4738 10.7607Z" fill="#F8F7F3"/>
<path id="Vector_8" d="M32.8203 4.51674C32.131 4.34189 31.4225 4.25425 30.7113 4.25588C29.042 4.25588 27.2865 4.71115 25.6401 5.59791L28.6901 8.64783L32.8203 4.51674Z" fill="#F8F7F3"/>
<path id="Vector_9" d="M32.9842 12.941L37.5312 8.39402C36.8375 6.87882 35.6215 5.66399 34.1056 4.97168L29.5586 9.51539L32.9842 12.941Z" fill="#F8F7F3"/>
<path id="Vector_10" d="M25.2607 13.8135L28.6843 10.39L32.1078 13.8135L28.6843 17.237L25.2607 13.8135Z" fill="#F8F7F3"/>
<path id="Vector_11" d="M24.5581 23.1059C25.2477 23.281 25.9565 23.369 26.6679 23.3675C28.3365 23.3675 30.0919 22.9123 31.7383 22.0255L28.6884 18.9756L24.5581 23.1059Z" fill="#F8F7F3"/>
<path id="Vector_12" d="M36.9039 16.8632C37.6008 15.5866 38.0388 14.1849 38.1926 12.7386C38.3038 11.7149 38.2347 10.6796 37.9884 9.67969L33.8564 13.8116L36.9039 16.8632Z" fill="#F8F7F3"/>
<path id="Vector_13" d="M37.7192 22.8269C43.4843 17.0625 44.1258 8.32456 39.1506 3.34936C34.1754 -1.62583 25.4375 -0.984349 19.6731 4.78081C17.6445 6.80862 16.1778 9.28104 15.4338 11.9257C14.7053 14.5171 14.7004 17.1429 15.4206 19.5185C16.072 21.6694 15.5092 23.9737 13.9523 25.5306L9.93848 29.5444L12.9556 32.5615L16.9694 28.5469C18.528 26.9883 20.8298 26.4272 22.9814 27.0785C25.3604 27.7988 27.9854 27.7939 30.5743 27.0654C33.2189 26.3222 35.6914 24.8555 37.7192 22.8269ZM26.6679 24.5905C24.289 24.5905 22.0463 23.7809 20.3843 22.1189C16.5896 18.3274 17.2343 11.5164 21.8125 6.93577C26.3907 2.35514 33.2042 1.71284 36.9957 5.50432C38.8463 7.35495 39.7027 9.96764 39.4164 12.8609C39.1318 15.7082 37.7635 18.4882 35.5609 20.6875C32.9917 23.26 29.7146 24.5905 26.6679 24.5905Z" fill="#F8F7F3"/>
<path id="Vector_14" d="M32.9845 14.6836L29.5605 18.1068L32.8205 21.3683C34.1653 20.4508 35.3266 19.2898 36.2445 17.9452L32.9845 14.6836Z" fill="#F8F7F3"/>
</g>
<defs>
<clipPath id="clip0_114_12677">
<rect width="42" height="42" fill="white" transform="translate(0.5)"/>
</clipPath>
</defs>
</svg>
