<svg width="43" height="42" viewBox="0 0 43 42" fill="none" xmlns="http://www.w3.org/2000/svg">
<g id="terrace 1">
<g id="Group">
<path id="Vector" d="M6.14844 31.0664H14.2577V42H6.14844V31.0664Z" fill="#F8F7F3"/>
<path id="Vector_2" d="M28.7422 31.0664H36.8515V42H28.7422V31.0664Z" fill="#F8F7F3"/>
<path id="Vector_3" d="M34.0684 14.9297C33.5857 9.85857 30.0903 5.65274 25.3975 4.12598C26.7794 6.77091 27.549 10.8014 27.6745 14.9297H34.0684Z" fill="#F8F7F3"/>
<path id="Vector_4" d="M23.8505 6.75238C23.0483 4.51235 22.0919 3.50977 21.4999 3.50977C20.908 3.50977 19.9516 4.51243 19.1493 6.75238C18.3598 8.95689 17.8849 11.8252 17.7871 14.9297H25.2128C25.115 11.8252 24.6402 8.95689 23.8505 6.75238Z" fill="#F8F7F3"/>
<path id="Vector_5" d="M17.6026 4.12598C12.9097 5.65274 9.41431 9.85857 8.93164 14.9297H15.3256C15.4511 10.8014 16.2206 6.77099 17.6026 4.12598Z" fill="#F8F7F3"/>
<path id="Vector_6" d="M22.7305 1.0993V0H20.2695V1.0993C20.6755 1.06641 21.0857 1.04885 21.5 1.04885C21.9143 1.04885 22.3245 1.06641 22.7305 1.0993Z" fill="#F8F7F3"/>
<path id="Vector_7" d="M32.9604 25.418H22.7304V17.3906H20.2695V25.418H10.0396V27.8789H15.8515C16.7303 27.8789 17.4453 28.5939 17.4453 29.4727V42H25.5547V29.4727C25.5547 28.5939 26.2697 27.8789 27.1485 27.8789H32.9605V25.418H32.9604Z" fill="#F8F7F3"/>
</g>
</g>
</svg>
