<svg width="25" height="25" viewBox="0 0 25 25" fill="none" xmlns="http://www.w3.org/2000/svg">
<g id="blueprint 1">
<g id="Group 12">
<path id="Vector" fill-rule="evenodd" clip-rule="evenodd" d="M7.68559 3.94944H19.8052C20.9436 3.94944 21.875 4.88083 21.875 6.01922V19.8804C21.875 21.0188 20.9436 21.9502 19.8052 21.9502H5.94478C4.80638 21.9502 3.875 21.0188 3.875 19.8804V19.8132C4.66423 18.9557 5.97663 18.5296 7.08435 19.4994L7.98621 20.2886V5.09134C7.98621 4.6773 7.87707 4.28774 7.68559 3.94944ZM5.65853 3.30664C6.63963 3.30664 7.44206 4.11024 7.44206 5.09134V19.0904C6.38173 18.1622 4.93533 18.1622 3.875 19.0904V5.09134C3.875 4.11024 4.67743 3.30664 5.65853 3.30664ZM14.5832 13.2221H9.41203V19.7903C9.41203 19.9368 9.53321 20.0591 9.6808 20.0591H14.5836V13.2221H14.5832ZM9.68041 5.29835H20.57C20.7207 5.29835 20.8419 5.41954 20.8419 5.57023V19.7903C20.8419 20.2374 20.4775 20.6017 20.0305 20.6017H9.13976C8.98984 20.6017 8.86788 20.4805 8.86788 20.3298V6.10972C8.86788 5.66267 9.2322 5.29835 9.68041 5.29835ZM14.5832 5.84095H9.68041C9.53282 5.84095 9.41164 5.9633 9.41164 6.10972V8.44828H14.5828V5.84134L14.5832 5.84095ZM9.41203 8.99204V12.6779H14.8551C15.0058 12.6779 15.1269 12.8003 15.1269 12.9498V16.3231H20.2981V10.7468H14.8551C14.7051 10.7468 14.5832 10.6245 14.5832 10.4749V8.99204H9.41203ZM15.1273 20.0591H20.0313C20.1777 20.0591 20.2989 19.9368 20.2989 19.7903V16.8672H15.1277V20.0591H15.1273ZM20.2985 6.10972C20.2985 5.9633 20.1773 5.84211 20.032 5.84095H15.1273V10.2031H20.2985V6.10972Z" fill="#033C71"/>
</g>
</g>
</svg>
