<svg width="24" height="25" viewBox="0 0 24 25" fill="none" xmlns="http://www.w3.org/2000/svg">
<g id="brickwall 1" clip-path="url(#clip0_59_385)">
<path id="Vector" d="M3.31055 16.9043H9.10366V20.2147H3.31055V16.9043Z" fill="#033C71"/>
<path id="Vector_2" d="M13.2412 13.6678V16.076H19.0343V12.7656H17.4785L13.2412 13.6678Z" fill="#033C71"/>
<path id="Vector_3" d="M8.85505 12.7656H6.62061V16.076H12.4137V13.8416L9.7737 14.4042C9.70833 14.4172 9.64186 14.4242 9.57503 14.4249C9.23774 14.4211 8.92683 14.2422 8.75379 13.9527C8.58076 13.6632 8.5705 13.3045 8.72669 13.0057L8.85505 12.7656Z" fill="#033C71"/>
<path id="Vector_4" d="M0.827641 14.4209H0V16.076H5.79312V12.7656H0V13.5933H0.827641C1.05616 13.5933 1.24146 13.7786 1.24146 14.0071C1.24146 14.2356 1.05616 14.4209 0.827641 14.4209ZM2.48274 13.5933H4.13802C4.36654 13.5933 4.55166 13.7786 4.55166 14.0071C4.55166 14.2356 4.36654 14.4209 4.13802 14.4209H2.48274C2.25422 14.4209 2.06892 14.2356 2.06892 14.0071C2.06892 13.7786 2.25422 13.5933 2.48274 13.5933Z" fill="#033C71"/>
<path id="Vector_5" d="M9.93115 16.9043H15.7243V20.2147H9.93115V16.9043Z" fill="#033C71"/>
<path id="Vector_6" d="M14.0317 10.5316C13.9017 10.5307 13.7794 10.4696 13.7006 10.3661C13.5642 10.1832 13.6012 9.92427 13.7834 9.78676L15.4923 8.5041L13.6221 6.01294C13.5961 5.97705 13.5547 5.95563 13.5102 5.95508H13.502C13.4701 5.95728 13.4419 5.97614 13.4276 6.0047L9.45512 13.3951C9.4337 13.4421 9.43956 13.4972 9.47069 13.5386C9.50163 13.58 9.5529 13.601 9.60399 13.5937L17.8137 11.8474C17.846 11.8445 17.8727 11.8211 17.88 11.7896C17.8963 11.7462 17.8885 11.6973 17.8593 11.6612L15.9889 9.16603L14.28 10.4489C14.208 10.5018 14.121 10.5307 14.0317 10.5316Z" fill="#033C71"/>
<path id="Vector_7" d="M16.5518 16.9043H22.3451V20.2147H16.5518V16.9043Z" fill="#033C71"/>
<path id="Vector_8" d="M13.2412 21.042H19.0343V24.3524H13.2412V21.042Z" fill="#033C71"/>
<path id="Vector_9" d="M0 21.042H5.79312V24.3524H0V21.042Z" fill="#033C71"/>
<path id="Vector_10" d="M6.62061 21.042H12.4137V24.3524H6.62061V21.042Z" fill="#033C71"/>
<path id="Vector_11" d="M23.5204 0.848947C23.1081 0.302009 22.3313 0.191046 21.7824 0.600655L18.3685 3.16213C18.1864 3.29964 18.1494 3.55837 18.2858 3.74148L18.65 4.22561L17.7892 4.87106C17.4045 5.15872 17.1899 5.62051 17.2183 6.10007L17.2597 6.84495C17.2705 7.04746 17.1787 7.24174 17.0156 7.36204L15.4927 8.50426L15.9893 9.16618L17.512 8.02415C17.8967 7.73814 18.1113 7.27781 18.0831 6.79935L18.0417 6.05448C18.0316 5.85105 18.1232 5.65567 18.2858 5.53317L19.1466 4.88754L19.5106 5.37167C19.5776 5.45865 19.6754 5.51651 19.7838 5.53317C19.8028 5.53665 19.8222 5.53812 19.8416 5.5372C19.9312 5.53702 20.0183 5.50809 20.0899 5.45444L23.5038 2.89315C24.052 2.48171 24.1631 1.70369 23.7521 1.1551L23.5204 0.848947ZM23.0072 2.23103L19.9244 4.54422L19.5604 4.06008L19.1962 3.57595L22.279 1.26277C22.4619 1.12599 22.721 1.16297 22.8583 1.34553L23.0899 1.65169C23.1564 1.73903 23.1848 1.84944 23.1687 1.95802C23.1529 2.06679 23.0949 2.16493 23.0072 2.23103Z" fill="#033C71"/>
</g>
<defs>
<clipPath id="clip0_59_385">
<rect width="24" height="24" fill="white" transform="translate(0 0.306641)"/>
</clipPath>
</defs>
</svg>
