<svg width="24" height="25" viewBox="0 0 24 25" fill="none" xmlns="http://www.w3.org/2000/svg">
<g id="build 1" clip-path="url(#clip0_59_347)">
<path id="Vector" d="M3 14.4629H4.6875V16.5254H3V14.4629Z" fill="#033C71"/>
<path id="Vector_2" d="M3 10.3379H4.6875V12.4004H3V10.3379Z" fill="#033C71"/>
<path id="Vector_3" d="M6.75 14.4629H8.4375V16.5254H6.75V14.4629Z" fill="#033C71"/>
<path id="Vector_4" d="M10.5 14.4629H12.1875V16.5254H10.5V14.4629Z" fill="#033C71"/>
<path id="Vector_5" d="M7.875 18.5879H9.5625V22.5254H7.875V18.5879Z" fill="#033C71"/>
<path id="Vector_6" d="M13.6875 13.3379H11.826L10.4036 10.4935C10.3804 10.4468 10.3445 10.4074 10.3002 10.3799C10.2558 10.3524 10.2046 10.3379 10.1524 10.3379H8.01937L7.68937 8.68789C7.67641 8.62436 7.64189 8.56727 7.59166 8.52627C7.54144 8.48527 7.47859 8.46288 7.41375 8.46289H5.1L4.43325 7.46314C4.40759 7.42459 4.3728 7.39299 4.33198 7.37113C4.29115 7.34928 4.24556 7.33786 4.19925 7.33789H2.76938L2.32687 5.12539C2.31391 5.06186 2.27939 5.00477 2.22916 4.96377C2.17894 4.92277 2.11609 4.90038 2.05125 4.90039H1.5C1.42541 4.90039 1.35387 4.93002 1.30113 4.98277C1.24838 5.03551 1.21875 5.10705 1.21875 5.18164V21.0254H5.0625V18.3066C5.0625 18.232 5.09213 18.1605 5.14488 18.1078C5.19762 18.055 5.26916 18.0254 5.34375 18.0254H9.84375C9.91834 18.0254 9.98988 18.055 10.0426 18.1078C10.0954 18.1605 10.125 18.232 10.125 18.3066V21.0254H13.9688V13.6191C13.9688 13.5445 13.9391 13.473 13.8864 13.4203C13.8336 13.3675 13.7621 13.3379 13.6875 13.3379ZM5.25 16.8066C5.25 16.8812 5.22037 16.9528 5.16762 17.0055C5.11488 17.0583 5.04334 17.0879 4.96875 17.0879H2.71875C2.64416 17.0879 2.57262 17.0583 2.51988 17.0055C2.46713 16.9528 2.4375 16.8812 2.4375 16.8066V14.1816C2.4375 14.107 2.46713 14.0355 2.51988 13.9828C2.57262 13.93 2.64416 13.9004 2.71875 13.9004H4.96875C5.04334 13.9004 5.11488 13.93 5.16762 13.9828C5.22037 14.0355 5.25 14.107 5.25 14.1816V16.8066ZM5.25 12.6816C5.25 12.7562 5.22037 12.8278 5.16762 12.8805C5.11488 12.9333 5.04334 12.9629 4.96875 12.9629H2.71875C2.64416 12.9629 2.57262 12.9333 2.51988 12.8805C2.46713 12.8278 2.4375 12.7562 2.4375 12.6816V10.0566C2.4375 9.98205 2.46713 9.91051 2.51988 9.85777C2.57262 9.80502 2.64416 9.77539 2.71875 9.77539H4.96875C5.04334 9.77539 5.11488 9.80502 5.16762 9.85777C5.22037 9.91051 5.25 9.98205 5.25 10.0566V12.6816ZM9 16.8066C9 16.8812 8.97037 16.9528 8.91762 17.0055C8.86488 17.0583 8.79334 17.0879 8.71875 17.0879H6.46875C6.39416 17.0879 6.32262 17.0583 6.26988 17.0055C6.21713 16.9528 6.1875 16.8812 6.1875 16.8066V14.1816C6.1875 14.107 6.21713 14.0355 6.26988 13.9828C6.32262 13.93 6.39416 13.9004 6.46875 13.9004H8.71875C8.79334 13.9004 8.86488 13.93 8.91762 13.9828C8.97037 14.0355 9 14.107 9 14.1816V16.8066ZM12.75 16.8066C12.75 16.8812 12.7204 16.9528 12.6676 17.0055C12.6149 17.0583 12.5433 17.0879 12.4688 17.0879H10.2188C10.1442 17.0879 10.0726 17.0583 10.0199 17.0055C9.96713 16.9528 9.9375 16.8812 9.9375 16.8066V14.1816C9.9375 14.107 9.96713 14.0355 10.0199 13.9828C10.0726 13.93 10.1442 13.9004 10.2188 13.9004H12.4688C12.5433 13.9004 12.6149 13.93 12.6676 13.9828C12.7204 14.0355 12.75 14.107 12.75 14.1816V16.8066Z" fill="#033C71"/>
<path id="Vector_7" d="M5.625 18.5879H7.3125V22.5254H5.625V18.5879Z" fill="#033C71"/>
<path id="Vector_8" d="M21 2.74414C21.2589 2.74414 21.4688 2.53427 21.4688 2.27539C21.4688 2.01651 21.2589 1.80664 21 1.80664C20.7411 1.80664 20.5312 2.01651 20.5312 2.27539C20.5312 2.53427 20.7411 2.74414 21 2.74414Z" fill="#033C71"/>
<path id="Vector_9" d="M19.4062 4.15039H22.5938C22.6683 4.15039 22.7399 4.12076 22.7926 4.06801C22.8454 4.01527 22.875 3.94373 22.875 3.86914V0.681641C22.875 0.607048 22.8454 0.535511 22.7926 0.482767C22.7399 0.430022 22.6683 0.400391 22.5938 0.400391H19.4062C19.3317 0.400391 19.2601 0.430022 19.2074 0.482767C19.1546 0.535511 19.125 0.607048 19.125 0.681641V3.86914C19.125 3.94373 19.1546 4.01527 19.2074 4.06801C19.2601 4.12076 19.3317 4.15039 19.4062 4.15039ZM21 1.24414C21.204 1.24414 21.4033 1.30462 21.5729 1.41794C21.7425 1.53125 21.8747 1.69231 21.9528 1.88075C22.0308 2.06918 22.0512 2.27653 22.0114 2.47658C21.9716 2.67662 21.8734 2.86037 21.7292 3.00459C21.585 3.14882 21.4012 3.24703 21.2012 3.28683C21.0011 3.32662 20.7938 3.30619 20.6054 3.22814C20.4169 3.15009 20.2559 3.01791 20.1425 2.84832C20.0292 2.67873 19.9688 2.47935 19.9688 2.27539C19.9689 2.00195 20.0777 1.73976 20.271 1.54641C20.4644 1.35305 20.7266 1.24434 21 1.24414Z" fill="#033C71"/>
<path id="Vector_10" d="M14.2502 11.2754H13.7814V10.3379H14.2502C14.3248 10.3379 14.3963 10.3083 14.449 10.2555C14.5018 10.2028 14.5314 10.1312 14.5314 10.0566C14.5314 9.98205 14.5018 9.91051 14.449 9.85777C14.3963 9.80502 14.3248 9.77539 14.2502 9.77539H13.7814V8.83789H14.2502C14.3248 8.83789 14.3963 8.80826 14.449 8.75551C14.5018 8.70277 14.5314 8.63123 14.5314 8.55664C14.5314 8.48205 14.5018 8.41051 14.449 8.35777C14.3963 8.30502 14.3248 8.27539 14.2502 8.27539H13.7814V7.36639H14.2993C14.3739 7.36639 14.4454 7.33676 14.4982 7.28401C14.5509 7.23127 14.5805 7.15973 14.5805 7.08514C14.5805 7.01055 14.5509 6.93901 14.4982 6.88627C14.4454 6.83352 14.3739 6.80389 14.2993 6.80389H13.7814V5.86639H14.2993C14.3739 5.86639 14.4454 5.83676 14.4982 5.78401C14.5509 5.73127 14.5805 5.65973 14.5805 5.58514C14.5805 5.51055 14.5509 5.43901 14.4982 5.38627C14.4454 5.33352 14.3739 5.30389 14.2993 5.30389H13.7814V4.80664C13.7814 4.73205 13.7518 4.66051 13.699 4.60777C13.6463 4.55502 13.5748 4.52539 13.5002 4.52539C13.4256 4.52539 13.354 4.55502 13.3013 4.60777C13.2485 4.66051 13.2189 4.73205 13.2189 4.80664V5.30389H11.9064V4.80664C11.9064 4.73205 11.8768 4.66051 11.824 4.60777C11.7713 4.55502 11.6998 4.52539 11.6252 4.52539C11.5506 4.52539 11.479 4.55502 11.4263 4.60777C11.3735 4.66051 11.3439 4.73205 11.3439 4.80664V5.30389H10.0314V4.80664C10.0314 4.73205 10.0018 4.66051 9.94903 4.60777C9.89629 4.55502 9.82475 4.52539 9.75016 4.52539C9.67557 4.52539 9.60403 4.55502 9.55129 4.60777C9.49854 4.66051 9.46891 4.73205 9.46891 4.80664V5.30389H8.15641V4.80664C8.15641 4.73205 8.12678 4.66051 8.07403 4.60777C8.02129 4.55502 7.94975 4.52539 7.87516 4.52539C7.80057 4.52539 7.72903 4.55502 7.67629 4.60777C7.62354 4.66051 7.59391 4.73205 7.59391 4.80664V5.30389H6.28141V3.21289H18.5627V2.65039H17.3019L18.5627 1.64164V1.15039H5.62516C5.55057 1.15039 5.47903 1.18002 5.42629 1.23277C5.37354 1.28551 5.34391 1.35705 5.34391 1.43164V2.93164C5.34391 3.00623 5.37354 3.07777 5.42629 3.13051C5.47903 3.18326 5.55057 3.21289 5.62516 3.21289H5.71891V5.30389H4.40641V4.80664C4.40641 4.73205 4.37678 4.66051 4.32403 4.60777C4.27129 4.55502 4.19975 4.52539 4.12516 4.52539C4.05057 4.52539 3.97903 4.55502 3.92629 4.60777C3.87354 4.66051 3.84391 4.73205 3.84391 4.80664V5.30389H2.93604L3.04854 5.86639H3.84391V6.77539H4.40641V5.86639H5.71891V7.90039H6.28141V7.36639H7.59391V7.91914C7.7542 7.95457 7.90074 8.03581 8.01572 8.15299C8.13069 8.27016 8.20914 8.41821 8.24153 8.57914L8.29291 8.83714H9.46891V9.77464H10.0314V8.83714H11.3439V11.1149L11.9064 12.2399V11.8379H13.2189V12.7754H13.7814V11.8379H14.2502C14.3248 11.8379 14.3963 11.8083 14.449 11.7555C14.5018 11.7028 14.5314 11.6312 14.5314 11.5566C14.5314 11.482 14.5018 11.4105 14.449 11.3578C14.3963 11.305 14.3248 11.2754 14.2502 11.2754ZM17.5734 1.71289L16.5002 2.57164L15.4269 1.71289H17.5734ZM15.6984 2.65039H13.5519L14.6252 1.79164L15.6984 2.65039ZM13.8234 1.71289L12.7502 2.57164L11.6769 1.71289H13.8234ZM11.9484 2.65039H9.80191L10.8752 1.79164L11.9484 2.65039ZM10.0734 1.71289L9.00016 2.57164L7.92691 1.71289H10.0734ZM5.90641 1.71289H7.02654L8.19841 2.65039H5.90641V1.71289ZM7.59391 6.80389H6.28141V5.86639H7.59391V6.80389ZM9.46891 8.27539H8.15641V7.36639H9.46891V8.27539ZM9.46891 6.80389H8.15641V5.86639H9.46891V6.80389ZM11.3439 8.27539H10.0314V7.36639H11.3439V8.27539ZM11.3439 6.80389H10.0314V5.86639H11.3439V6.80389ZM13.2189 11.2754H11.9064V10.3379H13.2189V11.2754ZM13.2189 9.77539H11.9064V8.83789H13.2189V9.77539ZM13.2189 8.27539H11.9064V7.36639H13.2189V8.27539ZM13.2189 6.80389H11.9064V5.86639H13.2189V6.80389Z" fill="#033C71"/>
<path id="Vector_11" d="M14.5312 18.0254H17.9062V19.1504H14.5312V18.0254Z" fill="#033C71"/>
<path id="Vector_12" d="M16.7812 14.9316C16.7812 14.857 16.7516 14.7855 16.6989 14.7328C16.6461 14.68 16.5746 14.6504 16.5 14.6504H14.5312V15.7754H16.7812V14.9316Z" fill="#033C71"/>
<path id="Vector_13" d="M14.5312 21.4004H16.7812V22.5254H14.5312V21.4004Z" fill="#033C71"/>
<path id="Vector_14" d="M14.5312 16.3379H15.0938V17.4629H14.5312V16.3379Z" fill="#033C71"/>
<path id="Vector_15" d="M17.625 16.3379H15.6562V17.4629H17.9062V16.6191C17.9062 16.5445 17.8766 16.473 17.8239 16.4203C17.7711 16.3675 17.6996 16.3379 17.625 16.3379Z" fill="#033C71"/>
<path id="Vector_16" d="M14.5312 19.7129H15.0938V20.8379H14.5312V19.7129Z" fill="#033C71"/>
<path id="Vector_17" d="M15.6562 20.8379H17.625C17.6996 20.8379 17.7711 20.8083 17.8239 20.7555C17.8766 20.7028 17.9062 20.6312 17.9062 20.5566V19.7129H15.6562V20.8379Z" fill="#033C71"/>
<path id="Vector_18" d="M14.5312 23.0879H15.0938V24.2129H14.5312V23.0879Z" fill="#033C71"/>
<path id="Vector_19" d="M10.125 22.5254H10.5938C10.6683 22.5254 10.7399 22.555 10.7926 22.6078C10.8454 22.6605 10.875 22.732 10.875 22.8066V24.2129H13.9688V21.5879H10.125V22.5254Z" fill="#033C71"/>
<path id="Vector_20" d="M5.0625 21.5879H1.21875V23.6504H0.375C0.300408 23.6504 0.228871 23.68 0.176126 23.7328C0.123382 23.7855 0.09375 23.857 0.09375 23.9316C0.09375 24.0062 0.123382 24.0778 0.176126 24.1305C0.228871 24.1833 0.300408 24.2129 0.375 24.2129H4.3125V22.8066C4.3125 22.732 4.34213 22.6605 4.39488 22.6078C4.44762 22.555 4.51916 22.5254 4.59375 22.5254H5.0625V21.5879Z" fill="#033C71"/>
<path id="Vector_21" d="M4.875 23.0879H10.3125V24.2129H4.875V23.0879Z" fill="#033C71"/>
<path id="Vector_22" d="M17.625 23.0879H15.6562V24.2129H17.9062V23.3691C17.9062 23.2945 17.8766 23.223 17.8239 23.1703C17.7711 23.1175 17.6996 23.0879 17.625 23.0879Z" fill="#033C71"/>
<path id="Vector_23" d="M23.625 23.6504H23.1562V22.9941C23.1562 22.9195 23.1266 22.848 23.0739 22.7953C23.0211 22.7425 22.9496 22.7129 22.875 22.7129H19.125C19.0504 22.7129 18.9789 22.7425 18.9261 22.7953C18.8734 22.848 18.8438 22.9195 18.8438 22.9941V23.6504H18.4688V24.2129H23.625C23.6996 24.2129 23.7711 24.1833 23.8239 24.1305C23.8766 24.0778 23.9062 24.0062 23.9062 23.9316C23.9062 23.857 23.8766 23.7855 23.8239 23.7328C23.7711 23.68 23.6996 23.6504 23.625 23.6504Z" fill="#033C71"/>
<path id="Vector_24" d="M22.4062 22.1504V4.71289H21.8438V5.33164L21.102 4.71289H20.223L21.6855 5.93164L20.1562 7.20664V4.71289H19.5938V22.1504H20.1562V19.6566L21.6855 20.9316L20.223 22.1504H21.102L21.8438 21.5316V22.1504H22.4062ZM21.8438 16.5816L20.3145 15.3066L21.8438 14.0316V16.5816ZM21.8438 12.8316L20.3145 11.5566L21.8438 10.2816V12.8316ZM21.8438 6.53164V9.08164L20.3145 7.80664L21.8438 6.53164ZM20.1562 8.40664L21.6855 9.68164L20.1562 10.9566V8.40664ZM20.1562 12.1566L21.6855 13.4316L20.1562 14.7066V12.1566ZM20.1562 15.9066L21.6855 17.1816L20.1562 18.4566V15.9066ZM20.3145 19.0566L21.8438 17.7816V20.3316L20.3145 19.0566Z" fill="#033C71"/>
</g>
<defs>
<clipPath id="clip0_59_347">
<rect width="24" height="24" fill="white" transform="translate(0 0.306641)"/>
</clipPath>
</defs>
</svg>
