<svg width="24" height="25" viewBox="0 0 24 25" fill="none" xmlns="http://www.w3.org/2000/svg">
<g id="cityscape 1" clip-path="url(#clip0_59_427)">
<g id="Group">
<path id="Vector" d="M15.75 11.9316H21.75V10.8066H21V8.55664H20.625V6.68164H19.875V8.55664H19.5V10.8066H15.75V11.9316Z" fill="#033C71"/>
<path id="Vector_2" d="M13.125 1.43164H12.375V3.29914L13.125 3.14914V1.43164Z" fill="#033C71"/>
<path id="Vector_3" d="M14.625 0.681641H13.875V2.99914L14.625 2.84914V0.681641Z" fill="#033C71"/>
<path id="Vector_4" d="M16.125 1.43164H15.375V2.69914L16.125 2.54914V1.43164Z" fill="#033C71"/>
<path id="Vector_5" d="M13.7812 20.7221C14.0468 20.6138 14.3325 20.5571 14.625 20.5571V11.9321H15V10.0571H17.625V3.01465L10.875 4.36465V19.902C11.1158 19.8405 11.367 19.8071 11.625 19.8071C12.4481 19.8071 13.2232 20.1454 13.7812 20.7221ZM15 5.55715H16.5V7.80715H15V5.55715ZM12 5.55715H13.5V7.80715H12V5.55715ZM12 9.30715H13.5V11.5571H12V9.30715ZM12 13.0571H13.5V15.3071H12V13.0571ZM12 16.8071H13.5V19.0571H12V16.8071Z" fill="#033C71"/>
<path id="Vector_6" d="M17.625 19.8066C17.883 19.8066 18.1339 19.8415 18.375 19.9038V14.1816H16.875V19.906C17.1173 19.843 17.3681 19.8066 17.625 19.8066Z" fill="#033C71"/>
<path id="Vector_7" d="M20.2234 21.3066H20.25C20.3771 21.3066 20.5013 21.3205 20.625 21.3363V14.1816H19.125V20.2075C19.5769 20.4685 19.9579 20.845 20.2234 21.3066Z" fill="#033C71"/>
<path id="Vector_8" d="M22.125 21.9764V12.6816H15.375V20.6939C15.4058 20.7048 15.4384 20.7096 15.4688 20.722C15.663 20.521 15.885 20.3511 16.125 20.2124V13.4316H21.375V21.5354C21.6461 21.646 21.8977 21.7938 22.125 21.9764Z" fill="#033C71"/>
<path id="Vector_9" d="M22.194 23.1816C21.8047 22.5104 21.0818 22.0566 20.25 22.0566C20.0831 22.0566 19.9207 22.0761 19.764 22.1106C19.4707 21.2091 18.6248 20.5566 17.625 20.5566C16.7764 20.5566 16.038 21.0269 15.6547 21.7206C15.3859 21.4656 15.0247 21.3066 14.625 21.3066C14.2253 21.3066 13.8641 21.4656 13.5953 21.7206C13.212 21.0269 12.4736 20.5566 11.625 20.5566C10.614 20.5566 9.75937 21.2234 9.4755 22.1406C9.32512 22.0904 9.16725 22.0566 9 22.0566L8.80688 22.0701C8.54963 21.6141 8.06063 21.3066 7.5 21.3066C6.67163 21.3066 6 21.9783 6 22.8066C6 22.9364 6.01762 23.0616 6.04838 23.1816H5.28525C5.26425 23.0579 5.25 22.933 5.25 22.8066C5.25 21.5658 6.25912 20.5566 7.5 20.5566C8.1 20.5566 8.66737 20.7974 9.08362 21.2084C9.345 20.7899 9.70463 20.4486 10.125 20.2068V6.68164H4.875V10.6491C5.13938 10.753 5.39175 10.8906 5.625 11.0646V10.4316H6.375V11.1816H5.76825C5.90662 11.2971 6.03975 11.4213 6.162 11.5611C6.62775 11.5855 7.06763 11.7175 7.4655 11.9316H7.875V12.1945C8.77763 12.868 9.375 14.0103 9.375 15.3066C9.375 16.9356 8.43375 18.3213 7.125 18.838V19.4733L4.875 22.0979V23.1816H4.125V21.82L6.375 19.1954V18.2725C7.64475 18.0633 8.625 16.8149 8.625 15.3066C8.625 13.6525 7.44712 12.3066 6 12.3066C5.9355 12.3066 5.8695 12.3108 5.80275 12.3171C5.32125 11.6264 4.58063 11.1816 3.75 11.1816C2.30288 11.1816 1.125 12.5275 1.125 14.1816C1.125 15.6899 2.10525 16.9383 3.375 17.1475V13.8066H4.125V17.3984C4.527 17.8709 5.05275 18.1769 5.625 18.2721V18.9179L4.125 20.668V17.3984C4.06312 17.3256 4.00312 17.2503 3.94725 17.17C3.882 17.1756 3.81675 17.1816 3.75 17.1816C3.6225 17.1816 3.498 17.1678 3.375 17.1475V17.6361C3.06113 17.3523 2.67225 17.1816 2.25 17.1816C1.21613 17.1816 0.375 18.1908 0.375 19.4316C0.375 20.5184 1.02038 21.427 1.875 21.6363V23.1816H0.375V23.9316H23.625V23.1816H22.194ZM6.375 9.68164H5.625V8.93164H6.375V9.68164ZM6.375 8.18164H5.625V7.43164H6.375V8.18164ZM7.875 11.1816H7.125V10.4316H7.875V11.1816ZM7.875 9.68164H7.125V8.93164H7.875V9.68164ZM7.875 8.18164H7.125V7.43164H7.875V8.18164ZM8.625 7.43164H9.375V8.18164H8.625V7.43164ZM8.625 8.93164H9.375V9.68164H8.625V8.93164ZM8.625 10.4316H9.375V11.1816H8.625V10.4316ZM8.625 12.6816V11.9316H9.375V12.6816H8.625ZM2.625 21.6363C2.9025 21.5684 3.15675 21.4248 3.375 21.2275V23.1816H2.625V21.6363Z" fill="#033C71"/>
</g>
</g>
<defs>
<clipPath id="clip0_59_427">
<rect width="24" height="24" fill="white" transform="translate(0 0.306641)"/>
</clipPath>
</defs>
</svg>
