<svg width="25" height="25" viewBox="0 0 25 25" fill="none" xmlns="http://www.w3.org/2000/svg">
<g id="house (1) 1" clip-path="url(#clip0_59_411)">
<g id="Group 11">
<path id="Vector" d="M3.1245 14.6437C3.03623 14.5952 2.97032 14.5143 2.94076 14.418C2.91119 14.3217 2.92029 14.2178 2.96613 14.1281C3.01197 14.0384 3.09094 13.9701 3.18628 13.9377C3.28163 13.9053 3.38585 13.9114 3.47683 13.9545L4.35184 14.4036V13.2228C4.35271 13.1383 4.38119 13.0564 4.43294 12.9896C4.4847 12.9228 4.55688 12.8748 4.63849 12.8528C4.72009 12.8309 4.80663 12.8362 4.8849 12.8681C4.96317 12.8999 5.02888 12.9565 5.07199 13.0292L5.42432 12.5684C5.45533 12.528 5.494 12.4941 5.53813 12.4686C5.58225 12.4432 5.63096 12.4266 5.68147 12.42C5.73199 12.4133 5.78331 12.4167 5.83253 12.4299C5.88174 12.4431 5.92788 12.4658 5.9683 12.4968C6.00872 12.5278 6.04263 12.5665 6.06811 12.6106C6.09359 12.6548 6.11012 12.7035 6.11677 12.754C6.12342 12.8045 6.12006 12.8558 6.10687 12.905C6.09369 12.9542 6.07094 13.0004 6.03992 13.0408L5.12619 14.2294V18.2096C7.95256 18.2843 9.78312 14.617 7.2905 12.7078C8.88953 8.50815 0.549406 8.53835 2.19916 12.7311C-0.603985 15.3 1.68344 17.7419 4.35184 18.1631V15.2748L3.1245 14.6437Z" fill="#033C71"/>
<path id="Vector_2" d="M14.9331 13.7061H17.8756V19.9783H14.9331V13.7061Z" fill="#033C71"/>
<path id="Vector_3" d="M24.6862 9.48525L16.5943 4.85891C16.5362 4.82469 16.47 4.80664 16.4026 4.80664C16.3352 4.80664 16.269 4.82469 16.211 4.85891L7.90686 9.61108C7.8345 9.65475 7.77828 9.72074 7.74668 9.79912C7.71508 9.8775 7.7098 9.96403 7.73164 10.0457C7.75348 10.1273 7.80126 10.1996 7.86778 10.2518C7.93429 10.3039 8.01595 10.333 8.10044 10.3347C8.16836 10.3351 8.23516 10.3175 8.29403 10.2836L10.5493 8.99316V19.2053H5.12888V18.2087C4.86986 18.2192 4.61044 18.2036 4.35453 18.1622V19.2053H1.26217C1.15949 19.2053 1.06101 19.2461 0.988401 19.3187C0.915791 19.3913 0.875 19.4898 0.875 19.5924C0.875 19.6951 0.915791 19.7936 0.988401 19.8662C1.06101 19.9388 1.15949 19.9796 1.26217 19.9796H14.1589V13.3187C14.1589 13.216 14.1997 13.1175 14.2723 13.0449C14.345 12.9723 14.4434 12.9315 14.5461 12.9315H18.263C18.3657 12.9315 18.4642 12.9723 18.5368 13.0449C18.6094 13.1175 18.6502 13.216 18.6502 13.3187V19.9781H21.8753C21.9263 19.9786 21.9769 19.9689 22.0241 19.9496C22.0713 19.9304 22.1142 19.9019 22.1503 19.8658C22.1863 19.8298 22.2148 19.7869 22.2341 19.7397C22.2534 19.6925 22.263 19.6419 22.2625 19.5909V8.99199C22.3244 9.00632 24.4814 10.3177 24.4922 10.2085C24.5768 10.207 24.6586 10.1781 24.7252 10.126C24.7919 10.074 24.8398 10.0016 24.8617 9.91995C24.8836 9.83827 24.8783 9.75167 24.8467 9.67325C24.815 9.59482 24.7587 9.52883 24.6862 9.48525Z" fill="#033C71"/>
</g>
</g>
<defs>
<clipPath id="clip0_59_411">
<rect width="24" height="24" fill="white" transform="translate(0.5 0.306641)"/>
</clipPath>
</defs>
</svg>
