<svg width="24" height="25" viewBox="0 0 24 25" fill="none" xmlns="http://www.w3.org/2000/svg">
<g id="measure 1">
<path id="Vector" d="M20 3.80664H4C3.72386 3.80664 3.5 4.0305 3.5 4.30664V5.30664C3.5 5.58278 3.72386 5.80664 4 5.80664H20C20.2761 5.80664 20.5 5.58278 20.5 5.30664V4.30664C20.5 4.0305 20.2761 3.80664 20 3.80664Z" fill="#033C71"/>
<path id="Vector_2" d="M20 18.8066H4C3.72386 18.8066 3.5 19.0305 3.5 19.3066V20.3066C3.5 20.5828 3.72386 20.8066 4 20.8066H20C20.2761 20.8066 20.5 20.5828 20.5 20.3066V19.3066C20.5 19.0305 20.2761 18.8066 20 18.8066Z" fill="#033C71"/>
<path id="Vector_3" d="M10.35 14.9568C10.15 14.7568 9.83998 14.7568 9.63998 14.9568C9.43998 15.1568 9.43998 15.4668 9.63998 15.6668L11.64 17.6668C11.84 17.8668 12.15 17.8668 12.35 17.6668L14.35 15.6668C14.55 15.4668 14.55 15.1568 14.35 14.9568C14.15 14.7568 13.84 14.7568 13.64 14.9568L12.49 16.1068V8.51682L13.64 9.66682C13.74 9.76682 13.87 9.81682 13.99 9.81682C14.11 9.81682 14.25 9.76682 14.34 9.66682C14.54 9.46682 14.54 9.15682 14.34 8.95682L12.34 6.95682C12.15 6.76682 11.83 6.75682 11.63 6.95682L9.62998 8.95682C9.42998 9.15682 9.42998 9.46682 9.62998 9.66682C9.82998 9.86682 10.14 9.86682 10.34 9.66682L11.49 8.51682V16.1068L10.34 14.9568H10.35Z" fill="#033C71"/>
</g>
</svg>
