<svg width="24" height="25" viewBox="0 0 24 25" fill="none" xmlns="http://www.w3.org/2000/svg">
<g id="parking 1">
<g id="Group 13">
<g id="Group">
<g id="Group_2">
<path id="Vector" d="M6.29368 5.91504H5.60889V7.28459H6.29368C6.67127 7.28459 6.97848 6.97738 6.97848 6.59979C6.97848 6.2222 6.67127 5.91504 6.29368 5.91504Z" fill="#033C71"/>
</g>
</g>
<g id="Group_3">
<g id="Group_4">
<path id="Vector_2" d="M21.1304 19.9413C21.9257 19.6577 22.5 18.9047 22.5 18.0131V16.6436C22.5 15.6909 21.845 14.8949 20.9639 14.6636L20.0377 11.8853C19.7577 11.0451 18.9748 10.4805 18.089 10.4805H12.7588C11.873 10.4805 11.09 11.0451 10.8101 11.8851L9.88382 14.6636C9.00273 14.8949 8.34783 15.6908 8.34783 16.6435V18.0131C8.34783 18.9046 8.92205 19.6576 9.71738 19.9412V20.7522C9.71738 20.9934 9.76689 21.2217 9.84355 21.437H6.97824V12.7084C9.29742 12.3744 11.0869 10.3797 11.0869 7.96968V6.60013C11.0869 3.95704 8.93673 1.80664 6.29349 1.80664C3.65024 1.80664 1.5 3.95704 1.5 6.60013V7.96968C1.5 10.3797 3.28951 12.3744 5.60869 12.7084V21.437H2.1848C1.80676 21.437 1.5 21.7436 1.5 22.1218C1.5 22.5001 1.80676 22.8066 2.1848 22.8066H21.8152C22.1932 22.8066 22.5 22.5001 22.5 22.1218C22.5 21.7435 22.1932 21.437 21.8152 21.437H21.0042C21.0809 21.2218 21.1304 20.9935 21.1304 20.7522V19.9413ZM5.60869 8.65447V9.33927C5.60869 9.71756 5.30194 10.0241 4.9239 10.0241C4.54586 10.0241 4.2391 9.71756 4.2391 9.33927V7.96972V5.23054C4.2391 4.85225 4.54586 4.54574 4.9239 4.54574H6.29345C7.42625 4.54574 8.34779 5.46728 8.34779 6.60009C8.34779 7.73289 7.42625 8.65443 6.29345 8.65443H5.60869V8.65447ZM12.1092 12.3182C12.2029 12.0383 12.4637 11.8501 12.7589 11.8501H18.0891C18.3843 11.8501 18.6451 12.0383 18.7387 12.3185L19.4956 14.5893C17.0023 14.5893 13.9151 14.5893 11.3522 14.5893L12.1092 12.3182ZM10.4021 18.6979C10.0245 18.6979 9.71734 18.3907 9.71734 18.0131V16.6436C9.71734 16.266 10.0245 15.9588 10.4021 15.9588H11.2783L12.1914 18.6979H10.4021ZM13.6999 21.437C13.7766 21.2218 13.826 20.9935 13.826 20.7523V20.0675H17.0217V20.7523C17.0217 20.9935 17.0712 21.2218 17.1478 21.437H13.6999ZM20.4456 18.6979H18.6564L19.5695 15.9588H20.4457C20.8232 15.9588 21.1304 16.266 21.1304 16.6436V18.0131C21.1304 18.3907 20.8232 18.6979 20.4456 18.6979Z" fill="#033C71"/>
</g>
</g>
</g>
</g>
</svg>
