<svg width="24" height="25" viewBox="0 0 24 25" fill="none" xmlns="http://www.w3.org/2000/svg">
<g id="property 1" clip-path="url(#clip0_59_312)">
<path id="Vector" d="M8.06303 21.8386H10.4923V17.035H9.40089C8.98633 17.035 8.62877 16.7574 8.52592 16.3558C8.43292 15.9926 8.57224 15.6185 8.86868 15.403V13.6042L9.87939 13.4484V14.8398L10.9031 14.2789V13.2883L12.042 13.1124V13.655L12.8477 13.2136V0.882812L8.06303 2.92811V21.8386ZM12.042 11.8792L10.9031 12.0935V10.0199L12.042 9.73891V11.8792ZM12.042 8.50572L10.9031 8.82517V6.74997L12.042 6.36377V8.50572ZM12.042 3.12447V5.13227L10.9031 5.55681L10.9028 3.61323L12.042 3.12447ZM8.86872 4.48487L9.88005 4.05137L9.87972 5.93875L8.86868 6.3137L8.86872 4.48487ZM8.86872 7.43987L9.87977 7.09745V9.1143L8.86872 9.39752V7.43992V7.43987ZM8.86872 10.5205L9.87977 10.2714V12.2882L8.86872 12.4782V10.5206V10.5205ZM18.476 3.04834V12.9495L16.6012 11.9223C16.1582 11.6796 15.6474 11.6796 15.2043 11.9223L13.4102 12.9054V0.882812L18.476 3.04834ZM2.79105 8.66308V21.8386H7.50053V6.64989L2.79105 8.66308ZM4.80288 18.6279H3.98074V17.0504L4.80307 16.9701L4.80288 18.6279ZM4.80335 16.0269L3.98074 16.1395V14.5561L4.80335 14.3871V16.0269ZM4.80335 13.4459L3.98074 13.6482V12.0647L4.80335 11.8061V13.4459ZM4.80363 10.864L3.98078 11.1549V9.676L4.80391 9.32931L4.80363 10.864ZM6.59219 18.6279H5.6448V16.8875L6.59219 16.7949V18.6279ZM6.59219 15.78L5.6448 15.9105V14.2147L6.59219 14.0192V15.78ZM6.59219 13.0043L5.6448 13.2377V11.5408L6.59219 11.2414V13.0043ZM6.59219 10.2275L5.64452 10.5648V8.97578L6.59219 8.5742V10.2275ZM22.5684 15.8331L16.331 12.4156C16.0563 12.2651 15.7494 12.2651 15.4747 12.4156L9.23725 15.8331C9.09897 15.9089 9.0318 16.0636 9.07094 16.2164C9.11003 16.3691 9.2433 16.4725 9.40099 16.4725H11.0549V21.8386H12.3194V18.4913H11.9681C11.8128 18.4913 11.6869 18.3654 11.6869 18.2101C11.6869 18.0547 11.8128 17.9288 11.9681 17.9288H15.0898C15.2451 17.9288 15.371 18.0547 15.371 18.2101C15.371 18.3654 15.2451 18.4913 15.0898 18.4913H14.7385V21.8386H20.7509V16.4725H22.4047C22.5625 16.4725 22.6957 16.3691 22.7348 16.2164C22.7739 16.0636 22.7067 15.9089 22.5684 15.8331ZM15.0223 14.6511C15.0223 14.1648 15.4165 13.7706 15.9028 13.7706C16.3891 13.7706 16.7833 14.1648 16.7833 14.6511C16.7833 15.1374 16.3891 15.5316 15.9028 15.5316C15.4165 15.5316 15.0223 15.1374 15.0223 14.6511ZM17.6838 17.8328H16.4437V16.4726H17.6838V17.8328ZM19.4862 17.8328H18.2463V16.4726H19.4862V17.8328ZM1.25439 23.3795V22.7529C1.25439 22.5594 1.41274 22.4011 1.60624 22.4011H21.9713C22.1648 22.4011 22.3231 22.5594 22.3231 22.7529V23.3795C22.3231 23.573 22.1648 23.7314 21.9713 23.7314H1.60624C1.41274 23.7314 1.25439 23.573 1.25439 23.3795Z" fill="#033C71"/>
</g>
<defs>
<clipPath id="clip0_59_312">
<rect width="24" height="24" fill="white" transform="translate(0 0.306641)"/>
</clipPath>
</defs>
</svg>
