<svg width="24" height="25" viewBox="0 0 24 25" fill="none" xmlns="http://www.w3.org/2000/svg">
<g id="radiator 1" clip-path="url(#clip0_59_459)">
<path id="Vector" d="M9.35498 5.77621H10.7025C10.7025 5.48635 10.7548 5.37722 10.8497 5.17891C10.9718 4.92403 11.1391 4.57485 11.1391 3.9532C11.1391 3.33155 10.9718 2.98219 10.8497 2.7273C10.7548 2.529 10.7025 2.41987 10.7025 2.12983C10.7025 1.83997 10.7548 1.73084 10.8497 1.53254C10.9718 1.27765 11.1391 0.928286 11.1391 0.306641H9.79139C9.79139 0.596681 9.7391 0.705812 9.64417 0.904116C9.52203 1.159 9.35498 1.50818 9.35498 2.12983C9.35498 2.75166 9.52221 3.10084 9.64417 3.35573C9.7391 3.55403 9.79139 3.66316 9.79139 3.9532C9.79139 4.24306 9.7391 4.35219 9.64417 4.55031C9.52221 4.80538 9.35498 5.15456 9.35498 5.77621Z" fill="#033C71"/>
<path id="Vector_2" d="M12.501 5.77621H13.8486C13.8486 5.48635 13.9009 5.37722 13.9959 5.17891C14.118 4.92403 14.2852 4.57485 14.2852 3.9532C14.2852 3.33155 14.118 2.98219 13.9959 2.7273C13.9009 2.529 13.8486 2.41987 13.8486 2.12983C13.8486 1.83997 13.9009 1.73084 13.9959 1.53254C14.118 1.27765 14.2852 0.928286 14.2852 0.306641H12.9376C12.9376 0.596681 12.8853 0.705812 12.7903 0.904116C12.6682 1.159 12.501 1.50818 12.501 2.12983C12.501 2.75166 12.6682 3.10084 12.7903 3.35573C12.8853 3.55403 12.9376 3.66316 12.9376 3.9532C12.9376 4.24306 12.8853 4.35219 12.7903 4.55031C12.6682 4.80538 12.501 5.15456 12.501 5.77621Z" fill="#033C71"/>
<path id="Vector_3" d="M15.6475 5.77621H16.9951C16.9951 5.48635 17.0474 5.37722 17.1423 5.17891C17.2645 4.92403 17.4317 4.57485 17.4317 3.9532C17.4317 3.33155 17.2645 2.98219 17.1423 2.7273C17.0474 2.529 16.9951 2.41987 16.9951 2.12983C16.9951 1.83997 17.0474 1.73084 17.1423 1.53254C17.2645 1.27765 17.4317 0.928286 17.4317 0.306641H16.084C16.084 0.596681 16.0318 0.705812 15.9368 0.904116C15.8147 1.159 15.6475 1.50818 15.6475 2.12983C15.6475 2.75166 15.8147 3.10084 15.9368 3.35573C16.0318 3.55403 16.084 3.66316 16.084 3.9532C16.084 4.24306 16.0318 4.35219 15.9368 4.55031C15.8147 4.80538 15.6475 5.15456 15.6475 5.77621Z" fill="#033C71"/>
<path id="Vector_4" d="M9.5598 7.18359C8.87438 7.18359 8.31689 7.76532 8.31689 8.48053V23.0096C8.31689 23.7249 8.87438 24.3066 9.5598 24.3066C10.245 24.3066 10.8027 23.7249 10.8027 23.0096V8.48053C10.8027 7.76532 10.2452 7.18359 9.5598 7.18359Z" fill="#033C71"/>
<path id="Vector_5" d="M13.3933 7.18359C12.7079 7.18359 12.1504 7.76532 12.1504 8.48053V23.0096C12.1504 23.7249 12.7081 24.3066 13.3933 24.3066C14.0787 24.3066 14.6362 23.7249 14.6362 23.0096V8.48053C14.6362 7.76532 14.0787 7.18359 13.3933 7.18359Z" fill="#033C71"/>
<path id="Vector_6" d="M17.2268 7.18359C16.5416 7.18359 15.9839 7.76532 15.9839 8.48053V23.0096C15.9839 23.7249 16.5416 24.3066 17.2268 24.3066C17.9122 24.3066 18.4699 23.7249 18.4699 23.0096V8.48053C18.4699 7.76532 17.9122 7.18359 17.2268 7.18359Z" fill="#033C71"/>
<path id="Vector_7" d="M4.48332 14.3568V23.0096C4.48332 23.7249 5.04099 24.3066 5.7264 24.3066C6.41164 24.3066 6.9693 23.7249 6.9693 23.0096V8.48053C6.9693 7.76532 6.41164 7.18359 5.7264 7.18359C5.04099 7.18359 4.48332 7.76532 4.48332 8.48053V10.1358H1.89364V11.5432H0.544922V12.9494H1.89364V14.3568H4.48332Z" fill="#033C71"/>
<path id="Vector_8" d="M22.3032 10.1358V8.48053C22.3032 7.76532 21.7455 7.18359 21.0603 7.18359C20.3749 7.18359 19.8174 7.76532 19.8174 8.48053V23.0096C19.8174 23.7249 20.3749 24.3066 21.0603 24.3066C21.7455 24.3066 22.3032 23.7249 22.3032 23.0096V11.5421H23.5442V10.1358H22.3032Z" fill="#033C71"/>
</g>
<defs>
<clipPath id="clip0_59_459">
<rect width="23" height="24" fill="white" transform="translate(0.5 0.306641)"/>
</clipPath>
</defs>
</svg>
