<svg width="24" height="25" viewBox="0 0 24 25" fill="none" xmlns="http://www.w3.org/2000/svg">
<g id="residential 1" clip-path="url(#clip0_59_320)">
<path id="Vector" fill-rule="evenodd" clip-rule="evenodd" d="M16.166 0.822266L10.8188 3.10803V22.0561H12.4468V18.0731L12.07 18.1089C11.9159 18.1235 11.7792 18.0103 11.7646 17.8562C11.7501 17.7021 11.8632 17.5654 12.0173 17.5508L14.9148 17.275C15.0689 17.2604 15.2056 17.3736 15.2202 17.5277C15.2348 17.6818 15.1216 17.8186 14.9675 17.8331L14.5381 17.874V22.0561H21.5131V3.10803L16.166 0.822266ZM12.9165 15.52L11.9057 15.6168V13.6639L12.9165 13.508V15.52ZM12.9168 12.3478L11.9058 12.5377V10.5801L12.9168 10.3309V12.3478ZM12.9168 9.17389L11.9058 9.45706V7.49947L12.9168 7.15705V9.17389ZM12.9168 5.99839L11.9058 6.3733V4.54447L12.9171 4.11097L12.9168 5.99839ZM15.0791 15.314L13.9402 15.4232V13.3479L15.0791 13.172V15.314ZM15.0791 11.9388L13.9402 12.1532V10.0796L15.0791 9.7985V11.9388V11.9388ZM15.0791 8.56531L13.9402 8.88477V6.80952L15.0791 6.42331V8.56531ZM15.0791 5.19181L13.9402 5.61636L13.9398 3.67278L15.079 3.18402V5.19181H15.0791ZM17.784 18.7286C17.784 18.8839 17.6581 19.0098 17.5028 19.0098C17.3475 19.0098 17.2215 18.8839 17.2215 18.7286V3.27884C17.2215 3.1235 17.3475 2.99759 17.5028 2.99759C17.6581 2.99759 17.784 3.1235 17.784 3.27884V18.7287V18.7286ZM19.1208 18.7286C19.1208 18.8839 18.9949 19.0098 18.8396 19.0098C18.6842 19.0098 18.5583 18.8839 18.5583 18.7286V3.8503C18.5583 3.69495 18.6843 3.56905 18.8396 3.56905C18.9949 3.56905 19.1208 3.695 19.1208 3.8503V18.7287V18.7286ZM20.4576 18.7286C20.4576 18.8839 20.3317 19.0098 20.1764 19.0098C20.021 19.0098 19.8951 18.8839 19.8951 18.7286V4.42175C19.8951 4.26641 20.021 4.1405 20.1764 4.1405C20.3317 4.1405 20.4576 4.26641 20.4576 4.42175V18.7287V18.7286ZM8.05482 6.34255L2.48672 8.72277V22.0561H4.22513V18.9637L3.84839 18.9995C3.69427 19.0141 3.55753 18.901 3.543 18.7468C3.52847 18.5927 3.64158 18.456 3.79571 18.4415L6.69314 18.1657C6.84727 18.1512 6.984 18.2643 6.99858 18.4184C7.01311 18.5725 6.9 18.7092 6.74588 18.7238L6.31646 18.7647V22.0562H10.2564V7.28366L8.05482 6.34255ZM4.49902 16.0866L3.67641 16.1992V14.6158L4.49902 14.4468V16.0866ZM4.49902 13.5056L3.67641 13.7079V12.1244L4.49902 11.8658V13.5056ZM4.4993 10.9236L3.67646 11.2146V9.73569L4.49958 9.389L4.4993 10.9236ZM6.28782 15.8396L5.34043 15.9702V14.2744L6.28782 14.0788V15.8396ZM6.28782 13.0639L5.34043 13.2973V11.6005L6.28782 11.3011V13.0639ZM6.28782 10.2872L5.34014 10.6245V9.03542L6.28782 8.63384V10.2872ZM0.541504 22.6186H23.4583V23.791H0.541504V22.6186Z" fill="#033C71"/>
</g>
<defs>
<clipPath id="clip0_59_320">
<rect width="24" height="24" fill="white" transform="translate(0 0.306641)"/>
</clipPath>
</defs>
</svg>
