<svg width="24" height="25" viewBox="0 0 24 25" fill="none" xmlns="http://www.w3.org/2000/svg">
<g id="thermal 1">
<path id="Vector" d="M14.0682 2.09539C13.9545 2.53654 13.7209 2.9376 13.3932 3.25414C13.306 3.3316 13.2362 3.42674 13.1885 3.53324C13.1408 3.63975 13.1163 3.75517 13.1167 3.87186C13.117 3.98855 13.1422 4.10383 13.1905 4.21004C13.2389 4.31625 13.3092 4.41096 13.397 4.48789C13.5526 4.62021 13.677 4.78533 13.7613 4.97141C13.8456 5.15748 13.8877 5.35989 13.8845 5.56414C13.8843 5.7666 13.8403 5.96662 13.7555 6.15046C13.6707 6.33429 13.5471 6.4976 13.3932 6.62914C13.3062 6.70619 13.2364 6.80086 13.1887 6.90688C13.1409 7.0129 13.1162 7.12786 13.1162 7.24413C13.1162 7.36041 13.1409 7.47537 13.1887 7.58139C13.2364 7.68741 13.3061 7.78208 13.3932 7.85914C13.5367 7.98136 13.6542 8.13107 13.7388 8.29942C13.8235 8.46778 13.8736 8.65138 13.8862 8.83941C13.8988 9.02744 13.8736 9.21608 13.8121 9.39422C13.7507 9.57236 13.6541 9.73639 13.5283 9.87664C13.4034 9.95597 13.3005 10.0655 13.229 10.1951C13.1576 10.3246 13.12 10.4701 13.1196 10.6181C13.1192 10.7661 13.1561 10.9117 13.2269 11.0417C13.2976 11.1716 13.4 11.2817 13.5245 11.3616C13.6513 11.5013 13.7488 11.665 13.811 11.8431C13.8733 12.0212 13.8991 12.21 13.8868 12.3982C13.8746 12.5865 13.8246 12.7703 13.7398 12.9388C13.655 13.1074 13.5371 13.2571 13.3933 13.3791C13.2974 13.4694 13.2236 13.5804 13.1773 13.7036C13.131 13.8268 13.1135 13.959 13.1261 14.09C13.1388 14.2211 13.1813 14.3475 13.2503 14.4595C13.3194 14.5716 13.4132 14.6664 13.5245 14.7366C13.7594 14.9951 13.8899 15.3317 13.8906 15.6809C13.8913 16.0302 13.7622 16.3673 13.5283 16.6267C13.4162 16.6962 13.3217 16.7906 13.252 16.9025C13.1822 17.0144 13.1392 17.1409 13.1261 17.2721C13.1131 17.4033 13.1304 17.5358 13.1767 17.6593C13.223 17.7827 13.2971 17.8939 13.3932 17.9841C13.5484 18.1164 13.6731 18.2809 13.7585 18.466C13.844 18.6512 13.8883 18.8527 13.8883 19.0566C13.8883 19.2606 13.844 19.4621 13.7585 19.6473C13.6731 19.8324 13.5484 19.9968 13.3932 20.1291C13.3062 20.2062 13.2364 20.3009 13.1887 20.4069C13.1409 20.5129 13.1162 20.6279 13.1162 20.7441C13.1162 20.8604 13.1409 20.9754 13.1887 21.0814C13.2364 21.1874 13.3062 21.2821 13.3932 21.3591C13.7209 21.6757 13.9545 22.0767 14.0682 22.5179C14.0914 22.5978 14.1389 22.6685 14.2041 22.7203C14.2692 22.772 14.3489 22.8022 14.432 22.8066H18.6995C18.7989 22.8063 18.8941 22.7667 18.9643 22.6965C19.0346 22.6262 19.0742 22.531 19.0745 22.4316V2.18164C19.0742 2.08228 19.0346 1.98706 18.9643 1.9168C18.8941 1.84654 18.7989 1.80694 18.6995 1.80664H14.432C14.3491 1.81163 14.2697 1.84201 14.2046 1.89367C14.1395 1.94533 14.0919 2.01575 14.0682 2.09539Z" fill="#033C71"/>
<path id="Vector_2" d="M11.293 12.307C11.0055 12.311 10.7276 12.2035 10.5178 12.0069C10.1738 11.7202 9.74023 11.5632 9.29247 11.5633C8.8447 11.5633 8.41114 11.7204 8.06726 12.0072C7.85733 12.2035 7.57957 12.311 7.29218 12.307C6.40698 12.2694 6.37402 11.5339 5.29301 11.5571C5.19482 11.559 5.10131 11.5994 5.03255 11.6695C4.9638 11.7396 4.92529 11.8339 4.92529 11.9321C4.9253 12.0303 4.96382 12.1246 5.03259 12.1947C5.10135 12.2648 5.19487 12.3051 5.29305 12.307C5.58029 12.3032 5.85787 12.4106 6.06757 12.607C6.41131 12.8937 6.84477 13.0508 7.29243 13.0508C7.74009 13.0509 8.17356 12.8938 8.51733 12.6071C8.72725 12.4106 9.00511 12.3031 9.29261 12.307C10.1803 12.346 10.2133 13.0809 11.293 13.057C11.3912 13.0551 11.4847 13.0147 11.5534 12.9446C11.6221 12.8745 11.6606 12.7802 11.6606 12.682C11.6606 12.5839 11.6221 12.4896 11.5534 12.4195C11.4846 12.3494 11.3912 12.309 11.293 12.307Z" fill="#033C71"/>
<path id="Vector_3" d="M11.293 15.307C11.0055 15.311 10.7276 15.2035 10.5178 15.0069C10.1738 14.7202 9.74023 14.5632 9.29247 14.5633C8.8447 14.5633 8.41114 14.7204 8.06726 15.0072C7.85733 15.2035 7.57957 15.311 7.29218 15.307C6.40698 15.2694 6.37402 14.5339 5.29301 14.5571C5.19482 14.559 5.10131 14.5994 5.03255 14.6695C4.9638 14.7396 4.92529 14.8339 4.92529 14.9321C4.9253 15.0303 4.96382 15.1246 5.03259 15.1947C5.10135 15.2648 5.19487 15.3051 5.29305 15.307C5.58029 15.3032 5.85787 15.4106 6.06757 15.607C6.41131 15.8937 6.84477 16.0508 7.29243 16.0508C7.74009 16.0509 8.17356 15.8938 8.51733 15.6071C8.72725 15.4106 9.00511 15.3031 9.29261 15.307C10.1803 15.346 10.2133 16.0809 11.293 16.057C11.3912 16.0551 11.4847 16.0147 11.5534 15.9446C11.6221 15.8745 11.6606 15.7802 11.6606 15.682C11.6606 15.5839 11.6221 15.4896 11.5534 15.4195C11.4846 15.3494 11.3912 15.309 11.293 15.307Z" fill="#033C71"/>
<path id="Vector_4" d="M11.293 18.307C11.0055 18.311 10.7276 18.2035 10.5178 18.0069C10.1738 17.7202 9.74023 17.5632 9.29247 17.5633C8.8447 17.5633 8.41114 17.7204 8.06726 18.0072C7.85733 18.2035 7.57957 18.311 7.29218 18.307C6.40698 18.2694 6.37402 17.5339 5.29301 17.5571C5.19482 17.559 5.10131 17.5994 5.03255 17.6695C4.9638 17.7396 4.92529 17.8339 4.92529 17.9321C4.9253 18.0303 4.96382 18.1246 5.03259 18.1947C5.10135 18.2648 5.19487 18.3051 5.29305 18.307C5.58029 18.3032 5.85787 18.4106 6.06757 18.607C6.41131 18.8937 6.84477 19.0508 7.29243 19.0508C7.74009 19.0509 8.17356 18.8938 8.51733 18.6071C8.72725 18.4106 9.00511 18.3031 9.29261 18.307C10.1803 18.346 10.2133 19.0809 11.293 19.057C11.3912 19.0551 11.4847 19.0147 11.5534 18.9446C11.6221 18.8745 11.6606 18.7802 11.6606 18.682C11.6606 18.5839 11.6221 18.4896 11.5534 18.4195C11.4846 18.3494 11.3912 18.309 11.293 18.307Z" fill="#033C71"/>
<path id="Vector_5" d="M11.293 9.30705C11.0055 9.31103 10.7276 9.20347 10.5178 9.00694C10.1738 8.72023 9.74023 8.56322 9.29247 8.56327C8.8447 8.56331 8.41114 8.72041 8.06726 9.00719C7.85733 9.20351 7.57957 9.31097 7.29218 9.30705C6.40698 9.26938 6.37402 8.53388 5.29301 8.55709C5.19482 8.55901 5.10131 8.59937 5.03255 8.66948C4.9638 8.7396 4.92529 8.83389 4.92529 8.93209C4.9253 9.0303 4.96382 9.12458 5.03259 9.19469C5.10135 9.2648 5.19487 9.30514 5.29305 9.30705C5.58029 9.30315 5.85787 9.41065 6.06757 9.60697C6.41131 9.89374 6.84477 10.0508 7.29243 10.0508C7.74009 10.0509 8.17356 9.89382 8.51733 9.60709C8.72725 9.41061 9.00511 9.30307 9.29261 9.30705C10.1803 9.34596 10.2133 10.0809 11.293 10.057C11.3912 10.0551 11.4847 10.0147 11.5534 9.94459C11.6221 9.87448 11.6606 9.78021 11.6606 9.68204C11.6606 9.58386 11.6221 9.4896 11.5534 9.41949C11.4846 9.34938 11.3912 9.30901 11.293 9.30705Z" fill="#033C71"/>
<path id="Vector_6" d="M11.293 6.30705C11.0055 6.31103 10.7276 6.20347 10.5178 6.00694C10.1738 5.72023 9.74023 5.56322 9.29247 5.56327C8.8447 5.56331 8.41114 5.72041 8.06726 6.00719C7.85733 6.20351 7.57957 6.31097 7.29218 6.30705C6.40698 6.26938 6.37402 5.53388 5.29301 5.55709C5.19482 5.55901 5.10131 5.59937 5.03255 5.66948C4.9638 5.7396 4.92529 5.83389 4.92529 5.93209C4.9253 6.0303 4.96382 6.12458 5.03259 6.19469C5.10135 6.2648 5.19487 6.30514 5.29305 6.30705C5.58029 6.30315 5.85787 6.41065 6.06757 6.60697C6.41131 6.89374 6.84477 7.05082 7.29243 7.05084C7.74009 7.05086 8.17356 6.89382 8.51733 6.60709C8.72725 6.41061 9.00511 6.30307 9.29261 6.30705C10.1803 6.34596 10.2133 7.0809 11.293 7.05705C11.3912 7.05508 11.4847 7.01471 11.5534 6.94459C11.6221 6.87448 11.6606 6.78021 11.6606 6.68204C11.6606 6.58386 11.6221 6.4896 11.5534 6.41949C11.4846 6.34938 11.3912 6.30901 11.293 6.30705Z" fill="#033C71"/>
</g>
</svg>
