<svg width="34" height="42" viewBox="0 0 34 42" fill="none" xmlns="http://www.w3.org/2000/svg">
<rect x="16" y="33" width="2" height="8" fill="#F9F2EB"/>
<rect x="15.5" y="32.5" width="3" height="9" stroke="#292925" stroke-opacity="0.2"/>
<path d="M1 5C1 2.79086 2.79086 1 5 1H29C31.2091 1 33 2.79086 33 5V29C33 31.2091 31.2091 33 29 33H5C2.79086 33 1 31.2091 1 29V5Z" fill="#F9F2EB"/>
<path d="M29 0.5C31.4853 0.5 33.5 2.51472 33.5 5V29C33.5 31.4853 31.4853 33.5 29 33.5H5C2.51472 33.5 0.5 31.4853 0.5 29V5C0.5 2.51472 2.51472 0.5 5 0.5H29Z" stroke="#292925" stroke-opacity="0.2"/>
<path fill-rule="evenodd" clip-rule="evenodd" d="M11 23V11H23V23H11ZM15.3333 14.3333C15.3333 14.8856 14.8856 15.3333 14.3333 15.3333C13.781 15.3333 13.3333 14.8856 13.3333 14.3333C13.3333 13.781 13.781 13.3333 14.3333 13.3333C14.8856 13.3333 15.3333 13.781 15.3333 14.3333ZM15.3333 19.6667C15.3333 20.2189 14.8856 20.6667 14.3333 20.6667C13.781 20.6667 13.3333 20.2189 13.3333 19.6667C13.3333 19.1144 13.781 18.6667 14.3333 18.6667C14.8856 18.6667 15.3333 19.1144 15.3333 19.6667ZM19.6667 20.6667C20.2189 20.6667 20.6667 20.2189 20.6667 19.6667C20.6667 19.1144 20.2189 18.6667 19.6667 18.6667C19.1144 18.6667 18.6667 19.1144 18.6667 19.6667C18.6667 20.2189 19.1144 20.6667 19.6667 20.6667ZM20.6667 14.3333C20.6667 14.8856 20.2189 15.3333 19.6667 15.3333C19.1144 15.3333 18.6667 14.8856 18.6667 14.3333C18.6667 13.781 19.1144 13.3333 19.6667 13.3333C20.2189 13.3333 20.6667 13.781 20.6667 14.3333ZM17 18C17.5523 18 18 17.5523 18 17C18 16.4477 17.5523 16 17 16C16.4477 16 16 16.4477 16 17C16 17.5523 16.4477 18 17 18Z" fill="#292925"/>
</svg>
