<svg width="36" height="46" viewBox="0 0 36 46" fill="none" xmlns="http://www.w3.org/2000/svg">
<path d="M18 42.5C18.8284 42.5 19.5 43.1716 19.5 44C19.5 44.8284 18.8284 45.5 18 45.5C17.1716 45.5 16.5 44.8284 16.5 44C16.5 43.1716 17.1716 42.5 18 42.5Z" fill="#6DACE2" stroke="#6DACE2"/>
<path d="M18 42V36" stroke="#6DACE2" stroke-width="0.5" stroke-miterlimit="10"/>
<rect x="0.25" y="0.25" width="35.5" height="35.5" fill="white" stroke="#6DACE2" stroke-width="0.5"/>
<g clip-path="url(#clip0_2001_957)">
<path d="M18.0002 8C15.6866 7.99996 13.4447 8.80212 11.6562 10.2697C9.86784 11.7374 8.6436 13.7798 8.19221 16.0488C7.74081 18.3179 8.09013 20.6733 9.18068 22.7137C10.2712 24.7541 12.0355 26.3532 14.1729 27.2386C16.3103 28.1241 18.6886 28.241 20.9025 27.5695C23.1165 26.898 25.0291 25.4796 26.3145 23.556C27.5999 21.6324 28.1786 19.3226 27.9519 17.0202C27.7252 14.7178 26.7072 12.5652 25.0714 10.9292C24.1428 10.0006 23.0404 9.26394 21.8271 8.76131C20.6138 8.25873 19.3135 8.00004 18.0002 8ZM12.4201 16.036C12.6362 15.7564 12.9118 15.5284 13.2269 15.3686C13.5421 15.2088 13.8889 15.1213 14.2422 15.1123C14.6373 15.097 15.0309 15.1688 15.3952 15.3225C15.7595 15.4763 16.0855 15.7083 16.3502 16.0021C16.4027 16.0609 16.4431 16.1295 16.4692 16.204C16.4952 16.2784 16.5063 16.3572 16.5019 16.436C16.4974 16.5147 16.4775 16.5918 16.4432 16.6628C16.409 16.7338 16.3611 16.7974 16.3023 16.85C16.2435 16.9025 16.1749 16.9429 16.1005 16.969C16.026 16.995 15.9472 17.0061 15.8685 17.0016C15.7897 16.9972 15.7126 16.9773 15.6416 16.943C15.5705 16.9088 15.5069 16.8609 15.4544 16.8021C15.308 16.6407 15.1277 16.5137 14.9265 16.4301C14.7253 16.3464 14.5081 16.3082 14.2905 16.3182C14.1156 16.3185 13.9431 16.3582 13.7858 16.4343C13.6284 16.5105 13.4902 16.6211 13.3816 16.758C13.3256 16.8325 13.2531 16.893 13.1698 16.9347C13.0865 16.9764 12.9946 16.9982 12.9015 16.9983C12.7897 16.9986 12.68 16.9677 12.5848 16.909C12.4896 16.8503 12.4127 16.7662 12.3627 16.6661C12.3128 16.5661 12.2919 16.4541 12.3022 16.3427C12.3126 16.2314 12.3539 16.1252 12.4214 16.036H12.4201ZM23.5443 19.794C23.3541 21.129 22.6887 22.3506 21.6702 23.2342C20.6518 24.118 19.3486 24.6045 18.0002 24.6045C16.6518 24.6045 15.3486 24.118 14.3301 23.2342C13.3116 22.3506 12.6462 21.129 12.4561 19.794C12.4414 19.6906 12.451 19.5851 12.4841 19.486C12.5173 19.3906 12.5713 19.3038 12.6422 19.2318C12.7154 19.1585 12.8024 19.1004 12.8982 19.061C12.9939 19.0215 13.0966 19.0013 13.2002 19.0017H22.8001C22.9051 19.0008 23.0091 19.0211 23.106 19.0614C23.2029 19.1016 23.2907 19.161 23.3642 19.236C23.4362 19.3092 23.4903 19.3981 23.5222 19.4957C23.553 19.5926 23.5605 19.6954 23.5443 19.7957V19.794ZM23.6002 16.8462C23.5413 16.8986 23.4726 16.9388 23.3981 16.9647C23.3236 16.9905 23.2448 17.0015 23.1661 16.9968C23.0874 16.9921 23.0104 16.9721 22.9394 16.9376C22.8685 16.9032 22.8051 16.8551 22.7527 16.7962C22.6062 16.635 22.4259 16.508 22.2247 16.4244C22.0235 16.3407 21.8064 16.3025 21.5887 16.3123C21.4133 16.3132 21.2403 16.3537 21.0828 16.4309C20.9252 16.5081 20.7872 16.6199 20.679 16.758C20.623 16.8325 20.5505 16.893 20.4672 16.9347C20.3839 16.9764 20.2921 16.9982 20.1989 16.9983C20.0871 16.9986 19.9774 16.9677 19.8822 16.909C19.787 16.8503 19.7101 16.7662 19.6602 16.6661C19.6103 16.5661 19.5893 16.4541 19.5997 16.3427C19.61 16.2314 19.6513 16.1252 19.7188 16.036C19.9346 15.7567 20.2099 15.5288 20.5247 15.3691C20.8395 15.2093 21.1859 15.1216 21.5387 15.1123C21.9338 15.0976 22.3273 15.1696 22.6915 15.3234C23.0556 15.4771 23.3818 15.7088 23.6468 16.0021C23.7527 16.1209 23.8073 16.2768 23.7983 16.4357C23.7893 16.5946 23.7176 16.7435 23.5989 16.8496L23.6002 16.8462Z" fill="#033C71"/>
</g>
<defs>
<clipPath id="clip0_2001_957">
<rect width="20" height="20" fill="white" transform="translate(8 8)"/>
</clipPath>
</defs>
</svg>
