<svg width="36" height="46" viewBox="0 0 36 46" fill="none" xmlns="http://www.w3.org/2000/svg">
<path d="M18 42.5C18.8284 42.5 19.5 43.1716 19.5 44C19.5 44.8284 18.8284 45.5 18 45.5C17.1716 45.5 16.5 44.8284 16.5 44C16.5 43.1716 17.1716 42.5 18 42.5Z" fill="#6DACE2" stroke="#6DACE2"/>
<path d="M18 42V36" stroke="#6DACE2" stroke-width="0.5" stroke-miterlimit="10"/>
<rect x="0.25" y="0.25" width="35.5" height="35.5" fill="white" stroke="#6DACE2" stroke-width="0.5"/>
<path d="M14.1523 22.6963V26.8479C14.1523 27.3024 14.516 27.6963 15.0008 27.6963C15.4554 27.6963 15.8493 27.3327 15.8493 26.8479V22.6357C15.4857 22.6963 15.1523 22.7267 14.7887 22.7267C14.5766 22.7267 14.3645 22.7267 14.1523 22.6963Z" fill="#033C71"/>
<path d="M9.6972 26.3327C9.45478 26.7267 9.54569 27.2418 9.93963 27.4843C10.0911 27.5752 10.2427 27.6055 10.3942 27.6055C10.6669 27.6055 10.9396 27.4843 11.0911 27.2115C11.879 25.9994 12.4245 24.4237 12.8184 22.3933C12.273 22.2115 11.7275 21.9388 11.2427 21.6055C10.9093 23.6661 10.3942 25.2115 9.6972 26.3327Z" fill="#033C71"/>
<path d="M16.2428 12.2121C17.1298 12.2121 17.8488 11.4931 17.8488 10.6061C17.8488 9.71906 17.1298 9 16.2428 9C15.3558 9 14.6367 9.71906 14.6367 10.6061C14.6367 11.4931 15.3558 12.2121 16.2428 12.2121Z" fill="#033C71"/>
<path d="M18.9093 19.5452C19.0002 19.5452 19.1214 19.5149 19.2124 19.4542H19.2427C19.4851 19.3027 19.576 18.9694 19.4245 18.6967C19.1214 18.2118 18.7275 17.1512 18.2427 15.5452C18.0911 15.03 17.9093 14.4846 17.7578 13.8785C17.7275 13.7876 17.7275 13.727 17.6972 13.6361C17.6669 13.5452 17.6366 13.4542 17.576 13.3936C17.5457 13.333 17.4851 13.3027 17.4245 13.2724C16.3639 12.4846 15.2427 12.2118 14.0002 12.4846C13.9093 12.3936 13.8184 12.333 13.7578 12.2421C11.9699 10.6058 11.9396 8.9391 11.9396 8.87849C11.9396 8.57546 11.6972 8.30273 11.3942 8.30273C11.0911 8.30273 10.8184 8.54516 10.8184 8.84819C10.8184 8.9391 10.8184 11.0906 12.9699 13.1209L13.1821 13.333H13.2124L12.7275 15.8785L10.7578 20.9088C10.9396 21.0603 11.1214 21.2118 11.3033 21.333C11.7881 21.6967 12.3336 21.9694 12.879 22.1512C13.3033 22.3027 13.7275 22.3936 14.1518 22.4239C14.6972 22.4846 15.273 22.4543 15.8487 22.3633C16.2427 22.3027 16.6063 22.1815 17.0002 22.0603L16.9093 16.6664L17.0911 15.7573C17.0911 15.8179 17.1214 15.8482 17.1214 15.9088C17.1518 16.0603 17.2124 16.2118 17.2427 16.333C17.7275 17.8482 18.0911 18.7876 18.4245 19.3027C18.5154 19.4239 18.6063 19.5149 18.7578 19.5452H18.9093Z" fill="#033C71"/>
<path d="M26.0912 17.3935C25.8488 17.3632 25.6367 17.5147 25.6064 17.7571C25.3942 18.9996 23.97 19.242 23.9094 19.2723C23.8791 19.2723 23.8791 19.2723 23.8488 19.2723C22.7579 18.5753 21.667 18.545 20.6064 19.3632C20.5761 19.3632 20.5457 19.3935 20.5154 19.4238C20.1215 19.7571 19.7882 19.8177 19.4245 19.6359C19.3942 19.6662 19.3336 19.6965 19.273 19.7268C19.2124 19.8177 19.0609 19.848 18.9094 19.848C18.8185 19.848 18.7276 19.8177 18.6064 19.7874C18.5761 19.9389 18.6367 20.0905 18.7579 20.1814C19.1215 20.4238 19.4548 20.5753 19.8185 20.5753C20.0912 20.5753 20.3639 20.5147 20.6367 20.3632L20.7579 23.6056C20.7579 23.6965 20.8185 23.7571 20.9094 23.7571H21.0912L21.0306 24.3026L19.9397 26.545C19.8185 26.8177 19.9094 27.1511 20.2124 27.3026C20.3033 27.3329 20.3639 27.3632 20.4548 27.3632C20.667 27.3632 20.8488 27.242 20.97 27.0602L22.0912 24.7571C22.1215 24.6965 22.1518 24.6359 22.1518 24.5753L22.2427 23.8783H22.4245L22.8488 26.9086C22.8791 27.1814 23.1215 27.3935 23.3942 27.3935H23.4851C23.7882 27.3632 24.0003 27.0602 23.97 26.7571L23.5761 23.9086C23.6367 23.9086 23.6973 23.848 23.6973 23.7874L24.1215 20.1208C24.4851 20.0602 26.1518 19.6056 26.4245 17.9389C26.4851 17.6359 26.3336 17.4238 26.0912 17.3935Z" fill="#033C71"/>
<path d="M22.3332 18.4545C23.0027 18.4545 23.5453 17.9118 23.5453 17.2424C23.5453 16.573 23.0027 16.0303 22.3332 16.0303C21.6638 16.0303 21.1211 16.573 21.1211 17.2424C21.1211 17.9118 21.6638 18.4545 22.3332 18.4545Z" fill="#033C71"/>
</svg>
