<svg width="34" height="42" viewBox="0 0 34 42" fill="none" xmlns="http://www.w3.org/2000/svg">
<rect x="16" y="33" width="2" height="8" fill="#F9F2EB"/>
<rect x="15.5" y="32.5" width="3" height="9" stroke="#292925" stroke-opacity="0.2"/>
<path d="M1 5C1 2.79086 2.79086 1 5 1H29C31.2091 1 33 2.79086 33 5V29C33 31.2091 31.2091 33 29 33H5C2.79086 33 1 31.2091 1 29V5Z" fill="#F9F2EB"/>
<path d="M29 0.5C31.4853 0.5 33.5 2.51472 33.5 5V29C33.5 31.4853 31.4853 33.5 29 33.5H5C2.51472 33.5 0.5 31.4853 0.5 29V5C0.5 2.51472 2.51472 0.5 5 0.5H29Z" stroke="#292925" stroke-opacity="0.2"/>
<path fill-rule="evenodd" clip-rule="evenodd" d="M23.6667 17C23.6667 20.6819 20.6819 23.6667 17 23.6667C13.3181 23.6667 10.3334 20.6819 10.3334 17C10.3334 13.3181 13.3181 10.3334 17 10.3334C20.6819 10.3334 23.6667 13.3181 23.6667 17ZM15.1146 17.9428L15.586 18.4142C16.367 19.1953 17.6334 19.1953 18.4144 18.4142L18.8858 17.9428L19.8286 18.8856L19.3572 19.357C18.0555 20.6588 15.945 20.6588 14.6432 19.357L14.1718 18.8856L15.1146 17.9428ZM15.1667 14.5C14.7065 14.5 14.3334 14.8731 14.3334 15.3334C14.3334 15.7936 14.7065 16.1667 15.1667 16.1667C15.6269 16.1667 16 15.7936 16 15.3334C16 14.8731 15.6269 14.5 15.1667 14.5ZM18 15.3334C18 14.8731 18.3731 14.5 18.8334 14.5C19.2936 14.5 19.6667 14.8731 19.6667 15.3334C19.6667 15.7936 19.2936 16.1667 18.8334 16.1667C18.3731 16.1667 18 15.7936 18 15.3334Z" fill="#292925"/>
</svg>
