<svg width="103" height="81" viewBox="0 0 103 81" fill="none" xmlns="http://www.w3.org/2000/svg">
<path d="M0.434082 55.7585V37.7695H4.98364V44.8553H16.3967V37.7695H20.9463V55.7585H16.3967V48.7054H4.98364V55.7585H0.434082Z" fill="#FDF6EE"/>
<path d="M36.7193 55.7592V49.9481L27.313 37.7637H32.8888L38.981 46.0914L45.0732 37.7637H50.649L41.2427 49.9219V55.7592H36.7193Z" fill="#FDF6EE"/>
<path d="M55.5776 55.7585V37.7695H64.363C70.867 37.7695 74.8479 40.881 74.8479 46.764C74.8479 52.6471 70.8408 55.7585 64.363 55.7585H55.5776ZM60.1272 51.9084H64.363C68.2719 51.9084 70.3245 50.1893 70.3245 46.7706C70.3245 43.3519 68.2196 41.6066 64.363 41.6066H60.1272V51.9149V51.9084Z" fill="#FDF6EE"/>
<path d="M83.0122 55.7585V37.7695H101.335V41.6H87.5618V44.8357H99.8181V48.7316H87.5618V51.9084H101.335V55.7651H83.0122V55.7585Z" fill="#FDF6EE"/>
<path d="M0.434082 80.9382V62.9492H13.3114C17.0373 62.9492 19.3513 65.2371 19.3513 68.244C19.3513 71.8914 16.7824 73.5125 13.3114 73.5125H4.98364V80.9382H0.434082ZM4.95751 70.0154H12.6708C14.1089 70.0154 14.8279 69.5317 14.8279 68.3289C14.8279 67.1262 14.1089 66.6228 12.6708 66.6228H4.95751V70.0154Z" fill="#FDF6EE"/>
<path d="M36.6214 62.9492H31.5293L21.1621 80.9382H26.496L28.2936 77.5718H39.8505L41.6481 80.9382H46.9821L36.6149 62.9492H36.6214ZM30.3462 73.7479L34.0721 66.7732L37.798 73.7479H30.3396H30.3462Z" fill="#FDF6EE"/>
<path d="M52.8779 80.9382V62.9492H67.043C70.7689 62.9492 72.8279 64.956 72.8279 67.7014C72.8279 70.4468 70.4878 72.2248 67.043 72.2248L65.1669 72.251V72.3555C69.5138 72.6366 71.3637 75.0814 74.3183 80.9382H68.8667C65.5264 74.9506 64.6505 73.5387 61.6698 73.5387H57.4013L57.4275 80.9382H52.8779ZM57.4013 70.0154H66.1409C67.6051 70.0154 68.298 69.4729 68.298 68.3682C68.298 67.1327 67.6051 66.6228 66.1409 66.6228H57.3751L57.4013 70.0154Z" fill="#FDF6EE"/>
<path d="M80.9009 80.9382V62.9492H85.4504V71.7672L95.1966 62.9492H101.648L93.6082 70.0023L102.394 80.9382H96.2752L90.2549 72.9569L85.4504 77.1862V80.9382H80.9009Z" fill="#FDF6EE"/>
<path d="M63.0752 9.90429C62.1404 4.30887 57.2705 0.0273438 51.4137 0.0273438C45.5568 0.0273438 40.6804 4.30887 39.7522 9.90429H37.2617V13.8002H39.7522C40.687 19.3956 45.5568 23.6771 51.4137 23.6771C57.2705 23.6771 62.1469 19.3956 63.0752 13.8002H65.5656V9.90429H63.0752ZM51.4137 19.6113C47.8054 19.6113 44.7724 17.1404 43.903 13.8002H58.9244C58.055 17.1404 55.0219 19.6113 51.4137 19.6113ZM51.4137 4.09317C55.0219 4.09317 58.055 6.56404 58.9244 9.90429H43.903C44.7724 6.56404 47.8054 4.09317 51.4137 4.09317Z" fill="#FDF6EE"/>
</svg>
