<svg width="36" height="46" viewBox="0 0 36 46" fill="none" xmlns="http://www.w3.org/2000/svg">
<path d="M18 42.5C18.8284 42.5 19.5 43.1716 19.5 44C19.5 44.8284 18.8284 45.5 18 45.5C17.1716 45.5 16.5 44.8284 16.5 44C16.5 43.1716 17.1716 42.5 18 42.5Z" fill="#6DACE2" stroke="#6DACE2"/>
<path d="M18 42V36" stroke="#6DACE2" stroke-width="0.5" stroke-miterlimit="10"/>
<rect x="0.25" y="0.25" width="35.5" height="35.5" fill="white" stroke="#6DACE2" stroke-width="0.5"/>
<path d="M11.9781 20.269C11.9781 21.2006 12.736 21.9585 13.6675 21.9585C14.0151 21.9585 14.3493 21.8536 14.6333 21.6555C14.6473 21.6457 14.6629 21.6404 14.6786 21.6358V20.1516C14.6786 19.04 13.9066 18.4484 13.5767 18.1956C13.5767 18.1956 13.4386 18.086 13.5465 17.9531C13.63 17.8501 13.7672 17.947 13.7672 17.947C13.9905 18.1182 14.3956 18.4304 14.6786 18.9337V17.5236C14.6786 17.4371 14.7486 17.3671 14.8351 17.3671C14.9216 17.3671 14.9916 17.4371 14.9916 17.5236V24.7917C15.1942 24.6752 15.423 24.6024 15.6654 24.5724V21.5116C15.665 21.5041 15.6649 21.497 15.6654 21.4896V17.5236C15.6654 17.4371 15.7355 17.3671 15.822 17.3671C15.9085 17.3671 15.9785 17.4371 15.9785 17.5236V19.9376C16.2531 19.473 16.6476 19.1134 16.9076 18.9688C16.9825 18.9278 17.0782 18.9538 17.1207 19.0296C17.1626 19.1051 17.1354 19.2005 17.0599 19.2427C16.6945 19.4457 15.9785 20.185 15.9785 20.9741V21.4356C16.3299 21.7721 16.7878 21.9585 17.2769 21.9585C18.3143 21.9585 19.1584 21.1147 19.1584 20.0774C19.1584 19.8526 19.1189 19.6325 19.0416 19.4231C19.0229 19.373 19.0312 19.3167 19.0636 19.2742C19.096 19.2314 19.1495 19.2091 19.2009 19.2128C19.2385 19.2158 19.2764 19.217 19.3149 19.217C20.0802 19.217 20.7026 18.5943 20.7026 17.829C20.7026 17.3298 20.4323 16.8666 19.997 16.6202C19.9459 16.5911 19.9154 16.5361 19.9175 16.4774C19.92 16.4187 19.9551 16.3664 20.0083 16.3417C20.591 16.0723 20.9677 15.4832 20.9677 14.8408C20.9677 14.1059 20.4745 13.4522 19.7686 13.2511C19.7203 13.2373 19.6815 13.2012 19.6644 13.1542C19.6472 13.1068 19.6537 13.0542 19.6821 13.0126C19.8894 12.7075 19.9991 12.3507 19.9991 11.9808C19.9991 10.9685 19.1758 10.1452 18.1635 10.1452C17.8755 10.1452 17.5995 10.21 17.3436 10.3381C17.3054 10.357 17.2607 10.3598 17.221 10.3454C17.1806 10.3311 17.1482 10.3008 17.1308 10.262C16.7242 9.35273 15.8186 8.76514 14.8235 8.76514C13.4309 8.76514 12.2979 9.89816 12.2979 11.2908C12.2979 11.3794 12.3024 11.4671 12.3113 11.5534C12.3159 11.5977 12.3015 11.6414 12.2719 11.6744C12.2422 11.7075 12.2 11.7261 12.1557 11.7261C10.9025 11.7261 9.89453 12.7341 9.89453 13.9732C9.89453 14.6296 10.1807 15.2514 10.6793 15.6792C10.716 15.7107 10.7362 15.7574 10.7338 15.8057C10.7316 15.854 10.7069 15.8987 10.6671 15.9265C10.1835 16.2646 9.89453 16.8189 9.89453 17.4086C9.89453 18.4059 10.7056 19.217 11.7026 19.217C11.8173 19.217 11.9319 19.2063 12.0438 19.1852C12.1055 19.1733 12.1658 19.1987 12.2009 19.2488C12.2361 19.299 12.2389 19.3653 12.208 19.4182C12.0576 19.675 11.9781 19.9691 11.9781 20.269Z" fill="#033C71"/>
<path d="M22.8245 26.0288C22.486 26.0288 22.1614 26.1536 21.9104 26.3804C21.8773 26.4104 21.833 26.4244 21.7881 26.4199C21.7434 26.4146 21.7031 26.3908 21.6774 26.3541C21.3912 25.946 20.9235 25.7023 20.426 25.7023C20.0142 25.7023 19.6278 25.864 19.3386 26.1575C19.3059 26.1903 19.2606 26.2071 19.2138 26.2034C19.1674 26.1994 19.1252 26.1753 19.0986 26.1371C18.8974 25.8491 18.5672 25.6769 18.2159 25.6769C17.9668 25.6769 17.724 25.7638 17.532 25.9218C17.4923 25.9542 17.4394 25.9652 17.3908 25.9515C17.3416 25.9377 17.3021 25.901 17.285 25.853C17.0762 25.2621 16.5149 24.8652 15.8878 24.8652C15.0923 24.8652 14.442 25.4871 14.4075 26.2811C14.4048 26.3376 14.3723 26.3884 14.3219 26.4137C14.2715 26.4397 14.2115 26.4357 14.1641 26.4046C13.9752 26.2789 13.7548 26.2123 13.5273 26.2123C12.9479 26.2123 12.4719 26.6441 12.3926 27.2022H24.1688C24.0754 26.5408 23.5113 26.0288 22.8245 26.0288Z" fill="#033C71"/>
<path d="M25.4914 18.1154C25.4508 18.0879 25.4251 18.0427 25.423 17.9935C25.4205 17.9442 25.4413 17.8965 25.4795 17.8654C25.8782 17.5352 26.1069 17.0558 26.1069 16.5504C26.1069 15.5941 25.2985 14.8163 24.3049 14.8163C24.2603 14.8163 24.212 14.7974 24.1823 14.7644C24.1527 14.731 24.1325 14.687 24.1374 14.6427C24.1447 14.576 24.1484 14.5088 24.1484 14.4403C24.1484 13.3635 23.2379 12.4873 22.119 12.4873C21.473 12.4873 20.8786 12.7807 20.4957 13.2743C20.9766 13.6388 21.281 14.2133 21.281 14.8405C21.281 15.5146 20.9321 16.1395 20.3736 16.4975C20.775 16.8176 21.0159 17.3071 21.0159 17.8287C21.0159 18.7373 20.2996 19.482 19.4023 19.5276C19.4484 19.7061 19.4717 19.8902 19.4717 20.077C19.4717 20.7529 19.164 21.3581 18.6816 21.7609C18.8687 22.3661 19.4553 22.7983 20.1195 22.7983C20.5072 22.7983 20.8685 22.6547 21.1486 22.4002V22.0572C21.1486 21.4793 20.5946 20.8921 20.2846 20.7254C20.2085 20.6845 20.1797 20.5897 20.2207 20.5136C20.2617 20.4374 20.3571 20.409 20.4326 20.4497C20.6322 20.5568 20.9253 20.8142 21.1486 21.1473V19.3432C21.1486 19.2567 21.2186 19.1867 21.3051 19.1867C21.3916 19.1867 21.4616 19.2567 21.4616 19.3432V22.4637C21.462 22.4701 21.4621 22.4762 21.4616 22.4826V25.7118C21.5978 25.8046 21.7234 25.9137 21.8316 26.0414C21.8701 26.013 21.9123 25.991 21.953 25.9662V19.3432C21.953 19.2567 22.023 19.1867 22.1095 19.1867C22.196 19.1867 22.266 19.2567 22.266 19.3432V20.3543C22.4953 20.0016 22.7935 19.7742 22.9646 19.6477C23.0343 19.5967 23.1349 19.6086 23.1866 19.6783C23.2379 19.7477 23.2263 19.8434 23.1569 19.8951L23.1508 19.8994C22.886 20.0953 22.266 20.5539 22.266 21.4103V22.5549C22.2734 22.5583 22.2814 22.5594 22.2883 22.5641C22.5155 22.7173 22.7827 22.7983 23.0612 22.7983C23.8044 22.7983 24.4089 22.2171 24.4089 21.5026C24.4089 21.2739 24.3459 21.0489 24.227 20.852C24.1952 20.7991 24.197 20.7328 24.2321 20.682C24.2673 20.6313 24.3297 20.6059 24.3893 20.6172C24.4777 20.6334 24.5694 20.6417 24.6623 20.6417C25.4587 20.6417 26.1069 20.0186 26.1069 19.2527C26.1069 18.8009 25.877 18.3759 25.4914 18.1154Z" fill="#033C71"/>
</svg>
