<svg width="34" height="42" viewBox="0 0 34 42" fill="none" xmlns="http://www.w3.org/2000/svg">
<rect x="16" y="33" width="2" height="8" fill="#F9F2EB"/>
<rect x="15.5" y="32.5" width="3" height="9" stroke="#292925" stroke-opacity="0.2"/>
<path d="M1 5C1 2.79086 2.79086 1 5 1H29C31.2091 1 33 2.79086 33 5V29C33 31.2091 31.2091 33 29 33H5C2.79086 33 1 31.2091 1 29V5Z" fill="#F9F2EB"/>
<path d="M29 0.5C31.4853 0.5 33.5 2.51472 33.5 5V29C33.5 31.4853 31.4853 33.5 29 33.5H5C2.51472 33.5 0.5 31.4853 0.5 29V5C0.5 2.51472 2.51472 0.5 5 0.5H29Z" stroke="#292925" stroke-opacity="0.2"/>
<path fill-rule="evenodd" clip-rule="evenodd" d="M17.6667 13V16.3333H21V17.6667H17.6667V21H16.3333V17.6667H13V16.3333H16.3333V13H17.6667Z" fill="#292925"/>
<path fill-rule="evenodd" clip-rule="evenodd" d="M18 11V16H23V18H18V23H16V18H11V16H16V11H18Z" fill="#292925"/>
<path fill-rule="evenodd" clip-rule="evenodd" d="M17.6667 11V16.3333H23V17.6667H17.6667V23H16.3333V17.6667H11V16.3333H16.3333V11H17.6667Z" fill="#292925"/>
</svg>
