<svg width="34" height="42" viewBox="0 0 34 42" fill="none" xmlns="http://www.w3.org/2000/svg">
<rect x="16" y="33" width="2" height="8" fill="#F9F2EB"/>
<rect x="15.5" y="32.5" width="3" height="9" stroke="#292925" stroke-opacity="0.2"/>
<path d="M1 5C1 2.79086 2.79086 1 5 1H29C31.2091 1 33 2.79086 33 5V29C33 31.2091 31.2091 33 29 33H5C2.79086 33 1 31.2091 1 29V5Z" fill="#F9F2EB"/>
<path d="M29 0.5C31.4853 0.5 33.5 2.51472 33.5 5V29C33.5 31.4853 31.4853 33.5 29 33.5H5C2.51472 33.5 0.5 31.4853 0.5 29V5C0.5 2.51472 2.51472 0.5 5 0.5H29Z" stroke="#292925" stroke-opacity="0.2"/>
<path d="M13 11V15.6667H13.6666V11H15V15.6667H15.6666V11H17V16.6095L15.6666 17.6095V23H13V17.6095L11.6666 16.6095V11H13Z" fill="#292925"/>
<path fill-rule="evenodd" clip-rule="evenodd" d="M21.6689 11H22.3356V23H19.6689V19.6667H17.6333L17.6698 18.9653C17.8136 16.2039 18.5067 14.2594 19.2881 12.9849C19.6776 12.3496 20.0923 11.8756 20.4768 11.5523C20.6686 11.391 20.8608 11.2605 21.0466 11.1672C21.2203 11.08 21.4383 11 21.6689 11Z" fill="#292925"/>
</svg>
