<svg width="36" height="46" viewBox="0 0 36 46" fill="none" xmlns="http://www.w3.org/2000/svg">
<path d="M18 42.5C18.8284 42.5 19.5 43.1716 19.5 44C19.5 44.8284 18.8284 45.5 18 45.5C17.1716 45.5 16.5 44.8284 16.5 44C16.5 43.1716 17.1716 42.5 18 42.5Z" fill="#6DACE2" stroke="#6DACE2"/>
<path d="M18 42V36" stroke="#6DACE2" stroke-width="0.5" stroke-miterlimit="10"/>
<rect x="0.25" y="0.25" width="35.5" height="35.5" fill="white" stroke="#6DACE2" stroke-width="0.5"/>
<g clip-path="url(#clip0_2001_976)">
<path d="M27.4793 25.0049L19.637 17.1625L10.4745 8H9.7584L9.61219 8.37152C9.22629 9.35215 9.06141 10.3551 9.13543 11.2719C9.21981 12.3169 9.6168 13.2216 10.2836 13.8884L17.4363 21.0411L18.3797 20.0977L24.9924 27.4919C25.6502 28.1497 26.7825 28.1888 27.4793 27.4919C28.165 26.8062 28.165 25.6906 27.4793 25.0049Z" fill="#033C71"/>
<path d="M14.1221 19.3848L8.52008 24.9868C7.83445 25.6724 7.83445 26.788 8.52008 27.4737C9.17141 28.125 10.2982 28.1825 11.007 27.4737L16.609 21.8716L14.1221 19.3848Z" fill="#033C71"/>
<path d="M27.1504 11.3296L23.9726 14.5073L23.1436 13.6784L26.3213 10.5006L25.4923 9.6716L22.3146 12.8493L21.4856 12.0204L24.6634 8.84262L23.8345 8.01367L19.6895 12.1586C19.1825 12.6657 18.8797 13.3389 18.8369 14.0545C18.8261 14.2358 18.785 14.4141 18.7168 14.5837L21.4093 17.2763C21.5789 17.208 21.7573 17.167 21.9386 17.1561C22.6541 17.1134 23.3274 16.8106 23.8345 16.3035L27.9794 12.1586L27.1504 11.3296Z" fill="#033C71"/>
</g>
<defs>
<clipPath id="clip0_2001_976">
<rect width="20" height="20" fill="white" transform="translate(8 8)"/>
</clipPath>
</defs>
</svg>
