<svg width="34" height="42" viewBox="0 0 34 42" fill="none" xmlns="http://www.w3.org/2000/svg">
<rect x="16" y="33" width="2" height="8" fill="#F9F2EB"/>
<rect x="15.5" y="32.5" width="3" height="9" stroke="#292925" stroke-opacity="0.2"/>
<path d="M1 5C1 2.79086 2.79086 1 5 1H29C31.2091 1 33 2.79086 33 5V29C33 31.2091 31.2091 33 29 33H5C2.79086 33 1 31.2091 1 29V5Z" fill="#F9F2EB"/>
<path d="M29 0.5C31.4853 0.5 33.5 2.51472 33.5 5V29C33.5 31.4853 31.4853 33.5 29 33.5H5C2.51472 33.5 0.5 31.4853 0.5 29V5C0.5 2.51472 2.51472 0.5 5 0.5H29Z" stroke="#292925" stroke-opacity="0.2"/>
<path d="M25.7332 16.1265L22.123 9.87351C21.8108 9.33273 21.2339 9 20.6098 9H13.3895C12.7653 9 12.1884 9.3331 11.8762 9.87351L8.26642 16.1265C7.95416 16.6673 7.95416 17.3331 8.26642 17.8739L11.8766 24.1265C12.1888 24.6673 12.7657 25 13.3898 25H20.6101C21.2343 25 21.8112 24.6669 22.1234 24.1265L25.7336 17.8739C26.0458 17.3331 26.0458 16.6673 25.7336 16.1265H25.7332Z" fill="black"/>
<path d="M14.0308 16.9734V16.2439H15.0561C15.3018 16.2439 15.4477 16.3783 15.4477 16.6087C15.4477 16.839 15.3018 16.9734 15.0561 16.9734H14.0308ZM14.0308 18.3441V17.5454H15.0714C15.6628 17.5454 16.0927 17.1461 16.0927 16.6008C16.0927 16.0556 15.6855 15.6562 15.0714 15.6562H13.4048V18.3441H14.0308Z" fill="white"/>
<path d="M17.1373 15.6562H16.5076V18.3441H17.1373V15.6562Z" fill="white"/>
<path d="M17.6479 18.3438H20.0016V17.7486H18.2777V17.2804H19.6525V16.7043H18.2777V16.2514H19.9711V15.6562H17.6479V18.3438Z" fill="white"/>
<path d="M22.6512 18.3441H23.2809V15.6562H20.8234V17.4688C20.8234 17.6798 20.762 17.749 20.57 17.749H20.3396V18.3441H20.7352C21.2343 18.3441 21.4532 18.0408 21.4532 17.4647V16.2514H22.6512V18.3441Z" fill="white"/>
</svg>
