<svg width="36" height="46" viewBox="0 0 36 46" fill="none" xmlns="http://www.w3.org/2000/svg">
<path d="M18 42.5C18.8284 42.5 19.5 43.1716 19.5 44C19.5 44.8284 18.8284 45.5 18 45.5C17.1716 45.5 16.5 44.8284 16.5 44C16.5 43.1716 17.1716 42.5 18 42.5Z" fill="#6DACE2" stroke="#6DACE2"/>
<path d="M18 42V36" stroke="#6DACE2" stroke-width="0.5" stroke-miterlimit="10"/>
<rect x="0.25" y="0.25" width="35.5" height="35.5" fill="white" stroke="#6DACE2" stroke-width="0.5"/>
<path d="M11.0585 10.5C11.0579 10.5 11.0573 10.5 11.0568 10.5C10.8676 10.5 10.6897 10.5737 10.5554 10.7077C10.4195 10.8432 10.3447 11.0236 10.3447 11.2157V21.9473C10.3447 22.3408 10.6661 22.6617 11.0613 22.6627C12.7271 22.6667 15.5181 23.0139 17.4435 25.0288V13.7979C17.4435 13.6645 17.4094 13.5392 17.3451 13.4355C15.7648 10.8906 12.7281 10.5039 11.0585 10.5Z" fill="#033C71"/>
<path d="M25.6543 21.9473V11.2157C25.6543 11.0236 25.5795 10.8432 25.4437 10.7077C25.3094 10.5737 25.1313 10.5 24.9424 10.5C24.9417 10.5 24.9411 10.5 24.9406 10.5C23.2711 10.504 20.2343 10.8906 18.654 13.4355C18.5897 13.5392 18.5557 13.6646 18.5557 13.798V25.0288C20.481 23.0139 23.272 22.6667 24.9378 22.6627C25.3329 22.6617 25.6543 22.3408 25.6543 21.9473Z" fill="#033C71"/>
<path d="M27.2846 12.9731H26.7656V21.9455C26.7656 22.9503 25.947 23.7696 24.9407 23.7721C23.5277 23.7755 21.1979 24.0518 19.5479 25.6135C22.4016 24.9147 25.4099 25.369 27.1244 25.7597C27.3384 25.8084 27.5596 25.758 27.7312 25.6213C27.9021 25.485 28.0001 25.2811 28.0001 25.0624V13.6887C28.0002 13.2942 27.6791 12.9731 27.2846 12.9731Z" fill="#033C71"/>
<path d="M9.23447 21.948V12.9756H8.71555C8.32108 12.9756 8 13.2966 8 13.6911V25.0646C8 25.2834 8.09805 25.4872 8.26895 25.6236C8.44033 25.7602 8.66134 25.8108 8.87575 25.7619C10.5902 25.3711 13.5986 24.917 16.4522 25.6157C14.8022 24.0541 12.4724 23.7779 11.0594 23.7745C10.0532 23.7721 9.23447 22.9528 9.23447 21.948Z" fill="#033C71"/>
</svg>
