<svg width="34" height="42" viewBox="0 0 34 42" fill="none" xmlns="http://www.w3.org/2000/svg">
<rect x="16" y="33" width="2" height="8" fill="#F9F2EB"/>
<rect x="15.5" y="32.5" width="3" height="9" stroke="#292925" stroke-opacity="0.2"/>
<path d="M1 5C1 2.79086 2.79086 1 5 1H29C31.2091 1 33 2.79086 33 5V29C33 31.2091 31.2091 33 29 33H5C2.79086 33 1 31.2091 1 29V5Z" fill="#F9F2EB"/>
<path d="M29 0.5C31.4853 0.5 33.5 2.51472 33.5 5V29C33.5 31.4853 31.4853 33.5 29 33.5H5C2.51472 33.5 0.5 31.4853 0.5 29V5C0.5 2.51472 2.51472 0.5 5 0.5H29Z" stroke="#292925" stroke-opacity="0.2"/>
<mask id="mask0_2672_4716" style="mask-type:luminance" maskUnits="userSpaceOnUse" x="9" y="9" width="16" height="16">
<path d="M25 9H9V25H25V9Z" fill="white"/>
</mask>
<g mask="url(#mask0_2672_4716)">
<path d="M17.0003 10.9183L9 15.0001L17.0003 19.0818L22.0003 16.5308L23.6669 15.6805V20.3334H25.0003V15.0002L17.0003 10.9183Z" fill="#292925"/>
<path fill-rule="evenodd" clip-rule="evenodd" d="M12.0004 17.5338V20.5332L17.0003 23.0786L22.0004 20.5332V17.5338L17.0004 20.0799L12.0004 17.5338Z" fill="#292925"/>
</g>
</svg>
