<svg width="36" height="46" viewBox="0 0 36 46" fill="none" xmlns="http://www.w3.org/2000/svg">
<path d="M18 42.5C18.8284 42.5 19.5 43.1716 19.5 44C19.5 44.8284 18.8284 45.5 18 45.5C17.1716 45.5 16.5 44.8284 16.5 44C16.5 43.1716 17.1716 42.5 18 42.5Z" fill="#6DACE2" stroke="#6DACE2"/>
<path d="M18 42V36" stroke="#6DACE2" stroke-width="0.5" stroke-miterlimit="10"/>
<rect x="0.25" y="0.25" width="35.5" height="35.5" fill="white" stroke="#6DACE2" stroke-width="0.5"/>
<g clip-path="url(#clip0_2001_900)">
<path d="M13.7134 24.7993C13.2401 25.1632 12.6551 25.3885 12.0132 25.3885C10.4664 25.3885 9.20762 24.1298 9.20762 22.5829C9.20762 21.0357 10.4664 19.7769 12.0132 19.7769C13.1807 19.7769 14.182 20.4948 14.6041 21.5113L15.4827 20.6001C14.7908 19.3925 13.5046 18.5693 12.0132 18.5693C9.79644 18.5693 8 20.3662 8 22.5829C8 24.7993 9.79644 26.5961 12.0132 26.5961C13.0562 26.5961 13.9972 26.1885 14.7111 25.5359C14.4371 25.444 14.1772 25.2981 13.9552 25.0843C13.8635 24.9958 13.7845 24.8991 13.7134 24.7993Z" fill="#033C71"/>
<path d="M19.8072 18.6001L17.6821 17.3658C18.6298 16.7726 18.2784 16.9923 19.2262 16.3991L19.1963 16.701C19.1452 17.2148 19.5239 17.6851 20.0006 17.7817C20.012 17.784 23.7312 18.4162 23.8668 18.4162C24.3499 18.4162 24.7765 18.0671 24.8582 17.5745C24.9494 17.0261 24.5787 16.508 24.0303 16.4172L21.2923 15.9624L21.4225 14.6558C21.5538 13.8208 21.6107 13.559 21.299 13.0609L20.9071 12.4343C20.4007 11.6256 19.3331 11.3784 18.5225 11.8859L14.233 14.5715C13.1794 15.2312 12.6657 16.6221 13.5258 17.6452C13.8618 18.045 17.1289 20.0527 17.1289 20.0527L14.4829 22.7973C14.0198 23.2773 14.0336 24.0419 14.514 24.5046C14.7483 24.7305 15.0502 24.843 15.3521 24.843C15.6685 24.843 15.9846 24.7196 16.2212 24.4734L20.0698 20.4823C20.6127 19.9205 20.4854 18.994 19.8072 18.6001Z" fill="#033C71"/>
<path d="M24.3154 13.1175C25.2561 12.5282 25.5412 11.2883 24.9522 10.348C24.3634 9.40694 23.1235 9.12194 22.1829 9.71083C21.2425 10.2997 20.9575 11.5392 21.546 12.4795C22.1348 13.4206 23.3747 13.706 24.3154 13.1175Z" fill="#033C71"/>
<path d="M23.9869 18.5693C21.747 18.5693 19.9736 20.4173 19.9736 22.5829C19.9736 24.7993 21.7701 26.5961 23.9869 26.5961C26.2032 26.5961 28.0001 24.7993 28.0001 22.5829C28.0001 20.3662 26.2032 18.5693 23.9869 18.5693ZM23.9869 25.3885C22.44 25.3885 21.1813 24.1298 21.1813 22.5829C21.1813 21.0357 22.44 19.7769 23.9869 19.7769C25.5338 19.7769 26.7925 21.0357 26.7925 22.5829C26.7925 24.1298 25.5338 25.3885 23.9869 25.3885Z" fill="#033C71"/>
</g>
<defs>
<clipPath id="clip0_2001_900">
<rect width="20" height="20" fill="white" transform="translate(8 8)"/>
</clipPath>
</defs>
</svg>
