<svg width="32" height="40" viewBox="0 0 32 40" fill="none" xmlns="http://www.w3.org/2000/svg">
<path d="M0 4C0 1.79086 1.79086 0 4 0H28C30.2091 0 32 1.79086 32 4V28C32 30.2091 30.2091 32 28 32H4C1.79086 32 0 30.2091 0 28V4Z" fill="#F9F2EB"/>
<path d="M9.16406 19.0643L10.4604 17.7679L14.2317 21.5391L12.9353 22.8355L9.16406 19.0643Z" fill="#292925"/>
<path d="M17.7672 10.461L19.0635 9.16467L22.8348 12.9359L21.5384 14.2323L17.7672 10.461Z" fill="#292925"/>
<path d="M9.7533 16.1179L11.2854 14.5858L17.4136 20.7141L15.8816 22.2461L9.7533 16.1179Z" fill="#292925"/>
<path d="M14.5852 11.2861L16.1173 9.75403L22.2455 15.8823L20.7135 17.4143L14.5852 11.2861Z" fill="#292925"/>
<path d="M13.8781 16.2358L16.2351 13.8788L18.1207 15.7644L15.7637 18.1214L13.8781 16.2358Z" fill="#292925"/>
<rect width="2" height="8" transform="translate(15 32)" fill="#F9F2EB"/>
</svg>
