<svg width="36" height="46" viewBox="0 0 36 46" fill="none" xmlns="http://www.w3.org/2000/svg">
<path d="M18 42.5C18.8284 42.5 19.5 43.1716 19.5 44C19.5 44.8284 18.8284 45.5 18 45.5C17.1716 45.5 16.5 44.8284 16.5 44C16.5 43.1716 17.1716 42.5 18 42.5Z" fill="#6DACE2" stroke="#6DACE2"/>
<path d="M18 42V36" stroke="#6DACE2" stroke-width="0.5" stroke-miterlimit="10"/>
<rect x="0.25" y="0.25" width="35.5" height="35.5" fill="white" stroke="#6DACE2" stroke-width="0.5"/>
<g clip-path="url(#clip0_2001_1012)">
<path d="M21.8635 17.1211C21.6369 17.1328 21.5392 17.3828 21.3752 17.4961C21.1642 17.7109 20.7345 17.668 20.551 17.4766C20.3869 17.3281 20.2424 17.043 19.9885 17.1406C19.8361 17.2109 19.758 17.3789 19.6291 17.4805C19.258 17.8047 18.8205 17.5977 18.5588 17.2344C18.3908 17.0469 18.1681 17.1055 18.0158 17.3164C17.6916 17.7695 17.1486 17.7188 16.8674 17.3203C16.7775 17.2109 16.6838 17.1289 16.5549 17.1211C16.3517 17.1211 16.2385 17.3594 16.0939 17.4805C15.7111 17.8047 15.2814 17.5977 15.0236 17.2344C14.8986 17.0781 14.6799 17.0977 14.551 17.2383C14.2541 17.6875 13.6838 17.8086 13.3283 17.3203C13.2736 17.2578 13.2345 17.2109 13.1877 17.1758V22.2422C15.6838 22.3438 15.6291 25.7305 14.4689 27.2852C14.297 27.5156 14.0861 27.7344 13.8517 27.8867C13.9142 27.9023 13.9806 27.9102 14.047 27.9102H22.5744V17.6172C22.2424 17.5508 22.1642 17.1328 21.8635 17.1211ZM21.0392 21.1445C21.0392 21.2383 20.9611 21.3164 20.8674 21.3164H15.0744C14.9806 21.3164 14.9025 21.2383 14.9025 21.1445V19.3398C14.9025 19.2461 14.9806 19.168 15.0744 19.168H20.8713C20.965 19.168 21.0431 19.2461 21.0431 19.3398V21.1445H21.0392ZM23.3322 16.8594C23.426 16.8086 23.5275 16.7813 23.633 16.7813C24.0197 16.7891 24.1252 17.0391 24.3205 17.2188C24.4494 17.3242 24.59 17.3203 24.715 17.2188C24.8166 17.1328 24.9025 16.9844 25.0236 16.9063C25.2736 16.7305 25.5861 16.7344 25.8166 16.9336L26.9728 11.4492C26.9924 11.3516 27.0041 11.2578 27.0041 11.1563C27.0353 10.0742 25.7111 9.35156 24.8205 9.97266C24.5041 10.1797 24.2853 10.4961 24.2072 10.8672L22.8556 17.2773C23.047 17.1758 23.1291 16.9648 23.3322 16.8594ZM24.6838 12.1445C24.7814 11.832 25.2033 11.2422 26.1056 11.2656C26.3283 11.2734 26.3244 11.6055 26.0978 11.6094C25.2463 11.5859 25.0197 12.2227 25.008 12.25C24.9845 12.3203 24.9181 12.3672 24.8439 12.3672C24.7345 12.3672 24.6486 12.25 24.6838 12.1445ZM24.2931 14C24.3908 13.6875 24.8127 13.1016 25.715 13.1211C25.965 13.1406 25.9142 13.4961 25.6681 13.4609C24.8322 13.4609 24.6213 14.0938 24.6213 14.1016C24.5978 14.1758 24.5314 14.2227 24.4572 14.2227C24.3439 14.2227 24.258 14.1055 24.2931 14ZM23.9025 15.8516C24.0002 15.5391 24.422 14.957 25.3244 14.9727C25.547 14.9805 25.5392 15.3125 25.3166 15.3164C24.5119 15.2734 24.2072 15.9492 24.2306 15.957C24.1603 16.1719 23.8361 16.0664 23.9025 15.8516ZM11.4338 22.5195C11.3283 21.9766 11.2424 20.9453 11.9377 20.4297C11.9806 20.3984 12.0314 20.3906 12.0783 20.4023C12.0588 20.4063 12.0392 20.4141 12.0236 20.4297C11.3205 20.9531 11.4142 22.0039 11.5236 22.543C11.4924 22.5313 11.4611 22.5273 11.4338 22.5195ZM15.2424 19.5117H20.6955V20.9766H15.2424V19.5117ZM27.0041 17.1797L26.8517 27.0664C26.8478 27.5352 26.4611 27.9141 25.9963 27.9141H22.922V17.6172C23.1564 17.5625 23.2853 17.3438 23.4455 17.1953C23.6252 17.0586 23.8049 17.125 23.9455 17.3203C24.0588 17.4531 24.2189 17.6406 24.5197 17.6406C24.7072 17.6406 24.84 17.5703 24.9416 17.4805C25.0978 17.3516 25.1955 17.1289 25.4064 17.1211C25.5744 17.1133 25.6877 17.2969 25.797 17.4063C25.8986 17.5156 26.0431 17.6406 26.297 17.6406C26.6916 17.6367 26.7931 17.3594 27.0041 17.1797ZM12.3478 27.6719C12.2853 27.6406 12.2111 27.6484 12.1564 27.6914C10.8088 28.6875 9.40642 26.8867 9.11346 25.5273C8.67205 23.9141 9.48455 22.8242 10.9103 22.793C11.1955 22.793 11.4572 22.8594 11.6955 22.9805C11.7463 23.0039 11.8049 23 11.8478 22.9688C12.4806 22.4258 13.7072 22.4648 14.2931 23.0352C14.7385 23.4688 14.9181 24.1602 14.8986 24.8867C14.8674 26.2344 13.9533 28.3906 12.3478 27.6719ZM20.383 13.7773L21.8127 13.8711L21.6174 16.8242C21.4845 16.8828 21.3869 16.9883 21.297 17.0977C20.9533 17.4961 20.7892 17.2266 20.5158 16.9414C20.3986 16.8203 20.133 16.7383 19.9338 16.8008L20.1174 14.0078C20.1291 13.8711 20.2463 13.7656 20.383 13.7773ZM18.4377 16.7891L18.6994 12.8164C18.7228 12.4844 18.8986 12.1875 19.1799 12.0195C19.5549 11.7852 19.797 11.3906 19.8205 10.957L19.8947 9.84375L21.0744 9.92188L21.0002 11.0352C20.9728 11.4766 21.1603 11.9023 21.4963 12.1758C21.7502 12.3789 21.8869 12.6992 21.8674 13.0273L21.8322 13.5313L20.4025 13.4375C20.0783 13.418 19.797 13.6602 19.7736 13.9844C19.7736 13.9844 19.5783 16.9609 19.5705 17.0391C19.0431 17.7266 18.9494 16.8555 18.4377 16.7891ZM14.1525 17.1758C13.3595 14.9453 13.0197 11.7266 13.7775 11.4375C14.6603 11.0703 17.297 15.0195 17.7267 17.1367C17.5549 17.3711 17.2853 17.332 17.133 17.1016C16.8361 16.6797 16.2892 16.6797 15.9885 17.1016C15.797 17.375 15.5392 17.3555 15.3635 17.1016C15.215 16.9063 15.0158 16.7695 14.7658 16.7852C14.4728 16.8008 14.3127 16.9688 14.1525 17.1758ZM21.2424 9.58984L19.7697 9.49219L19.8517 8.02344L21.3361 8.12109L21.2424 9.58984Z" fill="#033C71"/>
</g>
<defs>
<clipPath id="clip0_2001_1012">
<rect width="20" height="20" fill="white" transform="translate(8 8)"/>
</clipPath>
</defs>
</svg>
