<svg width="34" height="42" viewBox="0 0 34 42" fill="none" xmlns="http://www.w3.org/2000/svg">
<rect x="16" y="33" width="2" height="8" fill="#F9F2EB"/>
<rect x="15.5" y="32.5" width="3" height="9" stroke="#292925" stroke-opacity="0.2"/>
<path d="M1 5C1 2.79086 2.79086 1 5 1H29C31.2091 1 33 2.79086 33 5V29C33 31.2091 31.2091 33 29 33H5C2.79086 33 1 31.2091 1 29V5Z" fill="#F9F2EB"/>
<path d="M29 0.5C31.4853 0.5 33.5 2.51472 33.5 5V29C33.5 31.4853 31.4853 33.5 29 33.5H5C2.51472 33.5 0.5 31.4853 0.5 29V5C0.5 2.51472 2.51472 0.5 5 0.5H29Z" stroke="#292925" stroke-opacity="0.2"/>
<path d="M15.3323 10.077L14.7426 9.76611L14.1208 10.9456L14.7105 11.2565C15.2437 11.5375 15.6039 11.8657 15.8517 12.2493C15.9334 12.3758 16.0056 12.5125 16.0684 12.6612C15.4677 12.5201 14.9076 12.4833 14.3899 12.547C13.5337 12.6522 12.8336 13.0279 12.3002 13.5841C11.2579 14.6709 10.9097 16.3729 11.0193 17.9705C11.1297 19.5799 11.7142 21.2623 12.7566 22.3833C13.2844 22.9509 13.9427 23.387 14.7235 23.5715C15.4318 23.7389 16.198 23.6888 16.9992 23.3969C17.8005 23.6888 18.5669 23.7389 19.2754 23.5715C20.0563 23.387 20.7147 22.951 21.2426 22.3834C22.2853 21.2624 22.87 19.5799 22.9805 17.9705C23.0901 16.3729 22.7418 14.6709 21.6993 13.584C21.1658 13.0279 20.4656 12.6522 19.6093 12.547C18.9725 12.4687 18.2717 12.5423 17.5101 12.7749C17.3922 12.324 17.2177 11.9067 16.9717 11.5258C16.5807 10.9207 16.0346 10.4472 15.3323 10.077Z" fill="#292925"/>
</svg>
