<svg class="card__icon" width="76" height="80" viewBox="0 0 76 80" fill="none" xmlns="http://www.w3.org/2000/svg">
    <path d="M7.64597 5.68013C7.2785 10.483 8.08422 15.078 10.035 19.4849C12.3211 24.6485 15.2889 29.3111 19.7933 32.8499C21.3673 34.087 23.0911 34.9239 25.1377 35.2389C28.3075 35.7275 31.4513 35.8824 34.6014 35.2701C38.8091 34.4519 42.9907 34.4768 47.1557 35.505C47.9448 35.6994 48.6173 35.5871 49.3366 35.1827C51.0209 34.2357 52.7771 34.5122 54.7081 34.9093C54.2115 34.3417 53.7525 33.7356 53.2101 33.2148C51.7205 31.7843 50.2724 30.2956 48.6672 29.0024C45.6556 26.5749 43.2916 23.5975 40.9785 20.5463C38.3156 17.0346 35.43 13.7921 31.3608 11.7472C29.1528 10.6379 27.1385 9.13054 25.0888 7.72709C23.8542 6.88086 22.7278 5.87868 21.539 4.96384C18.9157 2.94288 15.9562 1.7671 12.651 1.46665C12.4366 1.4469 12.2294 1.35023 12.0181 1.28888C17.0263 0.690084 21.5807 2.16006 25.9986 4.31098C27.9796 5.27572 29.9586 6.26645 32.0093 7.06486C36.0525 8.63881 39.6221 10.9373 42.8117 13.8326C43.7662 14.6996 44.5376 15.7683 45.462 16.8225C45.4474 16.5491 45.4464 16.3422 45.4256 16.1374C45.2101 14.0239 45.512 11.9956 46.6238 10.168C47.8115 8.21465 48.9733 6.22591 50.3682 4.42325C52.0171 2.29209 54.3812 1.06537 56.8713 0.11622C57.4199 -0.0927413 57.9653 -0.0615524 58.2475 0.558046C59.5945 3.51465 60.953 6.4671 62.2438 9.44865C62.5176 10.0807 62.654 10.8303 62.6342 11.5195C62.5332 15.2173 62.1814 18.8746 60.1004 22.0995C58.7232 24.2337 57.8248 26.5198 57.6989 29.0762C57.6905 29.2456 57.6791 29.4151 57.6801 29.5835C57.6801 29.6334 57.7218 29.6822 57.7572 29.7613C61.6224 28.6177 65.4001 28.0386 68.3419 31.6554C67.557 31.1346 66.77 30.4536 65.8602 30.0565C64.9546 29.6615 63.9104 29.3173 62.9517 29.3714C61.4693 29.4546 60.0026 29.8766 58.5389 30.1958C57.9143 30.332 57.5406 30.7333 57.4001 31.41C57.2627 32.0681 57.0462 32.7314 56.7401 33.3281C56.433 33.9269 55.9719 34.4467 55.5097 35.0975C55.7428 35.5799 56.0614 36.2681 56.406 36.9448C57.6343 39.3567 57.1836 41.8133 56.483 44.2189C56.0843 45.5859 55.9708 46.9322 56.076 48.3169C56.2821 51.0261 57.9987 53.4993 61.2736 53.7779C63.7147 53.9858 65.7207 53.359 67.5976 51.9202C68.4502 51.2663 69.3465 50.6633 70.2615 50.0998C71.7522 49.1829 72.9171 47.976 73.6354 46.3854C74.3214 44.8655 74.9574 43.3217 75.5477 41.7634C75.6601 41.4671 75.5206 41.0211 75.3801 40.6957C75.1698 40.2092 74.8023 39.7902 74.5921 39.3026C73.2752 36.2608 73.0243 35.3948 70.3375 33.22C71.9812 33.9248 73.2981 35.3636 74.2287 37.3835C74.7576 38.5292 75.3822 39.6311 75.8995 40.782C76.0328 41.0783 76.0328 41.5315 75.9037 41.8299C75.0855 43.723 74.2215 45.5963 73.3543 47.4666C73.2138 47.7701 73.0087 48.0581 72.7797 48.3034C70.4666 50.7725 67.7257 52.65 64.6058 53.9276C63.238 54.488 61.1019 54.2946 58.7253 53.7259C59.1052 54.5264 59.4279 55.2864 59.8173 56.011C60.6136 57.4924 60.4044 58.8886 59.5664 60.2712C58.2246 62.4856 56.4726 64.2934 54.325 65.7457C53.1778 66.5223 52.1327 67.4475 50.9834 68.22C50.2193 68.7335 49.3949 69.2294 48.5246 69.4987C46.7487 70.0486 45.4318 69.3697 44.6407 67.6835C44.5616 67.5151 44.4814 67.3477 44.3638 67.0982C41.8133 70.27 38.4072 72.0997 34.9251 73.839C33.6874 74.4575 32.5579 75.2923 31.3191 75.9077C30.2636 76.4317 29.1518 76.9276 28.0088 77.1719C26.314 77.5347 24.7744 78.1637 23.3233 79.0827C22.8017 79.4132 22.2375 79.7075 21.6546 79.9019C20.8041 80.1857 20.2076 79.8478 20.141 78.9683C20.09 78.2978 20.0889 77.4567 20.4408 76.9505C21.9252 74.8162 22.4405 72.3503 23.0963 69.928C23.7938 67.3529 24.6641 64.8465 25.9674 62.5105C26.4879 61.577 27.0823 60.686 27.6434 59.7753C27.607 59.7795 27.481 59.7691 27.379 59.8128C24.9004 60.8804 22.2979 61.1538 19.6382 60.9626C13.4464 60.5155 7.98533 58.2835 3.28526 54.2177C2.49307 53.5326 1.65923 52.8953 0.881612 52.1946C-0.135432 51.2777 -0.256182 50.5978 0.435033 49.4252C0.92117 48.5987 1.52599 47.8429 2.04857 47.0362C3.26444 45.1618 4.45429 43.2708 5.67017 41.3974C8.88266 36.4469 13.4661 34.1816 19.3415 34.4561C19.6809 34.4717 20.0202 34.4956 20.3596 34.5216C20.6927 34.5475 21.0258 34.5808 21.3891 34.5486C18.9907 33.1108 17.0461 31.1928 15.3483 29.0346C12.0962 24.9022 9.67382 20.3062 8.18728 15.2693C7.39301 12.5768 7.17336 9.76676 7.32534 6.95154C7.34824 6.52219 7.53874 6.10324 7.65117 5.67908L7.64597 5.68013ZM47.7605 36.0186C47.4326 35.8959 47.3327 35.845 47.2265 35.82C43.5726 34.9769 39.8938 34.6681 36.1889 35.4239C31.9968 36.2785 27.8235 36.3668 23.6314 35.4031C22.3676 35.112 21.0602 34.9748 19.7641 34.8636C13.7951 34.35 9.16581 36.6195 5.90752 41.6396C4.75306 43.4184 3.65897 45.2356 2.52533 47.0279C1.99651 47.8637 1.40523 48.6621 0.904515 49.5146C0.263273 50.6051 0.334051 51.0407 1.2647 51.8807C2.08396 52.6198 2.95839 53.2966 3.79014 54.0212C8.49229 58.1234 13.9908 60.2338 20.1982 60.5498C23.8219 60.7338 27.1781 59.9042 30.1178 57.7128C31.4336 56.7325 32.6943 55.6773 33.9622 54.6346C36.1774 52.8121 38.5717 51.3567 41.4521 50.8442C41.9789 50.7506 42.5056 50.6082 43.0022 50.4128C43.2218 50.3265 43.4602 50.0811 43.5331 49.8566C44.0702 48.1964 44.5709 46.5257 45.0706 44.8541C45.1289 44.6597 45.183 44.406 45.107 44.2397C44.7104 43.3695 44.2628 42.5233 43.8516 41.6594C43.5809 41.0897 43.5362 40.5273 43.963 39.9867C44.4283 39.3972 44.8437 38.7693 45.3246 38.1944C45.6067 37.8566 45.9711 37.5873 46.3042 37.2931C46.7539 36.8949 47.2078 36.503 47.7605 36.0196L47.7605 36.0186ZM57.9029 0.426019C57.6478 0.410425 57.271 0.277353 56.9879 0.386514C54.7279 1.25873 52.4367 2.25363 50.9355 4.16648C49.2221 6.35066 47.6752 8.72613 46.4437 11.2097C45.1726 13.7734 45.4381 16.5096 46.6123 19.1678C47.4316 21.0235 48.1426 22.9363 48.7515 24.871C49.3001 26.6144 50.0996 28.1603 51.4206 29.4255C52.7906 30.7374 54.198 32.0078 54.8622 33.878C55.0579 34.428 55.5419 34.4238 55.9042 33.93C56.0676 33.7065 56.2134 33.4414 56.2717 33.1742C56.5746 31.7708 56.9535 30.3725 57.1055 28.9514C57.3439 26.7152 57.854 24.5706 59.1677 22.7409C60.8905 20.3436 61.6629 17.6604 62.1262 14.8015C62.5343 12.2815 62.274 9.91334 61.1997 7.60857C60.1972 5.45661 59.2312 3.28802 58.2485 1.1267C58.1673 0.947893 58.0747 0.773241 57.9029 0.427057L57.9029 0.426019ZM42.034 51.3796C39.9791 51.6759 38.0283 52.2424 36.3617 53.4712C34.1537 55.0993 32.028 56.8385 29.8201 58.4686C28.3835 59.529 27.1021 60.7286 26.3526 62.3463C25.3938 64.4182 24.4861 66.5244 23.7282 68.6753C22.7101 71.5643 22.4374 74.7226 20.5678 77.3039C20.5189 77.3704 20.4678 77.4609 20.4731 77.5368C20.5084 78.0649 20.3846 78.7375 20.6625 79.0712C20.8645 79.3134 21.6161 79.1627 22.1043 79.0795C22.453 79.0203 22.7799 78.7978 23.1047 78.6263C24.8161 77.7218 26.6139 77.0929 28.5137 76.675C29.5713 76.4421 30.5946 75.9514 31.5648 75.4451C33.3938 74.4897 35.1885 73.4668 36.9686 72.4209C39.9583 70.663 42.8658 68.8136 44.6324 65.6542C45.3735 64.3298 46.3198 63.1155 47.0173 61.7714C47.5711 60.7047 47.8886 59.5165 48.3112 58.3833C48.2165 58.3386 48.1228 58.295 48.0281 58.2503C46.9111 60.791 44.8957 62.4221 42.5858 63.7757C41.8821 64.1884 41.1607 64.6396 40.6037 65.2228C38.2802 67.6575 35.3457 67.9954 32.2269 67.8207C31.3868 67.774 30.8757 67.3363 30.5249 66.6263C30.1491 65.8663 30.199 65.1209 30.7154 64.4701C31.3472 63.6749 32.077 62.9586 32.713 62.1664C33.9133 60.6746 35.1947 59.2296 36.2274 57.6265C37.7962 55.1918 39.6085 53.0325 42.033 51.3806L42.034 51.3796ZM54.0939 33.3219C54.1668 33.2688 54.2386 33.2169 54.3115 33.1638C53.8503 32.6368 53.4017 32.0983 52.9228 31.5878C52.497 31.1335 52.0567 30.6896 51.5893 30.28C49.779 28.6925 48.7724 26.6872 48.1374 24.3762C46.986 20.1856 45.2975 16.2569 41.7894 13.397C38.7643 10.9311 35.4841 8.91222 31.85 7.44743C29.7545 6.60225 27.6965 5.65101 25.6759 4.63741C23.5065 3.54999 21.2528 2.75782 18.8855 2.25467C18.7179 2.21932 18.567 2.10185 18.4077 2.02179C18.39 2.13096 18.3713 2.24011 18.3536 2.34926C21.2954 3.49489 23.5242 5.65101 25.9403 7.55451C27.4258 8.72509 28.929 9.9383 30.5956 10.8001C34.9824 13.0675 38.3812 16.3838 41.3605 20.2282C43.6476 23.1785 45.8909 26.1653 48.7963 28.5803C50.617 30.0939 52.3315 31.7354 54.0939 33.3208L54.0939 33.3219ZM55.7949 47.1256C54.4999 48.9241 53.3756 50.7631 51.9755 52.361C50.0028 54.6096 48.5475 57.0079 48.127 60.0352C47.9823 61.0769 47.3431 62.0718 46.8299 63.0355C46.2334 64.1562 45.5141 65.2103 44.8853 66.3144C44.7677 66.5213 44.7167 66.8934 44.826 67.0764C45.1841 67.6762 45.562 68.2938 46.0564 68.7772C46.8007 69.5049 47.7949 69.3937 48.4143 68.5537C48.7443 68.1066 48.9868 67.5806 49.1929 67.0598C49.4636 66.3788 49.6583 65.6667 49.8904 64.9702C50.2485 63.8952 51.0022 63.3006 52.1192 63.1509C52.5678 63.0906 53.0154 63.0157 53.4652 62.9679C55.0787 62.7943 56.4486 62.1373 57.5594 60.949C58.1007 60.371 58.6389 59.7899 59.1979 59.2285C59.9006 58.5237 60.064 57.7138 59.6611 56.8219C59.1032 55.5879 58.6129 54.304 57.8946 53.1666C56.7078 51.2871 55.3899 49.4969 55.7949 47.1256ZM39.4139 65.3829C40.7755 64.4629 42.5264 63.3235 44.2253 62.1113C44.8864 61.6404 45.512 61.0727 46.0158 60.4386C48.1509 57.7523 49.1752 54.6626 49.144 51.2351C49.1305 49.6965 49.2658 48.1995 49.8279 46.742C50.3349 45.4258 50.7804 44.0827 51.1719 42.7271C51.556 41.3964 52.3336 40.4264 53.5193 39.7497C53.7525 39.6166 53.9794 39.4742 54.2501 39.312C52.573 38.7329 50.8085 38.9772 49.5614 40.0771C46.7726 42.5358 44.826 45.5319 44.0588 49.2089C43.9411 49.7745 43.9432 50.3982 44.04 50.97C44.4752 53.5367 44.2378 55.9507 42.8502 58.2409C42.1975 59.3179 41.8425 60.5717 41.2918 61.7152C40.636 63.0771 39.9156 64.4067 39.4139 65.3819L39.4139 65.3829ZM43.5622 50.8525C40.6443 52.8132 38.0418 54.9048 36.2753 57.9384C35.3467 59.5321 34.059 60.9189 32.917 62.3868C32.2935 63.1883 31.5513 63.9108 31.0152 64.7654C30.2417 65.9983 31.0839 67.3623 32.5163 67.3321C32.7994 67.3259 33.0826 67.3217 33.3647 67.3134C36.9582 67.2147 39.4878 65.649 40.7411 62.1581C41.3022 60.5956 41.9591 59.0424 42.7836 57.6057C44.0088 55.4693 44.0463 53.2727 43.5612 50.8536L43.5622 50.8525ZM49.6145 54.3923C50.2266 53.6792 50.921 52.8236 51.6632 52.0117C54.5582 48.8461 56.1124 45.0973 56.5361 40.8631C56.5923 40.3006 56.4653 39.7206 56.4226 39.1488C55.6023 39.4794 54.9277 39.7413 54.2626 40.0231C53.1164 40.5075 52.2586 41.2612 51.8672 42.4952C51.329 44.1918 50.7336 45.8697 50.1975 47.5664C50.0028 48.1828 49.8217 48.8253 49.7832 49.4647C49.6822 51.153 49.6624 52.8465 49.6145 54.3934L49.6145 54.3923ZM55.6335 38.7028C55.8157 37.2068 55.0308 35.5819 53.8014 35.217C52.9093 34.9519 51.861 34.7825 50.9855 34.9946C49.8154 35.2784 48.6485 35.8346 47.6564 36.5269C46.5301 37.3118 45.3392 38.1404 44.8822 39.5896C44.8249 39.7705 44.4783 39.8495 44.394 40.0335C44.2305 40.3921 43.9682 40.8672 44.0858 41.1593C44.4648 42.1054 44.9967 42.9901 45.5984 44.1461C46.1345 43.0961 46.5696 42.2208 47.0329 41.361C47.113 41.2134 47.3098 41.123 47.4628 41.0211C47.7095 40.8558 48.0197 40.7497 48.205 40.5356C49.7717 38.7194 51.7215 38.0645 54.0689 38.5125C54.5842 38.6113 55.113 38.6415 55.6335 38.7028ZM58.7544 60.5031C56.6558 62.4918 55.8667 63.2621 52.2597 63.496C51.1011 63.5709 50.414 64.1926 50.0382 65.2748C49.5708 66.619 49.0347 67.9393 48.4403 69.5028C52.3627 66.935 56.1114 64.3703 58.7544 60.5031Z" fill="#394049"/>
</svg>